<?xml version="1.0" standalone="no"?>
<!DOCTYPE svg PUBLIC "-//W3C//DTD SVG 1.1//EN" "http://www.w3.org/Graphics/SVG/1.1/DTD/svg11.dtd" >
<svg xmlns="http://www.w3.org/2000/svg">
<metadata></metadata>
<defs>
<font id="sofia_pro_softbold" horiz-adv-x="563" >
<font-face units-per-em="1000" ascent="750" descent="-250" />
<missing-glyph horiz-adv-x="242" />
<glyph unicode="&#xfb01;" horiz-adv-x="629" d="M415 640q0 34 25 57.5t60 23.5t60 -23.5t25 -57.5t-25 -58t-60 -24t-60 24t-25 58zM430 357h-185v-300q0 -26 -20.5 -44t-49.5 -18q-28 0 -48.5 18.5t-21.5 43.5v300h-44q-21 1 -35.5 17t-14.5 38q0 23 14.5 39t35.5 16h44v32q0 108 52.5 165t152.5 57h2q27 0 44 -18.5 t17 -45.5q0 -26 -17.5 -44.5t-43.5 -19.5h-2q-65 0 -65 -89v-37h255q29 0 49.5 -18t20.5 -44v-348q0 -26 -20.5 -44t-49.5 -18q-28 0 -48.5 18.5t-21.5 43.5v300z" />
<glyph unicode="&#xfb02;" horiz-adv-x="615" d="M415 57v516q0 27 -84 27q-86 0 -86 -96v-37h48q21 0 35.5 -16t14.5 -39q0 -22 -14.5 -38t-35.5 -17h-48v-300q0 -26 -20.5 -44t-49.5 -18q-28 0 -48.5 18.5t-21.5 43.5v300h-44q-21 1 -35.5 17t-14.5 38q0 23 14.5 39t35.5 16h44v32q0 108 56 165t165 57q66 0 112 -8 t68.5 -17.5t34 -27t13 -28t1.5 -28.5v-6v-549q0 -26 -20.5 -44t-49.5 -18q-28 0 -48.5 18.5t-21.5 43.5z" />
<glyph unicode="&#xfb03;" horiz-adv-x="982" d="M766 640q0 34 25.5 57.5t61.5 23.5q35 0 60 -23.5t25 -57.5t-25 -58t-60 -24q-36 0 -61.5 24t-25.5 58zM783 357h-202v-300q0 -26 -20.5 -44t-49.5 -18q-28 0 -48.5 18.5t-21.5 43.5v300h-196v-300q0 -26 -20.5 -44t-49.5 -18q-28 0 -48.5 18.5t-21.5 43.5v300h-44 q-21 1 -35.5 17t-14.5 38q0 23 14.5 39t35.5 16h44v32q0 108 52.5 165t152.5 57h30q27 0 45.5 -19t18.5 -45q0 -25 -19 -44t-45 -20h-30q-65 0 -65 -89v-37h196v32q0 108 52.5 165t152.5 57h12q27 0 45.5 -19t18.5 -45q0 -25 -19 -44t-45 -20h-12q-65 0 -65 -89v-37h272 q29 0 49.5 -18t20.5 -44v-348q0 -26 -20.5 -44t-49.5 -18q-28 0 -48.5 18.5t-21.5 43.5v300z" />
<glyph unicode="&#xfb04;" horiz-adv-x="968" d="M458 357h-213v-300q0 -26 -20.5 -44t-49.5 -18q-28 0 -48.5 18.5t-21.5 43.5v300h-44q-21 1 -35.5 17t-14.5 38q0 23 14.5 39t35.5 16h44v32q0 108 52.5 165t152.5 57h12q27 0 45.5 -19t18.5 -45q0 -25 -19 -44t-45 -20h-12q-65 0 -65 -89v-37h213v32q0 108 56 165 t165 57q66 0 112 -8t68.5 -17.5t34 -27t13 -28t1.5 -28.5v-6v-549q0 -26 -20.5 -44t-49.5 -18q-28 0 -48.5 18.5t-21.5 43.5v516q0 27 -84 27q-86 0 -86 -96v-37h48q21 0 35.5 -16t14.5 -39q0 -22 -14.5 -38t-35.5 -17h-48v-300q0 -26 -20.5 -44t-49.5 -18q-28 0 -48.5 18.5 t-21.5 43.5v300z" />
<glyph horiz-adv-x="1000" />
<glyph horiz-adv-x="1000" />
<glyph unicode="&#xd;" horiz-adv-x="1000" />
<glyph unicode=" "  horiz-adv-x="242" />
<glyph unicode="&#x09;" horiz-adv-x="242" />
<glyph unicode="&#xa0;" horiz-adv-x="242" />
<glyph unicode="!" horiz-adv-x="277" d="M52 75q0 36 25 59.5t61 23.5t61.5 -24t25.5 -59q0 -36 -25.5 -60t-61.5 -24t-61 24t-25 60zM214 627l-16 -372q-1 -22 -18 -37t-41 -15q-23 0 -40.5 15t-18.5 37l-16 372q-1 27 22 47t53 20q32 0 54.5 -19.5t20.5 -47.5z" />
<glyph unicode="&#x22;" horiz-adv-x="393" d="M113 387q-18 0 -31.5 12t-14.5 28l-11 213q-1 20 16.5 37t40.5 17t40.5 -17t16.5 -37l-11 -213q-1 -16 -14.5 -28t-31.5 -12zM279 387q-18 0 -31.5 12t-14.5 28l-11 213q-1 20 16.5 37t40.5 17t40.5 -17t16.5 -37l-11 -213q-1 -16 -14.5 -28t-31.5 -12z" />
<glyph unicode="#" horiz-adv-x="770" d="M138 533h108l37 128q6 19 25 27.5t39 3.5q21 -5 32.5 -22.5t6.5 -36.5l-29 -100h148l37 128q6 19 25 27.5t39 3.5q21 -5 32.5 -22.5t6.5 -36.5l-29 -100h73q19 0 32 -14t13 -34q0 -19 -13.5 -33.5t-31.5 -14.5h-100l-47 -168h90q19 0 32 -14t13 -34q0 -19 -13.5 -33.5 t-31.5 -14.5h-117l-41 -145q-5 -19 -24 -28t-40 -3q-20 5 -31.5 22.5t-7.5 36.5l33 117h-148l-41 -145q-5 -19 -24 -28t-40 -3q-20 5 -31.5 22.5t-7.5 36.5l33 117h-64q-18 1 -31.5 15t-13.5 33q0 20 13 34t32 14h91l47 168h-81q-18 1 -31.5 15t-13.5 33q0 20 13 34t32 14z M330 437l-47 -168h148l47 168h-148z" />
<glyph unicode="$" horiz-adv-x="571" d="M322 772v-78q118 -15 169 -112q12 -26 5 -47t-27 -34q-52 -33 -92 17q-38 48 -98 48q-38 0 -63.5 -20t-25.5 -51q0 -49 74 -70l82 -24q194 -56 189 -208q-1 -88 -62.5 -139.5t-150.5 -60.5v-87q0 -14 -11 -24.5t-27 -10.5q-14 0 -25.5 10.5t-11.5 24.5v87 q-75 8 -127.5 47t-72.5 99q-8 26 3 49t36 33q28 11 53.5 -0.5t36.5 -34.5q31 -65 111 -65q45 0 72.5 20t28.5 53q1 26 -16.5 45t-66.5 33l-83 23q-178 55 -178 196q0 83 57 138.5t146 65.5v77q1 14 12 24.5t25 10.5q16 0 27 -10.5t11 -24.5z" />
<glyph unicode="%" horiz-adv-x="692" d="M36 528q0 56 38.5 95t94.5 39q55 0 94.5 -39t39.5 -95t-39 -94.5t-95 -38.5t-94.5 38.5t-38.5 94.5zM117 528q0 -22 14.5 -37t37.5 -15q22 0 37.5 15t15.5 37t-15.5 37.5t-37.5 15.5t-37 -15.5t-15 -37.5zM390 124q0 56 38.5 95t94.5 39q55 0 94.5 -39t39.5 -95 t-39 -94.5t-95 -38.5t-94.5 38.5t-38.5 94.5zM471 124q0 -22 14.5 -37t37.5 -15q22 0 37.5 15t15.5 37t-15.5 37.5t-37.5 15.5t-37 -15.5t-15 -37.5zM523 606l-289 -590q-6 -12 -19.5 -15.5t-26.5 3.5q-13 6 -18.5 19.5t0.5 25.5l289 590q6 12 20 15.5t27 -3.5t18 -20 t-1 -25z" />
<glyph unicode="&#x26;" horiz-adv-x="701" d="M426 304h-118q-34 0 -57.5 -11.5t-33 -29t-13 -33t-0.5 -28.5q16 -76 104 -76q40 0 79 29.5t39 93.5v55zM426 657q20 -14 24.5 -38t-5.5 -39q-14 -27 -48.5 -29.5t-56.5 9.5q-20 8 -34 8q-35 0 -54.5 -23.5t-19.5 -50.5q0 -4 0.5 -9.5t5 -19t12 -23.5t24 -18t38.5 -8h114 v41q0 25 19 42.5t46 17.5q25 0 44 -18t20 -42v-41h33q22 0 37 -16.5t15 -39.5q0 -22 -15.5 -38.5t-36.5 -17.5h-33v-102q0 -51 12 -72.5t46 -25.5q24 -2 40 -17t16 -40q0 -24 -17 -40t-46 -16q-50 0 -90.5 22.5t-61.5 62.5q-18 -39 -68.5 -62t-98.5 -23q-101 0 -168 56 t-67 144q0 135 114 176q-38 12 -62.5 49t-24.5 88q0 75 57 132t144 61q84 4 146 -40z" />
<glyph unicode="'" horiz-adv-x="226" d="M113 387q-18 0 -31.5 12t-14.5 28l-11 213q-1 20 16.5 37t40.5 17t40.5 -17t16.5 -37l-11 -213q-1 -16 -14.5 -28t-31.5 -12z" />
<glyph unicode="(" horiz-adv-x="310" d="M44 232q0 113 29 227t88 205q12 19 34.5 26.5t44.5 -2.5q21 -10 28 -33.5t-4 -43.5q-52 -77 -77.5 -177.5t-25.5 -201.5t25.5 -201.5t77.5 -177.5q11 -20 4 -43.5t-28 -33.5q-22 -10 -44.5 -2.5t-34.5 26.5q-59 91 -88 205t-29 227z" />
<glyph unicode=")" horiz-adv-x="310" d="M266 232q0 -113 -29 -227t-88 -205q-12 -19 -34.5 -26.5t-44.5 2.5q-21 10 -28 33.5t4 43.5q52 77 77.5 177.5t25.5 201.5t-25.5 201.5t-77.5 177.5q-11 20 -4 43.5t28 33.5q22 10 44.5 2.5t34.5 -26.5q59 -91 88 -205t29 -227z" />
<glyph unicode="*" horiz-adv-x="451" d="M291 499l52 -61q12 -15 12 -33q0 -17 -13 -31.5t-32 -14.5q-27 0 -43 24l-41 66l-42 -65q-15 -26 -42 -26q-21 0 -33.5 15.5t-12.5 32.5q0 15 10.5 30.5t29.5 34t25 26.5q-3 1 -19.5 4.5t-23 5t-20.5 5.5t-20.5 8.5t-15 11t-12 14.5t-3.5 18q0 21 13.5 32t32.5 11 q21 0 93 -29l-7 74v5q0 20 13.5 34t33.5 14t33 -14t13 -34v-4l-6 -75l67 25q9 4 23 4q19 0 32.5 -11.5t13.5 -32.5q0 -15 -10 -28t-26 -17z" />
<glyph unicode="+" horiz-adv-x="495" d="M298 426v-114h115q19 0 32 -15t13 -36q0 -20 -13 -35.5t-32 -15.5h-115v-115q0 -19 -15 -32t-36 -13q-20 0 -35.5 13t-15.5 32v115h-114q-19 0 -32 15.5t-13 35.5q0 21 13 36t32 15h114v114q0 19 15.5 32t35.5 13q21 0 36 -13t15 -32z" />
<glyph unicode="," horiz-adv-x="259" d="M205 96q-3 -39 -24.5 -90.5t-61 -94t-82.5 -42.5q-42 0 -42 28q0 15 9 29q34 50 46.5 86t12.5 90q0 27 21 46t48 19q32 0 53.5 -20.5t19.5 -50.5z" />
<glyph unicode="-" horiz-adv-x="483" d="M109 301h265q21 0 35 -16t14 -39q0 -22 -14.5 -38.5t-34.5 -16.5h-265q-20 0 -34.5 16.5t-14.5 38.5q0 23 14 39t35 16z" />
<glyph unicode="." horiz-adv-x="273" d="M50 75q0 36 25 59.5t61 23.5t61.5 -24t25.5 -59q0 -36 -25.5 -60t-61.5 -24t-61 24t-25 60z" />
<glyph unicode="/" horiz-adv-x="447" d="M411 623l-286 -599q-8 -17 -27 -22.5t-37 3.5t-25.5 26.5t-0.5 34.5l288 600q8 16 27 21.5t36 -3.5q18 -9 25.5 -26.5t-0.5 -34.5z" />
<glyph unicode="0" horiz-adv-x="601" d="M56 328q0 340 245 340q69 0 118 -26t75.5 -74t38 -106.5t11.5 -133.5q0 -74 -11.5 -132t-38 -106t-75.5 -73.5t-118 -25.5q-245 0 -245 337zM196 328q0 -201 105 -201q103 0 103 201q0 204 -103 204q-105 0 -105 -204z" />
<glyph unicode="1" horiz-adv-x="370" d="M54 580l168 80q17 8 34 8h2q13 0 22 -9.5t9 -21.5v-577q0 -26 -21 -45.5t-49 -19.5q-27 0 -48.5 20t-21.5 45v437l-45 -19q-19 -9 -40.5 -1t-31.5 29q-11 21 -4 43t26 31z" />
<glyph unicode="2" horiz-adv-x="545" d="M179 476q-10 -23 -33 -36t-52 -5q-24 7 -36 30.5t-3 51.5q25 71 81 111t135 40q89 0 151.5 -56t62.5 -143q0 -82 -69 -166l-148 -171h162q25 0 43 -19.5t18 -46.5q0 -26 -18.5 -46t-42.5 -20h-334q-20 0 -32.5 12.5t-12.5 34.5q0 29 21 53l238 295q35 45 35 74 q0 27 -22 46t-60 19q-60 0 -84 -58z" />
<glyph unicode="3" horiz-adv-x="535" d="M176 519q-57 -37 -94 2q-17 19 -15.5 43.5t19.5 41.5q71 68 176 62q84 -4 140 -58.5t54 -125.5q0 -39 -23 -73t-61 -55q53 -19 85 -71.5t27 -106.5q-8 -84 -84 -138.5t-174 -47.5q-98 6 -165 76q-16 16 -18 41.5t16 47.5q17 20 43 22t52 -19q38 -31 83 -33 q36 -2 63.5 20.5t30.5 49.5q1 9 -0.5 19.5t-7.5 28t-25.5 28.5t-49.5 11h-32q-23 0 -39.5 17.5t-16.5 42.5q0 23 17 41.5t39 18.5h26q64 0 64 71q0 20 -16.5 41.5t-49.5 21.5q-36 0 -64 -19z" />
<glyph unicode="4" horiz-adv-x="577" d="M183 273h124v199zM42 250l229 365q17 27 36.5 40t50.5 13q39 0 64.5 -25t25.5 -61v-309h41q22 0 38.5 -17.5t16.5 -41.5q0 -23 -16.5 -41t-38.5 -18h-41v-95q0 -26 -21 -45.5t-50 -19.5q-27 0 -48.5 20t-21.5 45v95h-234q-22 0 -36 12.5t-14 32.5q0 18 19 50z" />
<glyph unicode="5" horiz-adv-x="570" d="M68 72q-18 18 -18 47t20 49q18 17 45.5 16.5t45.5 -16.5q48 -41 96 -41q63 0 96.5 30.5t33.5 73.5q0 50 -29 77t-80 27q-78 0 -131 -57q-22 -24 -61 -1q-30 17 -23 61l44 282q3 18 16.5 29t29.5 11h278q24 0 41.5 -19t17.5 -45q0 -25 -18 -44.5t-41 -19.5h-207l-20 -122 q40 35 117 35q82 0 142.5 -60t60.5 -154q0 -106 -72.5 -173t-194.5 -67q-105 0 -189 81z" />
<glyph unicode="6" horiz-adv-x="579" d="M392 515q-26 22 -72 22q-62 0 -93.5 -54t-30.5 -127v-16q9 28 44.5 52t97.5 24q28 0 59.5 -11.5t63 -34.5t52 -65t20.5 -95q0 -95 -66 -157t-172 -62q-94 0 -160 62.5t-75 165.5q-6 51 -3 104t10 104t27.5 95.5t49 77.5t75.5 51.5t106 16.5q110 -4 160 -64q40 -49 -2 -90 q-21 -18 -45.5 -17t-45.5 18zM388 210q0 35 -25.5 60.5t-60.5 25.5t-60.5 -25.5t-25.5 -60.5t25.5 -60.5t60.5 -25.5t60.5 25.5t25.5 60.5z" />
<glyph unicode="7" horiz-adv-x="521" d="M483 567l-233 -532q-11 -24 -40.5 -34.5t-56.5 -0.5q-27 12 -37.5 39.5t1.5 52.5l194 447h-221q-24 0 -42.5 19.5t-18.5 44.5q0 27 18 46t43 19h354q56 0 56 -45q0 -20 -17 -56z" />
<glyph unicode="8" horiz-adv-x="596" d="M96 485q0 76 59.5 129.5t142.5 53.5t143 -53.5t60 -129.5q0 -67 -48 -110q43 -25 68.5 -68.5t25.5 -96.5q0 -93 -72.5 -156t-176.5 -63t-176.5 63t-72.5 156q0 53 25 96.5t69 68.5q-47 45 -47 110zM189 217q0 -41 32.5 -68.5t76.5 -27.5t76.5 27.5t32.5 68.5q0 40 -29 69 t-81 29q-51 0 -79.5 -29t-28.5 -69zM231 481q0 -27 17.5 -45t49.5 -18t49.5 18t17.5 45q0 25 -18 43t-49 18t-49 -18t-18 -43z" />
<glyph unicode="9" horiz-adv-x="577" d="M187 147q30 -25 72 -25q35 0 60.5 17.5t38.5 47.5t19 62.5t6 69.5q-9 -28 -44.5 -52t-97.5 -24q-28 0 -59.5 11.5t-63 34.5t-52 65t-20.5 95q0 95 66 157t172 62q91 0 157.5 -71.5t77.5 -176.5q3 -33 3 -70q0 -54 -6.5 -102t-24.5 -96.5t-46 -83t-74 -56t-106 -21.5 q-119 0 -171 64q-18 21 -18 47q0 24 18.5 43.5t43.5 19.5q26 0 49 -18zM191 449q0 -35 25.5 -60.5t60.5 -25.5t60.5 25.5t25.5 60.5t-25.5 60.5t-60.5 25.5t-60.5 -25.5t-25.5 -60.5z" />
<glyph unicode=":" horiz-adv-x="292" d="M60 75q0 36 25 59.5t61 23.5t61 -23.5t25 -59.5t-25 -60t-61 -24t-61 24t-25 60zM60 392q0 36 25 60t61 24t61 -24t25 -60t-25 -59.5t-61 -23.5t-61 23.5t-25 59.5z" />
<glyph unicode=";" horiz-adv-x="284" d="M219 96q-3 -39 -24.5 -90.5t-61 -94t-82.5 -42.5q-42 0 -42 28q0 15 9 29q34 50 46.5 86t12.5 90q0 27 21 46t48 19q32 0 53.5 -20.5t19.5 -50.5zM57 392q0 36 25 60t61 24t61 -24t25 -60t-25 -59.5t-61 -23.5t-61 23.5t-25 59.5z" />
<glyph unicode="&#x3c;" horiz-adv-x="624" d="M37 296v6q0 50 47 70l401 154q19 6 38.5 -3.5t27.5 -28.5q7 -20 -1 -40t-27 -28l-332 -127l332 -126q19 -8 27 -28t1 -40q-8 -19 -27.5 -29t-38.5 -3l-401 154q-47 20 -47 69z" />
<glyph unicode="=" horiz-adv-x="607" d="M494 346h-381q-19 0 -32 15.5t-13 35.5q0 21 13 36t32 15h381q19 0 32 -15t13 -36q0 -20 -13 -35.5t-32 -15.5zM494 149h-381q-19 0 -32 15.5t-13 35.5q0 21 13 36t32 15h381q19 0 32 -15t13 -36q0 -20 -13 -35.5t-32 -15.5z" />
<glyph unicode="&#x3e;" horiz-adv-x="625" d="M587 302v-6q0 -49 -47 -69l-401 -154q-19 -7 -38.5 3t-27.5 29q-7 20 1 40t27 28l332 126l-332 127q-19 8 -27 28t-1 40q8 19 27.5 28.5t38.5 3.5q69 -26 208 -80t193 -74q47 -20 47 -70z" />
<glyph unicode="?" horiz-adv-x="486" d="M110 75q0 36 25 59.5t61 23.5t61.5 -24t25.5 -59q0 -36 -25.5 -60t-61.5 -24t-61 24t-25 60zM43 573q23 59 74 91.5t122 32.5q95 0 153 -53t58 -142q0 -71 -37 -120.5t-97 -68.5q-46 -13 -49 -47q-2 -27 -22.5 -45t-49.5 -18q-30 0 -49 19t-19 59q0 44 24.5 86t81.5 64 l33 14q44 20 44 58q0 23 -20 41t-51 18q-51 0 -68 -48q-8 -24 -39.5 -34t-57.5 1q-25 11 -33.5 40t2.5 52z" />
<glyph unicode="@" horiz-adv-x="981" d="M546 120q6 -33 -19.5 -47t-57.5 -14q-85 0 -145 59t-60 144q0 86 60 145.5t145 59.5q83 0 142 -56q61 -55 64 -139v-142q0 -32 17.5 -46t42.5 -14q31 0 53 20.5t32.5 54t15 65.5t4.5 65q0 142 -106 237.5t-255 95.5q-144 0 -243.5 -102.5t-99.5 -248.5 q0 -145 99.5 -245.5t243.5 -100.5h10q17 0 29.5 -13.5t12.5 -31.5q0 -17 -13 -30.5t-29 -13.5h-10q-182 0 -307 126t-125 309t125.5 311.5t306.5 128.5q121 0 224 -54.5t165 -152t62 -215.5q0 -48 -10.5 -96.5t-32 -94t-61 -74t-91.5 -28.5q-64 0 -107 37t-43 117v126 q0 49 -34 83t-82 34t-82 -34t-34 -83q0 -47 34.5 -81t81.5 -34l29 1q39 4 48 -28z" />
<glyph unicode="A" horiz-adv-x="640" d="M438 163h-236l-47 -126q-10 -25 -37 -36t-55 -2q-27 9 -40 37t-4 54l199 536q26 68 99 68h6q73 0 99 -68l199 -536q9 -26 -4 -54t-40 -37q-28 -9 -55 2t-37 36zM250 290h140l-70 240z" />
<glyph unicode="B" horiz-adv-x="636" d="M375 0h-238q-27 0 -42.5 18t-15.5 44v565q1 27 16 44.5t42 17.5h218q93 0 148.5 -52t55.5 -140q0 -39 -22.5 -74.5t-71.5 -54.5q63 -16 96.5 -62.5t33.5 -94.5q0 -89 -60 -150t-160 -61zM226 414h115q28 0 46 21t18 52q0 33 -17 53t-48 20h-114v-146zM364 298h-138v-169 h141q34 0 54 26t20 60q0 32 -20.5 57.5t-56.5 25.5z" />
<glyph unicode="C" horiz-adv-x="672" d="M42 344q0 148 99.5 250.5t246.5 102.5q146 0 244 -95q19 -18 15.5 -49.5t-24.5 -50.5q-21 -18 -48 -18t-46 17q-57 54 -141 54q-85 0 -142.5 -61.5t-57.5 -149.5t57.5 -149.5t142.5 -61.5q84 0 141 54q19 17 46 17t48 -18q21 -19 24.5 -50.5t-15.5 -49.5 q-98 -95 -244 -95q-147 0 -246.5 102.5t-99.5 250.5z" />
<glyph unicode="D" horiz-adv-x="705" d="M225 560v-432h124q79 0 122 62.5t43 152.5q0 91 -43 154t-122 63h-124zM349 0h-212q-27 0 -42.5 18t-15.5 44v565q1 27 16 44.5t42 17.5h212q145 0 228 -97.5t83 -248.5t-83 -247t-228 -96z" />
<glyph unicode="E" horiz-adv-x="564" d="M136 689h318q25 0 42.5 -19t17.5 -46q0 -25 -18 -44.5t-42 -19.5h-230v-158h199q25 0 42.5 -18.5t17.5 -44.5q0 -25 -18 -44t-42 -19h-199v-148h239q25 0 42.5 -19t17.5 -45q0 -25 -18 -44.5t-42 -19.5h-327q-27 0 -42 17.5t-16 44.5v565q1 27 16 44.5t42 17.5z" />
<glyph unicode="F" horiz-adv-x="537" d="M136 689h317q25 0 42.5 -19t17.5 -46q0 -25 -18 -44t-42 -20h-229v-158h170q25 0 42.5 -18.5t17.5 -44.5q0 -25 -18 -44t-42 -19h-170v-213q0 -28 -21.5 -48t-51.5 -20q-29 0 -51 20.5t-22 47.5v564q1 27 16 44.5t42 17.5z" />
<glyph unicode="G" horiz-adv-x="749" d="M728 307q-17 -160 -104.5 -238t-229.5 -78q-148 0 -250.5 103t-102.5 249q0 147 102.5 250.5t250.5 103.5q124 0 215 -72q19 -15 17 -49t-23 -53q-19 -16 -44 -17.5t-44 12.5q-49 37 -121 37q-87 0 -147 -62t-60 -150q0 -87 60 -148.5t147 -61.5q126 0 170 110h-136 q-23 0 -41 18t-18 41q0 25 17.5 42.5t41.5 17.5h257q49 0 43 -55z" />
<glyph unicode="H" horiz-adv-x="691" d="M614 626v-563q0 -28 -21.5 -48t-51.5 -20q-29 0 -51 20.5t-22 47.5v214h-245v-214q0 -28 -21.5 -48t-51.5 -20q-29 0 -51 20.5t-22 47.5v563q1 27 23 47.5t50 20.5q30 0 51.5 -20t21.5 -48v-218h245v218q1 27 23 47.5t50 20.5q30 0 51.5 -20t21.5 -48z" />
<glyph unicode="I" horiz-adv-x="300" d="M223 626v-563q0 -28 -21.5 -48t-51.5 -20q-29 0 -51 20.5t-22 47.5v563q1 27 23 47.5t50 20.5q30 0 51.5 -20t21.5 -48z" />
<glyph unicode="J" horiz-adv-x="304" d="M-39 -93q19 -2 39 -2q40 0 59.5 26.5t19.5 68.5v626q1 27 23 47.5t50 20.5q30 0 51.5 -20t21.5 -48v-626q0 -103 -55 -168t-171 -65q-21 0 -52 7q-26 6 -42 26t-13 46q2 27 22.5 45t46.5 16z" />
<glyph unicode="K" horiz-adv-x="555" d="M297 348l222 -239q19 -18 16.5 -47t-23.5 -48q-20 -19 -49 -19t-46 19l-194 219v-170q0 -28 -21.5 -48t-51.5 -20q-29 0 -51 20.5t-22 47.5v563q1 27 23 47.5t50 20.5q30 0 51.5 -20t21.5 -48v-163l147 204q14 21 41.5 26t49.5 -9q25 -16 32.5 -42t-8.5 -48z" />
<glyph unicode="L" horiz-adv-x="496" d="M224 626v-498h199q25 0 42.5 -19t17.5 -45q0 -25 -18 -44t-42 -20h-287q-27 0 -42.5 17.5t-15.5 44.5v564q1 27 23 47.5t50 20.5q30 0 51.5 -20t21.5 -48z" />
<glyph unicode="M" horiz-adv-x="920" d="M460 245l190 405q13 27 28 35.5t38 8.5h15q25 0 43.5 -19.5t21.5 -45.5l69 -561q3 -26 -17.5 -48.5t-49.5 -24.5t-52 16t-26 46l-42 356l-137 -283q-28 -61 -81 -61q-52 0 -80 61l-138 283l-42 -356q-3 -28 -26 -46t-52 -16t-50 24.5t-17 48.5l69 561q3 26 21.5 45.5 t43.5 19.5h15q24 0 39 -9t27 -35z" />
<glyph unicode="N" horiz-adv-x="670" d="M593 626v-558q0 -30 -19 -51.5t-46 -21.5h-13q-49 0 -78 50l-214 372v-354q0 -28 -21.5 -48t-51.5 -20q-29 0 -51 20.5t-22 47.5v556q0 31 20 53t47 22h13q52 0 81 -51l209 -366v349q0 27 22 47.5t51 20.5q30 0 51.5 -20t21.5 -48z" />
<glyph unicode="O" horiz-adv-x="781" d="M187 343q0 -87 58 -148.5t145 -61.5t145.5 61.5t58.5 148.5t-58.5 149.5t-145.5 62.5t-145 -62t-58 -150zM41 343q0 147 101.5 250.5t247.5 103.5q147 0 248.5 -103.5t101.5 -250.5q0 -146 -102 -249t-248 -103t-247.5 103t-101.5 249z" />
<glyph unicode="P" horiz-adv-x="614" d="M356 560h-133v-194h129q40 0 63.5 30t23.5 67q0 36 -22.5 66.5t-60.5 30.5zM77 63v551q1 32 19.5 53.5t50.5 21.5h212q111 0 169 -66.5t58 -159.5t-58 -159t-169 -66h-136v-175q0 -28 -21.5 -48t-51.5 -20q-29 0 -51 20.5t-22 47.5z" />
<glyph unicode="Q" horiz-adv-x="781" d="M532 -76l-49 79q-50 -12 -93 -12q-146 0 -247.5 103t-101.5 249q0 147 101.5 250.5t247.5 103.5q147 0 248.5 -103.5t101.5 -250.5q0 -88 -39.5 -164t-108.5 -125l47 -76q12 -20 2.5 -42t-32.5 -33q-45 -24 -77 21zM476 245l41 -68q77 64 77 166q0 87 -58.5 149.5 t-145.5 62.5t-145 -62t-58 -150q0 -87 58 -148.5t145 -61.5h14l-35 58q-11 21 -2 42.5t32 32.5q21 11 43 5t34 -26z" />
<glyph unicode="R" horiz-adv-x="629" d="M358 560h-135v-194h131q40 0 63.5 30t23.5 67q0 36 -22.5 66.5t-60.5 30.5zM587 467q-2 -71 -42 -127.5t-113 -78.5l112 -161q15 -23 7 -51.5t-34 -43.5q-24 -14 -52.5 -8t-42.5 28l-132 218h-67v-180q0 -28 -21.5 -48t-51.5 -20q-29 0 -51 20.5t-22 47.5v551 q1 32 19.5 53.5t50.5 21.5h211q109 0 168 -65t61 -157z" />
<glyph unicode="S" horiz-adv-x="573" d="M50 139q-8 26 3 49t36 33q28 11 53.5 -0.5t36.5 -34.5q31 -65 111 -65q45 0 72.5 20t28.5 53q1 26 -16.5 45t-66.5 33l-83 23q-178 55 -178 196q0 91 68 148.5t169 57.5q73 0 127.5 -30t82.5 -85q12 -26 5 -47t-27 -34q-52 -33 -92 17q-38 48 -98 48q-38 0 -63.5 -20 t-25.5 -51q0 -49 74 -70l82 -24q194 -56 189 -208q-1 -65 -38 -112.5t-91.5 -68.5t-118.5 -21q-90 0 -153.5 40t-86.5 108z" />
<glyph unicode="T" horiz-adv-x="558" d="M484 560h-132v-497q0 -28 -21.5 -48t-51.5 -20q-29 0 -51 20.5t-22 47.5v497h-132q-23 0 -41.5 19.5t-18.5 44.5q0 27 17.5 46t42.5 19h410q25 0 42.5 -19t17.5 -46q0 -25 -18.5 -44.5t-41.5 -19.5z" />
<glyph unicode="U" horiz-adv-x="680" d="M339 -9h2q-110 0 -189 71t-79 185v379q1 27 23 47.5t50 20.5q30 0 51.5 -20t21.5 -48v-379q0 -51 36.5 -84.5t85.5 -33.5q47 0 83.5 33.5t36.5 84.5v379q0 28 21.5 48t51.5 20q28 0 50 -20.5t23 -47.5v-379q0 -114 -79 -185t-189 -71z" />
<glyph unicode="V" horiz-adv-x="560" d="M530 606l-170 -558q-17 -53 -73 -53h-14q-57 0 -72 53l-171 558q-7 26 8.5 52.5t42.5 33.5q29 7 55 -6.5t33 -39.5l111 -425l111 425q7 26 33 39.5t55 6.5q27 -7 42.5 -33.5t8.5 -52.5z" />
<glyph unicode="W" horiz-adv-x="882" d="M444 602q53 0 66 -48l82 -299l125 394q8 25 35.5 37.5t55.5 4.5t42 -35t5 -54l-186 -551q-18 -56 -68 -56h-10q-25 0 -43.5 15.5t-25.5 40.5l-81 311l-81 -311q-7 -25 -25.5 -40.5t-43.5 -15.5h-10q-50 0 -68 56l-186 551q-9 27 5 54t42 35t55.5 -4.5t35.5 -37.5 l125 -394l82 299q13 48 66 48h6z" />
<glyph unicode="X" horiz-adv-x="596" d="M298 250l-138 -226q-13 -22 -43 -27.5t-54 8.5q-25 17 -32 45t8 51l172 266l-147 219q-14 22 -7 52.5t31 44.5q25 15 54.5 9.5t43.5 -28.5l112 -184l112 184q14 23 43.5 28.5t54.5 -9.5q24 -14 31 -44.5t-7 -52.5l-147 -219l172 -266q15 -23 8 -51t-32 -45 q-24 -14 -54 -8.5t-43 27.5z" />
<glyph unicode="Y" horiz-adv-x="599" d="M568 586l-196 -276v-247q0 -28 -21.5 -48t-51.5 -20q-29 0 -51 20.5t-22 47.5v249l-194 274q-14 22 -8 50.5t28 44.5q23 16 51.5 12.5t43.5 -25.5l152 -237l154 237q14 22 43 25.5t52 -12.5q22 -16 28 -44.5t-8 -50.5z" />
<glyph unicode="Z" horiz-adv-x="586" d="M54 145l293 415h-230q-24 0 -42 19.5t-18 44.5q0 27 17.5 46t42.5 19h360q26 0 45.5 -18t19.5 -42v-7q0 -35 -29 -78l-297 -416h276q25 0 42.5 -18.5t17.5 -45.5q0 -25 -18 -44.5t-42 -19.5h-402q-26 0 -45 17.5t-19 42.5v7q0 37 28 78z" />
<glyph unicode="[" horiz-adv-x="337" d="M189 578v-696h72q20 0 35.5 -17t15.5 -39q0 -23 -15 -39t-36 -16h-123q-28 0 -47.5 19.5t-19.5 47.5v784q0 28 19.5 47.5t47.5 19.5h123q21 0 36 -16t15 -39q0 -22 -15.5 -39t-35.5 -17h-72z" />
<glyph unicode="\" horiz-adv-x="447" d="M322 24l-286 599q-8 17 -0.5 34.5t25.5 26.5q17 9 36 3.5t27 -21.5l288 -600q7 -17 -0.5 -34.5t-25.5 -26.5t-37 -3.5t-27 22.5z" />
<glyph unicode="]" horiz-adv-x="337" d="M148 -118v696h-72q-20 0 -35.5 17t-15.5 39q0 23 15 39t36 16h123q28 0 47.5 -19.5t19.5 -47.5v-784q0 -28 -19.5 -47.5t-47.5 -19.5h-123q-21 0 -36 16t-15 39q0 22 15.5 39t35.5 17h72z" />
<glyph unicode="_" horiz-adv-x="731" d="M94 -32h543q19 0 32 -14.5t13 -35.5q0 -20 -13 -35.5t-32 -15.5h-543q-19 0 -32 15.5t-13 35.5q0 21 13 35.5t32 14.5z" />
<glyph unicode="`" horiz-adv-x="499" d="M294 533q-38 0 -75 37l-72 74q-25 34 -16 55t42 29q16 1 26 3.5t21 -3.5t16 -8.5t12 -12t10 -13.5t8 -14l45 -84q13 -24 8.5 -43.5t-25.5 -19.5z" />
<glyph unicode="a" horiz-adv-x="603" d="M404 401v9q1 25 21.5 43.5t48.5 18.5q29 0 49.5 -18t20.5 -44v-353q0 -26 -20.5 -44t-49.5 -18q-28 0 -48.5 18.5t-21.5 43.5v9q-22 -36 -60.5 -55.5t-79.5 -19.5q-94 0 -160.5 65.5t-66.5 177.5q0 111 66.5 176.5t160.5 65.5q32 0 73 -17t67 -58zM181 233 q0 -49 30 -83.5t80 -34.5q47 0 80.5 35.5t33.5 82.5t-33.5 82.5t-80.5 35.5q-50 0 -80 -34.5t-30 -83.5z" />
<glyph unicode="b" horiz-adv-x="605" d="M201 401q26 41 67 58t73 17q94 0 160.5 -65.5t66.5 -176.5q0 -112 -66.5 -177.5t-160.5 -65.5q-41 0 -79.5 19.5t-60.5 55.5v-9q-1 -25 -21.5 -43.5t-48.5 -18.5q-29 0 -49.5 18t-20.5 44v607q0 26 20.5 44t49.5 18q28 0 48.5 -18.5t21.5 -43.5v-263zM424 233 q0 49 -30 83.5t-80 34.5q-47 0 -80.5 -35.5t-33.5 -82.5t33.5 -82.5t80.5 -35.5q50 0 80 34.5t30 83.5z" />
<glyph unicode="c" horiz-adv-x="502" d="M178 232q0 -47 33.5 -76.5t80.5 -29.5q36 0 69 18q21 12 45.5 12t45.5 -17q21 -21 18.5 -53t-27.5 -49q-64 -46 -151 -46q-104 0 -180 67t-76 174v3q0 107 76 174t180 67q87 0 151 -46q25 -17 27.5 -49t-18.5 -53q-21 -17 -45.5 -17t-45.5 12q-33 18 -69 18 q-47 0 -80.5 -29.5t-33.5 -76.5v-3z" />
<glyph unicode="d" horiz-adv-x="605" d="M404 401v263q1 25 21.5 43.5t48.5 18.5q29 0 49.5 -18t20.5 -44v-607q0 -26 -20.5 -44t-49.5 -18q-28 0 -48.5 18.5t-21.5 43.5v9q-22 -36 -60.5 -55.5t-79.5 -19.5q-94 0 -160.5 65.5t-66.5 177.5q0 111 66.5 176.5t160.5 65.5q32 0 73 -17t67 -58zM181 233 q0 -49 30 -83.5t80 -34.5q47 0 80.5 35.5t33.5 82.5t-33.5 82.5t-80.5 35.5q-50 0 -80 -34.5t-30 -83.5z" />
<glyph unicode="e" horiz-adv-x="544" d="M177 275h202q-5 42 -31.5 63.5t-66.5 21.5q-87 0 -104 -85zM459 126q19 -23 13.5 -50.5t-31.5 -42.5q-64 -42 -161 -42q-103 0 -173.5 68t-70.5 176t70.5 174.5t173.5 66.5q102 0 170.5 -68.5t68.5 -176.5q0 -18 -13 -30.5t-30 -12.5h-301q5 -38 39.5 -57.5t75.5 -19.5 q49 0 81 22q25 16 48.5 13.5t39.5 -20.5z" />
<glyph unicode="f" horiz-adv-x="353" d="M245 467h48q21 0 35.5 -16t14.5 -39q0 -22 -14.5 -38t-35.5 -17h-48v-300q0 -26 -20.5 -44t-49.5 -18q-28 0 -48.5 18.5t-21.5 43.5v300h-44q-21 1 -35.5 17t-14.5 38q0 23 14.5 39t35.5 16h44v32q0 108 52.5 165t152.5 57h12q27 0 45.5 -19t18.5 -45q0 -25 -19 -44 t-45 -20h-12q-65 0 -65 -89v-37z" />
<glyph unicode="g" horiz-adv-x="605" d="M82 -140q-15 18 -12.5 44t20.5 42q19 17 45 15t41 -18q47 -51 104 -51q140 0 129 166v13q-22 -39 -61 -59.5t-84 -20.5q-94 0 -160.5 65.5t-66.5 177.5q0 111 66.5 176.5t160.5 65.5q32 0 73 -17t67 -58v9q1 25 21.5 43.5t48.5 18.5q29 0 49.5 -18t20.5 -44v-345 q0 -148 -68.5 -223t-195.5 -75q-123 0 -198 93zM181 233q0 -49 30 -83.5t80 -34.5q47 0 80.5 35.5t33.5 82.5t-33.5 82.5t-80.5 35.5q-50 0 -80 -34.5t-30 -83.5z" />
<glyph unicode="h" horiz-adv-x="574" d="M379 57v192q0 43 -26 67.5t-60 24.5q-38 0 -65 -22.5t-27 -71.5v-190q0 -26 -20.5 -44t-49.5 -18q-28 0 -48.5 18.5t-21.5 43.5v607q1 25 21.5 43.5t48.5 18.5q29 0 49.5 -18t20.5 -44v-270q13 40 52 61t78 21q92 0 140 -57.5t48 -164.5v-197q0 -26 -20.5 -44t-49.5 -18 q-28 0 -48.5 18.5t-21.5 43.5z" />
<glyph unicode="i" horiz-adv-x="258" d="M42 640q0 34 25.5 57.5t61.5 23.5q35 0 60 -23.5t25 -57.5t-25 -58t-60 -24q-36 0 -61.5 24t-25.5 58zM199 410v-353q0 -26 -20.5 -44t-49.5 -18q-28 0 -48.5 18.5t-21.5 43.5v353q1 25 21.5 43.5t48.5 18.5q29 0 49.5 -18t20.5 -44z" />
<glyph unicode="j" horiz-adv-x="262" d="M45 640q0 34 25.5 57.5t61.5 23.5t61 -23.5t25 -57.5t-25 -58t-61 -24t-61.5 24t-25.5 58zM-3 -103h3q61 0 61 74v439q1 25 21.5 43.5t48.5 18.5q29 0 49.5 -18t20.5 -44v-436q0 -99 -40.5 -151t-135.5 -52h-28q-27 0 -46.5 18.5t-19.5 45.5t19.5 44t46.5 18z" />
<glyph unicode="k" horiz-adv-x="492" d="M358 15l-157 169v-127q0 -26 -20.5 -44t-49.5 -18q-28 0 -48.5 18.5t-21.5 43.5v607q1 25 21.5 43.5t48.5 18.5q29 0 49.5 -18t20.5 -44v-326l109 110q17 19 43.5 21.5t46.5 -13.5t23 -42t-14 -47l-109 -106l154 -161q19 -21 18 -48t-22 -43q-19 -16 -48 -14t-44 20z" />
<glyph unicode="l" horiz-adv-x="262" d="M201 664v-607q0 -26 -20.5 -44t-49.5 -18q-28 0 -48.5 18.5t-21.5 43.5v607q1 25 21.5 43.5t48.5 18.5q29 0 49.5 -18t20.5 -44z" />
<glyph unicode="m" horiz-adv-x="849" d="M794 265v-208q0 -26 -20.5 -44t-49.5 -18q-28 0 -48.5 18.5t-21.5 43.5v192q0 44 -22.5 68.5t-55.5 24.5q-35 0 -57 -23.5t-22 -71.5v-190q0 -26 -20.5 -44t-49.5 -18q-28 0 -48.5 18.5t-21.5 43.5v195q0 42 -22.5 66t-54.5 24q-35 0 -58 -22.5t-23 -72.5v-190 q0 -26 -20.5 -44t-49.5 -18q-28 0 -48.5 18.5t-21.5 43.5v353q1 25 21.5 43.5t48.5 18.5q29 0 49.5 -18t20.5 -44v-11q16 36 49.5 56.5t72.5 20.5q57 0 94 -20.5t60 -67.5q23 49 62 69t74 20q85 0 133.5 -54t49.5 -158z" />
<glyph unicode="n" horiz-adv-x="562" d="M199 410v-11q19 35 56.5 56.5t78.5 21.5q81 0 126.5 -50t45.5 -148v-222q0 -26 -20.5 -44t-49.5 -18q-28 0 -48.5 18.5t-21.5 43.5v192q0 45 -22 69t-59 24q-86 0 -86 -95v-190q0 -26 -20.5 -44t-49.5 -18q-28 0 -48.5 18.5t-21.5 43.5v353q1 25 21.5 43.5t48.5 18.5 q29 0 49.5 -18t20.5 -44z" />
<glyph unicode="o" d="M281 -9q-104 0 -174.5 68t-70.5 176t70.5 174.5t174.5 66.5q105 0 175.5 -66.5t70.5 -174.5t-71 -176t-175 -68zM281 126q44 0 75 31t31 78q0 46 -31 76t-75 30t-74.5 -30t-30.5 -76q0 -47 30.5 -78t74.5 -31z" />
<glyph unicode="p" horiz-adv-x="605" d="M201 401q26 41 67 58t73 17q94 0 160.5 -65.5t66.5 -176.5q0 -112 -66.5 -177.5t-160.5 -65.5q-41 0 -79.5 19.5t-60.5 55.5v-232q-1 -25 -21.5 -43.5t-48.5 -18.5q-29 0 -49.5 18t-20.5 44v576q0 26 20.5 44t49.5 18q28 0 48.5 -18.5t21.5 -43.5v-9zM424 233 q0 49 -30 83.5t-80 34.5q-47 0 -80.5 -35.5t-33.5 -82.5t33.5 -82.5t80.5 -35.5q50 0 80 34.5t30 83.5z" />
<glyph unicode="q" horiz-adv-x="605" d="M404 401v9q1 25 21.5 43.5t48.5 18.5q29 0 49.5 -18t20.5 -44v-576q0 -26 -20.5 -44t-49.5 -18q-28 0 -48.5 18.5t-21.5 43.5v232q-22 -36 -60.5 -55.5t-79.5 -19.5q-94 0 -160.5 65.5t-66.5 177.5q0 111 66.5 176.5t160.5 65.5q32 0 73 -17t67 -58zM181 233 q0 -49 30 -83.5t80 -34.5q47 0 80.5 35.5t33.5 82.5t-33.5 82.5t-80.5 35.5q-50 0 -80 -34.5t-30 -83.5z" />
<glyph unicode="r" horiz-adv-x="413" d="M322 476q43 0 67.5 -16t18.5 -61q-4 -25 -24 -38t-45 -13q-5 0 -17.5 0.5t-16.5 0.5q-57 0 -80.5 -43t-25.5 -134v-115q0 -26 -20.5 -44t-49.5 -18q-28 0 -48.5 18.5t-21.5 43.5v353q1 25 21.5 43.5t48.5 18.5q29 0 49.5 -18t20.5 -44v-51q35 117 123 117z" />
<glyph unicode="s" horiz-adv-x="460" d="M38 90q-7 22 0.5 42t24.5 28q25 9 43.5 3.5t31.5 -20.5q38 -41 88 -41q60 0 60 29q0 14 -9.5 21.5t-36.5 16.5l-53 19q-49 17 -80 37t-42.5 44t-14 38t-2.5 37q0 52 54 92.5t127 40.5q124 0 168 -77q12 -23 8 -42.5t-20 -28.5q-42 -25 -89 11q-28 21 -56 21 q-51 0 -51 -28q0 -20 40 -33l71 -24q40 -13 67 -32.5t39 -40.5t16.5 -37t4.5 -30q0 -70 -60.5 -108t-141.5 -38q-62 0 -116 26t-71 74z" />
<glyph unicode="t" horiz-adv-x="353" d="M62 467h38v122q1 25 21.5 43.5t48.5 18.5q29 0 49.5 -18t20.5 -44v-122h53q21 0 35.5 -16t14.5 -39q0 -22 -14.5 -38t-35.5 -17h-53v-300q0 -26 -20.5 -44t-49.5 -18q-28 0 -48.5 18.5t-21.5 43.5v300h-38q-21 1 -35.5 17t-14.5 38q0 23 14.5 39t35.5 16z" />
<glyph unicode="u" horiz-adv-x="562" d="M363 57v11q-19 -35 -56 -56t-79 -21q-172 0 -172 185v234q0 26 20.5 44t49.5 18q28 0 48.5 -18.5t21.5 -43.5v-192q0 -47 19 -69.5t62 -22.5q86 0 86 94v190q0 26 20.5 44t49.5 18q28 0 48.5 -18.5t21.5 -43.5v-353q-1 -25 -21.5 -43.5t-48.5 -18.5q-29 0 -49.5 18 t-20.5 44z" />
<glyph unicode="v" horiz-adv-x="490" d="M468 386l-142 -332q-22 -59 -77 -59h-6q-56 0 -80 59l-141 332q-9 24 3.5 50t37.5 33q32 8 54.5 -3.5t32.5 -36.5l95 -252l95 252q9 24 32 36t55 4q25 -7 37.5 -33t3.5 -50z" />
<glyph unicode="w" horiz-adv-x="737" d="M442 416l67 -227l73 240q6 24 31 36.5t57 3.5q25 -7 37.5 -33t3.5 -50l-118 -337q-19 -54 -73 -54h-6q-54 0 -70 54l-76 248l-73 -248q-17 -54 -70 -54h-6q-52 0 -73 54l-122 337q-9 24 3.5 50t37.5 33q32 9 57 -3.5t31 -36.5l73 -240l67 227q16 56 71 56h8q54 0 70 -56z " />
<glyph unicode="x" horiz-adv-x="494" d="M331 29l-84 114l-84 -114q-39 -52 -99 -26q-27 12 -37 37t8 49l129 164l-99 125q-17 26 -7 50t36 36q34 13 59.5 5t39.5 -31l54 -78l54 78q14 23 39.5 31t59.5 -5q26 -12 36 -36t-7 -50l-99 -125l129 -164q18 -24 8 -49t-37 -37q-60 -26 -99 26z" />
<glyph unicode="y" horiz-adv-x="482" d="M458 386l-239 -577q-10 -24 -33.5 -35t-54.5 -4q-26 6 -38 31.5t-2 52.5l78 194l-145 338q-10 27 2.5 51.5t38.5 31.5q32 8 55 -4t32 -36l88 -228l90 228q9 24 32 36t55 4q26 -7 38.5 -31.5t2.5 -51.5z" />
<glyph unicode="z" horiz-adv-x="499" d="M428 337l-192 -209h169q23 0 41.5 -19.5t18.5 -44.5q0 -26 -18 -45t-42 -19h-304q-26 0 -45.5 16t-19.5 44v3q0 38 28 67l192 209h-154q-23 0 -41.5 19.5t-18.5 44.5q0 26 18 45t42 19h289q26 0 45.5 -16t19.5 -44v-3q0 -38 -28 -67z" />
<glyph unicode="{" horiz-adv-x="400" d="M116 -28v135q0 29 -14 49t-44 20q-55 4 -55 55q0 50 55 54q58 0 58 67v142q-1 89 57.5 144.5t144.5 55.5h14q19 0 32 -15t13 -36q0 -20 -13 -34.5t-32 -15.5h-5q-35 0 -64.5 -28.5t-29.5 -68.5v-144q0 -40 -29.5 -77t-84.5 -45q55 -10 84.5 -46.5t29.5 -75.5v-138 q0 -40 29.5 -68.5t64.5 -28.5h5q19 -1 32 -15.5t13 -34.5q0 -21 -13 -36t-32 -15h-14q-86 0 -144.5 55.5t-57.5 144.5z" />
<glyph unicode="|" horiz-adv-x="223" d="M149 772v-866q0 -14 -11 -24.5t-27 -10.5q-14 0 -25.5 10.5t-11.5 24.5v866q1 14 12 24.5t25 10.5q16 0 27 -10.5t11 -24.5z" />
<glyph unicode="}" horiz-adv-x="400" d="M284 107v-135q1 -89 -57.5 -144.5t-144.5 -55.5h-14q-19 0 -32 15t-13 36q0 20 13 34.5t32 15.5h5q35 0 64.5 28.5t29.5 68.5v138q0 39 29.5 75.5t84.5 46.5q-55 8 -84.5 45t-29.5 77v144q0 40 -29.5 68.5t-64.5 28.5h-5q-19 1 -32 15.5t-13 34.5q0 21 13 36t32 15h14 q86 0 144.5 -55.5t57.5 -144.5v-142q0 -67 58 -67q55 -4 55 -54q0 -51 -55 -55q-30 0 -44 -20t-14 -49z" />
<glyph unicode="&#xa1;" horiz-adv-x="264" d="M45 392q0 36 25 60t61 24t61.5 -24t25.5 -60q0 -35 -25.5 -59t-61.5 -24t-61 23.5t-25 59.5zM191 212l16 -373q2 -28 -20.5 -47.5t-54.5 -19.5q-30 0 -53 20t-22 47l16 373q1 22 18.5 37t40.5 15q24 0 41 -15t18 -37z" />
<glyph unicode="&#xa2;" horiz-adv-x="521" d="M312 -8v-80q0 -14 -11 -24.5t-27 -10.5q-14 0 -25.5 10.5t-11.5 24.5v85q-86 17 -142.5 80.5t-56.5 154.5v3q0 91 56.5 154.5t142.5 80.5v75q1 14 12 24.5t25 10.5q16 0 27 -10.5t11 -24.5v-70q76 -5 133 -45q25 -17 27.5 -49t-18.5 -53q-21 -17 -45.5 -17t-45.5 12 q-33 18 -69 18q-47 0 -80.5 -29.5t-33.5 -76.5v-3q0 -47 33.5 -76.5t80.5 -29.5q36 0 69 18q21 12 45.5 12t45.5 -17q21 -21 18.5 -53t-27.5 -49q-57 -40 -133 -45z" />
<glyph unicode="&#xa3;" horiz-adv-x="678" d="M88 278q-11 0 -19.5 10t-8.5 23t8 22t20 9h60v131q0 101 59.5 162.5t153.5 61.5q80 0 139 -39.5t80 -116.5q6 -27 -6.5 -48.5t-40.5 -27.5q-42 -9 -61.5 3.5t-34.5 42.5q-21 41 -73 41q-34 0 -55 -22t-21 -57v-131h92q12 0 20 -9t8 -22t-8.5 -23t-19.5 -10h-92v-154h184 q13 0 21.5 10.5t8.5 25.5v5q0 26 20 43.5t48 17.5t48 -18t21 -43v-32q0 -57 -36.5 -95t-89.5 -38h-421q-23 0 -39 18t-16 44q0 25 16.5 43.5t38.5 18.5h56v154h-60z" />
<glyph unicode="&#xa4;" horiz-adv-x="593" d="M297 250q37 0 64 27t27 64q0 38 -26.5 65t-64.5 27t-64.5 -27t-26.5 -65q0 -37 27 -64t64 -27zM297 144q-56 0 -103 29l-47 -46q-14 -14 -32 -14t-32.5 14.5t-14.5 33.5t13 32l47 46q-28 46 -28 102t29 103l-47 46q-14 12 -14 31t14.5 33.5t33.5 14.5t32 -13l47 -46 q48 28 102 28q58 0 102 -28l47 46q13 13 31 13q19 0 33.5 -14.5t14.5 -33.5q0 -18 -13 -31l-47 -46q28 -46 28 -103q0 -58 -27 -102l47 -46q13 -15 13 -32q0 -19 -14.5 -33.5t-33.5 -14.5q-18 0 -32 14l-47 46q-46 -29 -102 -29z" />
<glyph unicode="&#xa5;" horiz-adv-x="632" d="M111 256q-12 0 -21 10.5t-9 24.5t8.5 23.5t21.5 9.5h122l-185 262q-14 22 -8 50.5t28 44.5q23 16 51.5 12.5t43.5 -25.5l152 -237l154 237q14 22 43 25.5t52 -12.5q22 -16 28 -44.5t-8 -50.5l-186 -262h123q13 0 21.5 -9.5t8.5 -23.5t-8.5 -24.5t-21.5 -10.5h-133v-70 h133q13 0 21.5 -9.5t8.5 -23.5t-8.5 -24.5t-21.5 -10.5h-133v-55q0 -28 -21.5 -48t-51.5 -20q-29 0 -51 20.5t-22 47.5v55h-131q-12 0 -21 10.5t-9 24.5t8.5 23.5t21.5 9.5h131v70h-131z" />
<glyph unicode="&#xa6;" horiz-adv-x="218" d="M146 772v-317q0 -14 -11 -24.5t-27 -10.5q-14 0 -25.5 10.5t-11.5 24.5v317q1 14 12 24.5t25 10.5q16 0 27 -10.5t11 -24.5zM146 223v-317q0 -14 -11 -24.5t-27 -10.5q-14 0 -25.5 10.5t-11.5 24.5v317q1 14 12 24.5t25 10.5q16 0 27 -10.5t11 -24.5z" />
<glyph unicode="&#xa7;" horiz-adv-x="559" d="M279 222q24 -1 40.5 -17t17.5 -41t-13 -43.5t-37 -21.5q-7 -1 -20 -1q-89 0 -151 58t-62 152v176q0 94 62 152t151 58q58 0 110.5 -28t80.5 -81q21 -44 -28 -75q-19 -12 -44 -5.5t-41 29.5q-26 37 -78 37q-37 0 -63 -24t-26 -63v-176q0 -39 26 -62.5t63 -23.5h6h6z M280 302q-23 0 -40 16.5t-18 41.5t13 43.5t37 21.5q7 1 20 1q89 0 151 -58t62 -152v-176q0 -94 -62 -152t-151 -58q-58 0 -110.5 28t-80.5 81q-21 44 28 75q19 12 44 5.5t41 -29.5q26 -37 78 -37q37 0 63 24t26 63v176q0 39 -26 62.5t-63 23.5h-6h-6z" />
<glyph unicode="&#xa8;" horiz-adv-x="561" d="M120 613q0 28 21.5 48t51.5 20q29 0 50 -20t21 -48q0 -29 -21 -49t-50 -20q-30 0 -51.5 20t-21.5 49zM315 613q0 28 21.5 48t51.5 20q29 0 50 -20t21 -48q0 -29 -21 -49t-50 -20q-30 0 -51.5 20t-21.5 49z" />
<glyph unicode="&#xa9;" horiz-adv-x="797" d="M222 341q0 -74 50 -126t124 -52t123 49q11 10 9 27.5t-14 28.5q-11 10 -26.5 10t-26.5 -10q-26 -24 -65 -24t-65 28t-26 69t26 69t65 28q37 0 65 -25q10 -10 26 -9.5t27 10.5q12 10 14 28t-9 29q-51 48 -123 48q-74 0 -124 -51.5t-50 -126.5zM49 343q0 146 101.5 248.5 t247.5 102.5t248 -102.5t102 -248.5t-102 -249t-248 -103t-247.5 102.5t-101.5 249.5zM122 343q0 -116 80.5 -197t195.5 -81t195.5 81t80.5 197t-80.5 196.5t-195.5 80.5t-195.5 -80.5t-80.5 -196.5z" />
<glyph unicode="&#xaa;" horiz-adv-x="438" d="M294 605v6q1 19 15.5 32t34.5 13q21 0 36 -13t15 -32v-253q0 -19 -15 -32t-36 -13q-20 0 -34.5 13t-15.5 32v6q-34 -54 -101 -54t-115 47.5t-48 127.5t48 127t115 47q23 0 52.5 -12.5t48.5 -41.5zM134 484q0 -35 21.5 -60t57.5 -25q33 0 57.5 26t24.5 59q0 34 -24.5 59.5 t-57.5 25.5q-36 0 -57.5 -25t-21.5 -60zM76 253h285q14 0 24 -11.5t10 -26.5q0 -16 -10.5 -28t-23.5 -12h-285q-13 0 -23.5 12t-10.5 28q0 15 10 26.5t24 11.5z" />
<glyph unicode="&#xab;" horiz-adv-x="501" d="M162 40l-101 150q-18 26 -18 43q0 15 18 44l102 150q10 15 30.5 20t36.5 -3q16 -9 22.5 -28.5t-2.5 -37.5l-103 -145l102 -143q10 -17 4 -37t-23 -31q-17 -10 -37 -4.5t-31 22.5zM355 40l-101 150q-18 26 -18 43q0 15 18 44l102 150q10 15 30.5 20t36.5 -3 q16 -9 22.5 -28.5t-2.5 -37.5l-103 -145l102 -143q10 -17 4 -37t-23 -31q-17 -10 -37 -4.5t-31 22.5z" />
<glyph unicode="&#xac;" horiz-adv-x="616" d="M546 312v-160q0 -22 -17.5 -37.5t-43.5 -15.5q-24 0 -41.5 15.5t-18.5 37.5v101h-317q-22 0 -37.5 17.5t-15.5 42.5q0 24 15.5 41.5t37.5 18.5h375q26 0 44.5 -18t18.5 -43z" />
<glyph unicode="&#xad;" horiz-adv-x="483" d="M109 301h265q21 0 35 -16t14 -39q0 -22 -14.5 -38.5t-34.5 -16.5h-265q-20 0 -34.5 16.5t-14.5 38.5q0 23 14 39t35 16z" />
<glyph unicode="&#xae;" horiz-adv-x="797" d="M360 438h60q16 0 25.5 -13.5t9.5 -28.5q0 -16 -10 -28.5t-26 -12.5h-59v83zM538 398q-1 47 -31.5 80.5t-86.5 33.5h-109q-15 0 -24 -10.5t-10 -25.5v-275q0 -15 13 -27t29 -12q17 0 29 11.5t12 27.5v82h24l63 -104q8 -11 24 -14.5t29 3.5q15 8 19.5 25t-3.5 29l-51 72 q35 11 53.5 39.5t19.5 64.5zM49 343q0 146 101.5 248.5t247.5 102.5t248 -102.5t102 -248.5t-102 -249t-248 -103t-247.5 102.5t-101.5 249.5zM122 343q0 -116 80.5 -197t195.5 -81t195.5 81t80.5 197t-80.5 196.5t-195.5 80.5t-195.5 -80.5t-80.5 -196.5z" />
<glyph unicode="&#xaf;" horiz-adv-x="533" d="M166 653h201q19 0 32.5 -14.5t13.5 -34.5q0 -19 -13.5 -33.5t-32.5 -14.5h-201q-19 0 -32.5 14.5t-13.5 33.5q0 20 13.5 34.5t32.5 14.5z" />
<glyph unicode="&#xb0;" horiz-adv-x="372" d="M42 529q0 59 42 101.5t101 42.5q60 0 102.5 -42.5t42.5 -101.5q0 -60 -42.5 -102.5t-102.5 -42.5q-59 0 -101 42.5t-42 102.5zM114 529q0 -31 21 -52t50 -21q31 0 52 21t21 52q0 30 -21 51t-52 21q-29 0 -50 -21t-21 -51z" />
<glyph unicode="&#xb1;" horiz-adv-x="530" d="M318 472v-86h115q19 0 32 -15t13 -36q0 -20 -13 -35.5t-32 -15.5h-115v-87q0 -19 -15 -32t-36 -13q-20 0 -35.5 13t-15.5 32v87h-114q-19 0 -32 15.5t-13 35.5q0 21 13 36t32 15h114v86q0 19 15.5 32t35.5 13q21 0 36 -13t15 -32zM97 102h331q19 0 32 -15t13 -36 q0 -20 -13 -35.5t-32 -15.5h-331q-19 0 -32 15.5t-13 35.5q0 21 13 36t32 15z" />
<glyph unicode="&#xb2;" horiz-adv-x="330" d="M113 716q-16 -37 -56 -26q-16 5 -24 20.5t-2 33.5q32 93 133 93q55 0 94 -34.5t39 -88.5q0 -60 -42 -102l-83 -95h88q16 0 28 -13.5t12 -31.5q0 -16 -12 -29.5t-28 -13.5h-194q-18 0 -27.5 9t-9.5 24q0 16 13 33l143 177q20 26 20 42q0 15 -12.5 25.5t-33.5 10.5 q-31 0 -46 -34z" />
<glyph unicode="&#xb3;" horiz-adv-x="324" d="M110 741q-17 -13 -32 -13q-16 0 -30 14q-11 13 -9.5 29.5t12.5 27.5q48 41 108 38q53 -3 87.5 -36.5t32.5 -77.5q0 -49 -44 -77q57 -27 59 -96q0 -59 -40.5 -91.5t-101.5 -32.5q-31 0 -63.5 13.5t-52.5 33.5q-11 11 -12 28t11 31q13 15 32 15q5 0 9.5 -2.5t11.5 -8 t9 -6.5q26 -18 48 -18q24 0 40 13.5t16 32.5q0 41 -55 41h-14q-15 0 -26 12t-11 28q0 15 11 27.5t26 12.5h16q34 0 34 38q0 11 -9 23t-26 12q-22 0 -37 -11z" />
<glyph unicode="&#xb4;" horiz-adv-x="499" d="M156 533q-21 0 -25.5 19.5t8.5 43.5l45 84q5 10 8 14t10 13.5t12 12t16 8.5t21 3.5t26 -3.5q33 -8 42 -29t-16 -55l-72 -74q-37 -37 -75 -37z" />
<glyph unicode="&#xb5;" horiz-adv-x="585" d="M211 410v-192q0 -47 19 -69.5t62 -22.5q86 0 86 94v190q0 26 20.5 44t49.5 18q28 0 48.5 -18.5t21.5 -43.5v-353q-1 -25 -21.5 -43.5t-48.5 -18.5q-29 0 -49.5 18t-20.5 44v11q-18 -34 -49 -55.5t-70 -21.5q-30 0 -48 9v-129q0 -26 -20.5 -44t-49.5 -18q-28 0 -48.5 18.5 t-21.5 43.5v539q0 26 20.5 44t49.5 18q28 0 48.5 -18.5t21.5 -43.5z" />
<glyph unicode="&#xb6;" horiz-adv-x="716" d="M475 689h71q57 0 97 -41t40 -96v-49q0 -16 -14 -28.5t-33 -12.5t-32.5 12t-13.5 29v40q0 20 -13.5 32.5t-32.5 12.5h-34v-637q0 -52 -42 -94.5t-95 -42.5h-93q-17 0 -29 13.5t-12 32.5q0 18 12 31.5t29 13.5h85q20 0 32.5 13.5t12.5 32.5v673q0 28 18.5 46.5t46.5 18.5z M348 624v-621q0 -19 -15.5 -32.5t-36.5 -13.5t-36 13.5t-15 32.5v252q-86 5 -146.5 68t-60.5 149q0 90 63 153.5t154 63.5h28q28 0 46.5 -18.5t18.5 -46.5z" />
<glyph unicode="&#xb7;" horiz-adv-x="279" d="M53 347q0 36 25 59.5t61 23.5t61.5 -24t25.5 -59q0 -36 -25.5 -60t-61.5 -24t-61 24t-25 60z" />
<glyph unicode="&#xb8;" horiz-adv-x="543" d="M292 -90l-40 134h64l49 -87q18 -33 18 -60q0 -45 -29.5 -75.5t-85.5 -30.5q-36 0 -67 23.5t-40 61.5q-4 20 6.5 35t30.5 18q19 2 31.5 -7.5t15.5 -24.5q1 -7 8.5 -13t14.5 -6q14 0 21 9.5t3 22.5z" />
<glyph unicode="&#xb9;" horiz-adv-x="225" d="M32 782q114 53 124 53q23 0 23 -23v-346q0 -17 -13.5 -30t-32.5 -13q-17 0 -31.5 13.5t-14.5 29.5v256l-21 -9q-8 -3 -15 -3q-15 0 -26.5 11t-11.5 28q0 23 19 33z" />
<glyph unicode="&#xba;" horiz-adv-x="413" d="M206 310q-75 0 -125.5 49t-50.5 127q0 77 50.5 125t125.5 48t126 -48t51 -125q0 -78 -51 -127t-126 -49zM206 407q32 0 54 22.5t22 56.5q0 33 -22 54.5t-54 21.5q-31 0 -53 -21.5t-22 -54.5q0 -34 22 -56.5t53 -22.5zM76 253h261q14 0 24 -11.5t10 -26.5q0 -16 -10.5 -28 t-23.5 -12h-261q-13 0 -23.5 12t-10.5 28q0 15 10 26.5t24 11.5z" />
<glyph unicode="&#xbb;" horiz-adv-x="500" d="M439 190l-101 -150q-11 -17 -31 -22.5t-37 4.5q-17 11 -23 31t4 37l102 143l-103 145q-9 18 -2.5 37.5t22.5 28.5q16 8 36.5 3t30.5 -20l102 -150q18 -29 18 -44q0 -17 -18 -43zM246 190l-101 -150q-11 -17 -31 -22.5t-37 4.5q-17 11 -23 31t4 37l102 143l-103 145 q-9 18 -2.5 37.5t22.5 28.5q16 8 36.5 3t30.5 -20l102 -150q18 -29 18 -44q0 -17 -18 -43z" />
<glyph unicode="&#xbc;" horiz-adv-x="802" d="M613 626l-416 -624q-7 -12 -20.5 -14t-25.5 5q-13 7 -16 21t5 25l416 626q7 10 20.5 12.5t24.5 -4.5q13 -8 16.5 -22t-4.5 -25zM55 607q114 53 124 53q23 0 23 -23v-346q0 -17 -13.5 -30t-32.5 -13q-17 0 -31.5 13.5t-14.5 29.5v256l-21 -9q-7 -3 -15 -3q-15 0 -26.5 11 t-11.5 28q0 24 19 33zM616 170h-63l63 102v-102zM595 373l-138 -223q-11 -18 -11 -28q0 -13 9.5 -22t23.5 -9h137v-53q0 -16 14.5 -29.5t31.5 -13.5q19 0 33 13t14 30v53h20q15 0 26.5 12t11.5 28q0 15 -11.5 27t-26.5 12h-20v181q0 23 -16.5 39.5t-41.5 16.5q-34 0 -56 -34 z" />
<glyph unicode="&#xbd;" horiz-adv-x="810" d="M612 626l-416 -624q-7 -12 -20.5 -14t-25.5 5q-13 7 -16 21t5 25l416 626q7 10 20.5 12.5t24.5 -4.5q13 -8 16.5 -22t-4.5 -25zM54 607q114 53 124 53q23 0 23 -23v-346q0 -17 -13.5 -30t-32.5 -13q-17 0 -31.5 13.5t-14.5 29.5v256l-21 -9q-8 -3 -15 -3q-15 0 -26.5 11 t-11.5 28q0 24 19 33zM578 287q15 34 46 34q21 0 33.5 -10.5t12.5 -25.5q0 -16 -20 -42l-143 -177q-13 -17 -13 -33q0 -15 9.5 -24t27.5 -9h194q16 0 28 13.5t12 29.5q0 18 -12 31.5t-28 13.5h-88l83 95q42 42 42 102q0 54 -39 88.5t-94 34.5q-101 0 -133 -93 q-6 -18 2 -33.5t24 -20.5q40 -11 56 26z" />
<glyph unicode="&#xbe;" horiz-adv-x="897" d="M708 626l-416 -624q-7 -12 -20.5 -14t-25.5 5q-13 7 -16 21t5 25l416 626q7 10 20.5 12.5t24.5 -4.5q13 -8 16.5 -22t-4.5 -25zM711 170h-63l63 102v-102zM690 373l-138 -223q-11 -18 -11 -28q0 -13 9.5 -22t23.5 -9h137v-53q0 -16 14.5 -29.5t31.5 -13.5q19 0 33 13 t14 30v53h20q15 0 26.5 12t11.5 28q0 15 -11.5 27t-26.5 12h-20v181q0 23 -16.5 39.5t-41.5 16.5q-34 0 -56 -34zM130 564q-17 -13 -32 -13q-16 0 -30 14q-11 13 -9.5 29.5t12.5 27.5q48 41 108 38q53 -3 87.5 -36.5t32.5 -77.5q0 -49 -44 -77q57 -27 59 -96 q0 -59 -40.5 -91.5t-101.5 -32.5q-31 0 -63.5 13.5t-52.5 33.5q-11 11 -12 28t11 31q13 15 32 15q5 0 30 -17q26 -18 48 -18q24 0 40 13.5t16 32.5q0 41 -55 41h-14q-15 0 -26 12t-11 28q0 15 11 27.5t26 12.5h16q34 0 34 38q0 11 -9 23t-26 12q-22 0 -37 -11z" />
<glyph unicode="&#xbf;" horiz-adv-x="477" d="M372 392q0 -36 -25 -59.5t-61 -23.5t-61.5 24t-25.5 59q0 36 25.5 60t61.5 24t61 -24t25 -60zM439 -104q-23 -59 -74 -91.5t-122 -32.5q-95 0 -153 53t-58 142q0 71 37 120.5t97 68.5q46 13 49 47q2 27 22.5 45t49.5 18q30 0 49 -19t19 -59q0 -44 -24.5 -86t-81.5 -64 l-40 -17q-37 -15 -37 -55q0 -23 20 -41t51 -18q51 0 68 48q8 24 39.5 34t57.5 -1q25 -11 33.5 -40t-2.5 -52z" />
<glyph unicode="&#xc0;" horiz-adv-x="640" d="M202 163h236l47 -126q10 -25 37 -36t55 -2q27 9 40 37t4 54l-199 536q-26 68 -99 68h-6q-73 0 -99 -68l-199 -536q-9 -26 4 -54t40 -37q28 -9 55 2t37 36zM390 290h-140l70 240zM338 732q-31 0 -66 34l-65 59q-30 33 -22 54t42 29q40 10 61 -4t38 -45l34 -64 q15 -30 8 -46.5t-30 -16.5z" />
<glyph unicode="&#xc1;" horiz-adv-x="640" d="M438 163h-236l-47 -126q-10 -25 -37 -36t-55 -2q-27 9 -40 37t-4 54l199 536q26 68 99 68h6q73 0 99 -68l199 -536q9 -26 -4 -54t-40 -37q-28 -9 -55 2t-37 36zM250 290h140l-70 240zM309 732q-23 0 -30 16.5t8 46.5l34 64q17 31 38 45t61 4q34 -8 42 -29t-22 -54 l-65 -59q-35 -34 -66 -34z" />
<glyph unicode="&#xc2;" horiz-adv-x="640" d="M202 163h236l47 -126q10 -25 37 -36t55 -2q27 9 40 37t4 54l-199 536q-26 68 -99 68h-6q-73 0 -99 -68l-199 -536q-9 -26 4 -54t40 -37q28 -9 55 2t37 36zM390 290h-140l70 240zM301 888h38q44 0 74 -47l52 -68q10 -13 1.5 -27.5t-28.5 -14.5t-60 28l-58 46l-58 -46 q-40 -28 -60 -28t-28.5 14.5t1.5 27.5l52 68q30 47 74 47z" />
<glyph unicode="&#xc3;" horiz-adv-x="640" d="M438 163h-236l-47 -126q-10 -25 -37 -36t-55 -2q-27 9 -40 37t-4 54l199 536q26 68 99 68h6q73 0 99 -68l199 -536q9 -26 -4 -54t-40 -37q-28 -9 -55 2t-37 36zM250 290h140l-70 240zM302 759q-17 13 -25 13q-16 0 -19 -19q-4 -22 -25 -27q-13 -4 -26.5 2.5t-19.5 17.5 q-4 8 -2 22q8 44 34 64t58 20q29 0 61 -25q17 -13 26 -13q15 0 18 19q5 23 26 27q12 3 26.5 -3t19.5 -17q4 -9 2 -22q-8 -44 -34.5 -64t-57.5 -20q-28 0 -62 25z" />
<glyph unicode="&#xc4;" horiz-adv-x="640" d="M202 163h236l47 -126q10 -25 37 -36t55 -2q27 9 40 37t4 54l-199 536q-26 68 -99 68h-6q-73 0 -99 -68l-199 -536q-9 -26 4 -54t40 -37q28 -9 55 2t37 36zM390 290h-140l70 240zM151 801q0 28 21.5 48t51.5 20q29 0 50 -20t21 -48q0 -29 -21 -49t-50 -20q-30 0 -51.5 20 t-21.5 49zM346 801q0 28 21.5 48t51.5 20q29 0 50 -20t21 -48q0 -29 -21 -49t-50 -20q-30 0 -51.5 20t-21.5 49z" />
<glyph unicode="&#xc5;" horiz-adv-x="640" d="M202 163h236l47 -126q10 -25 37 -36t55 -2q27 9 40 37t4 54l-199 536q-26 68 -99 68h-6q-73 0 -99 -68l-199 -536q-9 -26 4 -54t40 -37q28 -9 55 2t37 36zM390 290h-140l70 240zM199 852q0 52 35 87.5t85 35.5q51 0 86.5 -35.5t35.5 -87.5q0 -50 -35.5 -85t-86.5 -35 q-50 0 -85 35t-35 85zM264 852q0 -23 16 -39t39 -16q24 0 40.5 16t16.5 39q0 25 -16.5 41.5t-40.5 16.5q-23 0 -39 -16.5t-16 -41.5z" />
<glyph unicode="&#xc6;" horiz-adv-x="888" d="M11 104l325 517q25 41 49 54.5t70 13.5h323q25 0 42.5 -19t17.5 -46q0 -25 -18 -44.5t-42 -19.5h-230v-158h199q25 0 42.5 -18.5t17.5 -44.5q0 -25 -18 -44t-42 -19h-199v-148h239q25 0 42.5 -19t17.5 -45q0 -25 -18 -44.5t-42 -19.5h-327q-27 0 -42 17.5t-16 44.5v96 h-183l-84 -132q-15 -24 -44 -29.5t-54 9.5q-25 14 -32.5 44.5t6.5 53.5zM403 493l-101 -194h101v194z" />
<glyph unicode="&#xc7;" horiz-adv-x="672" d="M42 344q0 148 99.5 250.5t246.5 102.5q146 0 244 -95q19 -18 15.5 -49.5t-24.5 -50.5q-21 -18 -48 -18t-46 17q-57 54 -141 54q-85 0 -142.5 -61.5t-57.5 -149.5t57.5 -149.5t142.5 -61.5q84 0 141 54q19 17 46 17t48 -18q21 -19 24.5 -50.5t-15.5 -49.5 q-83 -81 -203 -93l21 -36q18 -33 18 -60q0 -45 -29.5 -75.5t-85.5 -30.5q-36 0 -67 23.5t-40 61.5q-4 20 6.5 35t30.5 18q19 2 31.5 -7.5t15.5 -24.5q1 -7 8.5 -13t14.5 -6q14 0 21 9.5t3 22.5l-25 83q-134 13 -222 113t-88 238z" />
<glyph unicode="&#xc8;" horiz-adv-x="564" d="M454 689h-318q-27 0 -42 -17.5t-16 -44.5v-565q1 -27 16 -44.5t42 -17.5h327q24 0 42 19.5t18 44.5q0 26 -17.5 45t-42.5 19h-239v148h199q24 0 42 19t18 44q0 26 -17.5 44.5t-42.5 18.5h-199v158h230q24 0 42 19.5t18 44.5q0 27 -17.5 46t-42.5 19zM313 732 q-31 0 -66 34l-65 59q-30 33 -22 54t42 29q40 10 61 -4t38 -45l34 -64q15 -30 8 -46.5t-30 -16.5z" />
<glyph unicode="&#xc9;" horiz-adv-x="564" d="M136 689h318q25 0 42.5 -19t17.5 -46q0 -25 -18 -44.5t-42 -19.5h-230v-158h199q25 0 42.5 -18.5t17.5 -44.5q0 -25 -18 -44t-42 -19h-199v-148h239q25 0 42.5 -19t17.5 -45q0 -25 -18 -44.5t-42 -19.5h-327q-27 0 -42 17.5t-16 44.5v565q1 27 16 44.5t42 17.5zM261 732 q-23 0 -30 16.5t8 46.5l34 64q17 31 38 45t61 4q34 -8 42 -29t-22 -54l-65 -59q-35 -34 -66 -34z" />
<glyph unicode="&#xca;" horiz-adv-x="564" d="M454 689h-318q-27 0 -42 -17.5t-16 -44.5v-565q1 -27 16 -44.5t42 -17.5h327q24 0 42 19.5t18 44.5q0 26 -17.5 45t-42.5 19h-239v148h199q24 0 42 19t18 44q0 26 -17.5 44.5t-42.5 18.5h-199v158h230q24 0 42 19.5t18 44.5q0 27 -17.5 46t-42.5 19zM271 888h38 q44 0 74 -47l52 -68q10 -13 1.5 -27.5t-28.5 -14.5t-60 28l-58 46l-58 -46q-40 -28 -60 -28t-28.5 14.5t1.5 27.5l52 68q30 47 74 47z" />
<glyph unicode="&#xcb;" horiz-adv-x="564" d="M454 689h-318q-27 0 -42 -17.5t-16 -44.5v-565q1 -27 16 -44.5t42 -17.5h327q24 0 42 19.5t18 44.5q0 26 -17.5 45t-42.5 19h-239v148h199q24 0 42 19t18 44q0 26 -17.5 44.5t-42.5 18.5h-199v158h230q24 0 42 19.5t18 44.5q0 27 -17.5 46t-42.5 19zM121 801 q0 28 21.5 48t51.5 20q29 0 50 -20t21 -48q0 -29 -21 -49t-50 -20q-30 0 -51.5 20t-21.5 49zM316 801q0 28 21.5 48t51.5 20q29 0 50 -20t21 -48q0 -29 -21 -49t-50 -20q-30 0 -51.5 20t-21.5 49z" />
<glyph unicode="&#xcc;" horiz-adv-x="300" d="M223 626v-563q0 -28 -21.5 -48t-51.5 -20q-29 0 -51 20.5t-22 47.5v563q1 27 23 47.5t50 20.5q30 0 51.5 -20t21.5 -48zM174 732q-31 0 -66 34l-65 59q-30 33 -22 54t42 29q40 10 61 -4t38 -45l34 -64q15 -30 8 -46.5t-30 -16.5z" />
<glyph unicode="&#xcd;" horiz-adv-x="300" d="M223 626v-563q0 -28 -21.5 -48t-51.5 -20q-29 0 -51 20.5t-22 47.5v563q1 27 23 47.5t50 20.5q30 0 51.5 -20t21.5 -48zM125 732q-23 0 -30 16.5t8 46.5l34 64q17 31 38 45t61 4q34 -8 42 -29t-22 -54l-65 -59q-35 -34 -66 -34z" />
<glyph unicode="&#xce;" horiz-adv-x="300" d="M223 626v-563q0 -28 -21.5 -48t-51.5 -20q-29 0 -51 20.5t-22 47.5v563q1 27 23 47.5t50 20.5q30 0 51.5 -20t21.5 -48zM130 888h38q44 0 74 -47l52 -68q10 -13 1.5 -27.5t-28.5 -14.5t-60 28l-58 46l-58 -46q-40 -28 -60 -28t-28.5 14.5t1.5 27.5l52 68q30 47 74 47z " />
<glyph unicode="&#xcf;" horiz-adv-x="300" d="M223 626v-563q0 -28 -21.5 -48t-51.5 -20q-29 0 -51 20.5t-22 47.5v563q1 27 23 47.5t50 20.5q30 0 51.5 -20t21.5 -48zM-19 801q0 28 21.5 48t51.5 20q29 0 50 -20t21 -48q0 -29 -21 -49t-50 -20q-30 0 -51.5 20t-21.5 49zM176 801q0 28 21.5 48t51.5 20q29 0 50 -20 t21 -48q0 -29 -21 -49t-50 -20q-30 0 -51.5 20t-21.5 49z" />
<glyph unicode="&#xd0;" horiz-adv-x="723" d="M329 284h-86v-156h124q79 0 122 62.5t43 152.5q0 91 -43 154t-122 63h-124v-178h86q18 0 30.5 -14.5t12.5 -34.5t-13 -34.5t-30 -14.5zM97 284h-55q-17 0 -30 14.5t-13 34.5t12.5 34.5t30.5 14.5h55v245q1 27 16 44.5t42 17.5h212q145 0 228 -97.5t83 -248.5t-83 -247 t-228 -96h-212q-27 0 -42.5 18t-15.5 44v222z" />
<glyph unicode="&#xd1;" horiz-adv-x="670" d="M593 626v-558q0 -30 -19 -51.5t-46 -21.5h-13q-49 0 -78 50l-214 372v-354q0 -28 -21.5 -48t-51.5 -20q-29 0 -51 20.5t-22 47.5v556q0 31 20 53t47 22h13q52 0 81 -51l209 -366v349q0 27 22 47.5t51 20.5q30 0 51.5 -20t21.5 -48zM319 759q-17 13 -25 13q-16 0 -19 -19 q-4 -22 -25 -27q-13 -4 -26.5 2.5t-19.5 17.5q-4 8 -2 22q8 44 34 64t58 20q29 0 61 -25q17 -13 26 -13q15 0 18 19q5 23 26 27q12 3 26.5 -3t19.5 -17q4 -9 2 -22q-8 -44 -34.5 -64t-57.5 -20q-28 0 -62 25z" />
<glyph unicode="&#xd2;" horiz-adv-x="781" d="M187 343q0 88 58 150t145 62t145.5 -62.5t58.5 -149.5t-58.5 -148.5t-145.5 -61.5t-145 61.5t-58 148.5zM41 343q0 -146 101.5 -249t247.5 -103t248 103t102 249q0 147 -101.5 250.5t-248.5 103.5q-146 0 -247.5 -103.5t-101.5 -250.5zM408 732q-31 0 -66 34l-65 59 q-30 33 -22 54t42 29q40 10 61 -4t38 -45l34 -64q15 -30 8 -46.5t-30 -16.5z" />
<glyph unicode="&#xd3;" horiz-adv-x="781" d="M187 343q0 -87 58 -148.5t145 -61.5t145.5 61.5t58.5 148.5t-58.5 149.5t-145.5 62.5t-145 -62t-58 -150zM41 343q0 147 101.5 250.5t247.5 103.5q147 0 248.5 -103.5t101.5 -250.5q0 -146 -102 -249t-248 -103t-247.5 103t-101.5 249zM370 732q-23 0 -30 16.5t8 46.5 l34 64q17 31 38 45t61 4q34 -8 42 -29t-22 -54l-65 -59q-35 -34 -66 -34z" />
<glyph unicode="&#xd4;" horiz-adv-x="781" d="M187 343q0 88 58 150t145 62t145.5 -62.5t58.5 -149.5t-58.5 -148.5t-145.5 -61.5t-145 61.5t-58 148.5zM41 343q0 -146 101.5 -249t247.5 -103t248 103t102 249q0 147 -101.5 250.5t-248.5 103.5q-146 0 -247.5 -103.5t-101.5 -250.5zM372 888h38q44 0 74 -47l52 -68 q10 -13 1.5 -27.5t-28.5 -14.5t-60 28l-58 46l-58 -46q-40 -28 -60 -28t-28.5 14.5t1.5 27.5l52 68q30 47 74 47z" />
<glyph unicode="&#xd5;" horiz-adv-x="781" d="M187 343q0 -87 58 -148.5t145 -61.5t145.5 61.5t58.5 148.5t-58.5 149.5t-145.5 62.5t-145 -62t-58 -150zM41 343q0 147 101.5 250.5t247.5 103.5q147 0 248.5 -103.5t101.5 -250.5q0 -146 -102 -249t-248 -103t-247.5 103t-101.5 249zM371 759q-17 13 -25 13 q-16 0 -19 -19q-4 -22 -25 -27q-13 -4 -26.5 2.5t-19.5 17.5q-4 8 -2 22q8 44 34 64t58 20q29 0 61 -25q17 -13 26 -13q15 0 18 19q5 23 26 27q12 3 26.5 -3t19.5 -17q4 -9 2 -22q-8 -44 -34.5 -64t-57.5 -20q-28 0 -62 25z" />
<glyph unicode="&#xd6;" horiz-adv-x="781" d="M187 343q0 88 58 150t145 62t145.5 -62.5t58.5 -149.5t-58.5 -148.5t-145.5 -61.5t-145 61.5t-58 148.5zM41 343q0 -146 101.5 -249t247.5 -103t248 103t102 249q0 147 -101.5 250.5t-248.5 103.5q-146 0 -247.5 -103.5t-101.5 -250.5zM221 801q0 28 21.5 48t51.5 20 q29 0 50 -20t21 -48q0 -29 -21 -49t-50 -20q-30 0 -51.5 20t-21.5 49zM416 801q0 28 21.5 48t51.5 20q29 0 50 -20t21 -48q0 -29 -21 -49t-50 -20q-30 0 -51.5 20t-21.5 49z" />
<glyph unicode="&#xd7;" horiz-adv-x="474" d="M327 97l-90 91l-90 -91q-14 -13 -34 -11.5t-34 15.5q-15 15 -16.5 34.5t12.5 33.5l90 91l-88 88q-13 14 -11.5 34t15.5 34q15 15 34.5 16.5t33.5 -12.5l88 -88l88 88q14 14 33.5 12.5t34.5 -16.5q14 -14 15.5 -34t-11.5 -34l-88 -88l90 -91q14 -14 12.5 -33.5 t-16.5 -34.5q-14 -14 -34 -15.5t-34 11.5z" />
<glyph unicode="&#xd8;" horiz-adv-x="780" d="M557 464l-286 -293q51 -38 118 -38q87 0 145.5 61.5t58.5 148.5q0 68 -36 121zM224 218l287 295q-53 42 -122 42q-87 0 -145 -62t-58 -150q0 -70 38 -125zM721 633l-62 -64q80 -99 80 -226q0 -146 -102 -249t-248 -103q-123 0 -219 77l-63 -65q-10 -9 -23 -8.5t-23 9.5 q-9 9 -10 22.5t8 22.5l64 65q-83 99 -83 229q0 147 101.5 250.5t247.5 103.5q126 0 223 -81l62 64q9 8 22.5 7.5t21.5 -8.5q10 -10 10.5 -23t-7.5 -23z" />
<glyph unicode="&#xd9;" horiz-adv-x="680" d="M341 -9h-2q110 0 189 71t79 185v379q-1 27 -23 47.5t-50 20.5q-30 0 -51.5 -20t-21.5 -48v-379q0 -51 -36.5 -84.5t-83.5 -33.5q-49 0 -85.5 33.5t-36.5 84.5v379q0 28 -21.5 48t-51.5 20q-28 0 -50 -20.5t-23 -47.5v-379q0 -114 79 -185t189 -71zM363 732q-31 0 -66 34 l-65 59q-30 33 -22 54t42 29q40 10 61 -4t38 -45l34 -64q15 -30 8 -46.5t-30 -16.5z" />
<glyph unicode="&#xda;" horiz-adv-x="680" d="M339 -9h2q-110 0 -189 71t-79 185v379q1 27 23 47.5t50 20.5q30 0 51.5 -20t21.5 -48v-379q0 -51 36.5 -84.5t85.5 -33.5q47 0 83.5 33.5t36.5 84.5v379q0 28 21.5 48t51.5 20q28 0 50 -20.5t23 -47.5v-379q0 -114 -79 -185t-189 -71zM292 732q-23 0 -30 16.5t8 46.5 l34 64q17 31 38 45t61 4q34 -8 42 -29t-22 -54l-65 -59q-35 -34 -66 -34z" />
<glyph unicode="&#xdb;" horiz-adv-x="680" d="M341 -9h-2q110 0 189 71t79 185v379q-1 27 -23 47.5t-50 20.5q-30 0 -51.5 -20t-21.5 -48v-379q0 -51 -36.5 -84.5t-83.5 -33.5q-49 0 -85.5 33.5t-36.5 84.5v379q0 28 -21.5 48t-51.5 20q-28 0 -50 -20.5t-23 -47.5v-379q0 -114 79 -185t189 -71zM322 888h38 q44 0 74 -47l52 -68q10 -13 1.5 -27.5t-28.5 -14.5t-60 28l-58 46l-58 -46q-40 -28 -60 -28t-28.5 14.5t1.5 27.5l52 68q30 47 74 47z" />
<glyph unicode="&#xdc;" horiz-adv-x="680" d="M341 -9h-2q110 0 189 71t79 185v379q-1 27 -23 47.5t-50 20.5q-30 0 -51.5 -20t-21.5 -48v-379q0 -51 -36.5 -84.5t-83.5 -33.5q-49 0 -85.5 33.5t-36.5 84.5v379q0 28 -21.5 48t-51.5 20q-28 0 -50 -20.5t-23 -47.5v-379q0 -114 79 -185t189 -71zM170 801q0 28 21.5 48 t51.5 20q29 0 50 -20t21 -48q0 -29 -21 -49t-50 -20q-30 0 -51.5 20t-21.5 49zM365 801q0 28 21.5 48t51.5 20q29 0 50 -20t21 -48q0 -29 -21 -49t-50 -20q-30 0 -51.5 20t-21.5 49z" />
<glyph unicode="&#xdd;" horiz-adv-x="599" d="M568 586l-196 -276v-247q0 -28 -21.5 -48t-51.5 -20q-29 0 -51 20.5t-22 47.5v249l-194 274q-14 22 -8 50.5t28 44.5q23 16 51.5 12.5t43.5 -25.5l152 -237l154 237q14 22 43 25.5t52 -12.5q22 -16 28 -44.5t-8 -50.5zM277 732q-23 0 -30 16.5t8 46.5l34 64q17 31 38 45 t61 4q34 -8 42 -29t-22 -54l-65 -59q-35 -34 -66 -34z" />
<glyph unicode="&#xde;" horiz-adv-x="568" d="M398 349q0 47 -25.5 75.5t-59.5 28.5h-90v-203h90q34 0 59.5 27t25.5 72zM223 126v-63q0 -28 -21.5 -48t-51.5 -20q-29 0 -51 20.5t-22 47.5v563q0 27 22 47.5t51 20.5q30 0 51.5 -20t21.5 -48v-49h97q95 0 159 -61.5t64 -162.5t-64 -164t-159 -63h-97z" />
<glyph unicode="&#xdf;" d="M302 -5h-9q-26 0 -46 16t-20 46q0 55 81 64q44 6 65.5 36.5t21.5 72.5q0 36 -23.5 70.5t-76.5 34.5l-19 1q-18 1 -28.5 14.5t-10.5 33.5q0 19 11 32.5t28 15.5l12 2q49 8 49 71q0 28 -19.5 46t-51.5 18q-27 0 -47 -18.5t-20 -49.5v-445q0 -25 -20.5 -43t-48.5 -18 q-27 0 -48 18t-21 43v434q0 97 56.5 152t145.5 55q93 0 151 -48t58 -118q0 -84 -63 -124q117 -57 117 -187q0 -100 -57 -162.5t-167 -62.5z" />
<glyph unicode="&#xe0;" horiz-adv-x="603" d="M404 401v9q1 25 21.5 43.5t48.5 18.5q29 0 49.5 -18t20.5 -44v-353q0 -26 -20.5 -44t-49.5 -18q-28 0 -48.5 18.5t-21.5 43.5v9q-22 -36 -60.5 -55.5t-79.5 -19.5q-94 0 -160.5 65.5t-66.5 177.5q0 111 66.5 176.5t160.5 65.5q32 0 73 -17t67 -58zM181 233 q0 -49 30 -83.5t80 -34.5q47 0 80.5 35.5t33.5 82.5t-33.5 82.5t-80.5 35.5q-50 0 -80 -34.5t-30 -83.5zM294 533q-38 0 -75 37l-72 74q-25 34 -16 55t42 29q16 1 26 3.5t21 -3.5t16 -8.5t12 -12t10 -13.5t8 -14l45 -84q13 -24 8.5 -43.5t-25.5 -19.5z" />
<glyph unicode="&#xe1;" horiz-adv-x="603" d="M404 401v9q1 25 21.5 43.5t48.5 18.5q29 0 49.5 -18t20.5 -44v-353q0 -26 -20.5 -44t-49.5 -18q-28 0 -48.5 18.5t-21.5 43.5v9q-22 -36 -60.5 -55.5t-79.5 -19.5q-94 0 -160.5 65.5t-66.5 177.5q0 111 66.5 176.5t160.5 65.5q32 0 73 -17t67 -58zM181 233 q0 -49 30 -83.5t80 -34.5q47 0 80.5 35.5t33.5 82.5t-33.5 82.5t-80.5 35.5q-50 0 -80 -34.5t-30 -83.5zM258 533q-21 0 -25.5 19.5t8.5 43.5l45 84q5 10 8 14t10 13.5t12 12t16 8.5t21 3.5t26 -3.5q33 -8 42 -29t-16 -55l-72 -74q-37 -37 -75 -37z" />
<glyph unicode="&#xe2;" horiz-adv-x="603" d="M404 401v9q1 25 21.5 43.5t48.5 18.5q29 0 49.5 -18t20.5 -44v-353q0 -26 -20.5 -44t-49.5 -18q-28 0 -48.5 18.5t-21.5 43.5v9q-22 -36 -60.5 -55.5t-79.5 -19.5q-94 0 -160.5 65.5t-66.5 177.5q0 111 66.5 176.5t160.5 65.5q32 0 73 -17t67 -58zM181 233 q0 -49 30 -83.5t80 -34.5q47 0 80.5 35.5t33.5 82.5t-33.5 82.5t-80.5 35.5q-50 0 -80 -34.5t-30 -83.5zM279 710h44q41 0 73 -54l49 -87q10 -14 1.5 -31t-28.5 -17q-28 0 -59 32l-58 61l-58 -61q-31 -32 -59 -32q-20 0 -28.5 17t1.5 31l49 87q32 54 73 54z" />
<glyph unicode="&#xe3;" horiz-adv-x="603" d="M404 401v9q1 25 21.5 43.5t48.5 18.5q29 0 49.5 -18t20.5 -44v-353q0 -26 -20.5 -44t-49.5 -18q-28 0 -48.5 18.5t-21.5 43.5v9q-22 -36 -60.5 -55.5t-79.5 -19.5q-94 0 -160.5 65.5t-66.5 177.5q0 111 66.5 176.5t160.5 65.5q32 0 73 -17t67 -58zM181 233 q0 -49 30 -83.5t80 -34.5q47 0 80.5 35.5t33.5 82.5t-33.5 82.5t-80.5 35.5q-50 0 -80 -34.5t-30 -83.5zM283 584q-17 15 -25 15q-16 0 -19 -21q-4 -23 -25 -30q-13 -4 -26.5 3t-19.5 19q-4 10 -2 24q8 48 34 70t58 22q28 0 60 -27q17 -15 26 -15q15 0 18 21q5 25 26 30 q12 3 26.5 -3.5t19.5 -18.5q4 -10 2 -24q-8 -48 -34.5 -70t-57.5 -22q-27 0 -61 27z" />
<glyph unicode="&#xe4;" horiz-adv-x="603" d="M404 401v9q1 25 21.5 43.5t48.5 18.5q29 0 49.5 -18t20.5 -44v-353q0 -26 -20.5 -44t-49.5 -18q-28 0 -48.5 18.5t-21.5 43.5v9q-22 -36 -60.5 -55.5t-79.5 -19.5q-94 0 -160.5 65.5t-66.5 177.5q0 111 66.5 176.5t160.5 65.5q32 0 73 -17t67 -58zM181 233 q0 -49 30 -83.5t80 -34.5q47 0 80.5 35.5t33.5 82.5t-33.5 82.5t-80.5 35.5q-50 0 -80 -34.5t-30 -83.5zM131 613q0 28 21.5 48t51.5 20q29 0 50 -20t21 -48q0 -29 -21 -49t-50 -20q-30 0 -51.5 20t-21.5 49zM326 613q0 28 21.5 48t51.5 20q29 0 50 -20t21 -48 q0 -29 -21 -49t-50 -20q-30 0 -51.5 20t-21.5 49z" />
<glyph unicode="&#xe5;" horiz-adv-x="603" d="M404 401v9q1 25 21.5 43.5t48.5 18.5q29 0 49.5 -18t20.5 -44v-353q0 -26 -20.5 -44t-49.5 -18q-28 0 -48.5 18.5t-21.5 43.5v9q-22 -36 -60.5 -55.5t-79.5 -19.5q-94 0 -160.5 65.5t-66.5 177.5q0 111 66.5 176.5t160.5 65.5q32 0 73 -17t67 -58zM181 233 q0 -49 30 -83.5t80 -34.5q47 0 80.5 35.5t33.5 82.5t-33.5 82.5t-80.5 35.5q-50 0 -80 -34.5t-30 -83.5zM180 644q0 52 35 87.5t85 35.5q51 0 86.5 -35.5t35.5 -87.5q0 -50 -35.5 -85t-86.5 -35q-50 0 -85 35t-35 85zM245 644q0 -23 16 -39t39 -16q24 0 40.5 16t16.5 39 q0 25 -16.5 41.5t-40.5 16.5q-23 0 -39 -16.5t-16 -41.5z" />
<glyph unicode="&#xe6;" horiz-adv-x="848" d="M152 332q-15 -9 -35.5 -6t-33.5 18q-15 17 -15.5 40t15.5 37q60 55 176 55q114 0 164 -69q58 69 160 69t170.5 -68.5t68.5 -176.5q0 -18 -13 -30.5t-30 -12.5h-301q5 -38 39.5 -57.5t75.5 -19.5q49 0 81 22q25 16 48.5 13.5t39.5 -20.5q19 -23 13.5 -50.5t-31.5 -42.5 q-64 -42 -161 -42q-119 0 -175 91q-74 -91 -204 -91q-80 0 -128.5 41.5t-48.5 108.5q0 60 54.5 100.5t145.5 40.5q70 0 110 -27q0 101 -94 101q-51 0 -91 -24zM480 275h202q-5 42 -31.5 63.5t-66.5 21.5q-87 0 -104 -85zM230 95q26 0 62.5 15t55.5 50q-35 31 -100 31 q-41 0 -60 -14t-19 -35q0 -19 18 -33t43 -14z" />
<glyph unicode="&#xe7;" horiz-adv-x="502" d="M178 235v-3q0 -47 33.5 -76.5t80.5 -29.5q36 0 69 18q21 12 45.5 12t45.5 -17q21 -21 18.5 -53t-27.5 -49q-48 -35 -114 -43l21 -37q18 -33 18 -60q0 -45 -29.5 -75.5t-85.5 -30.5q-36 0 -67 23.5t-40 61.5q-4 20 6.5 35t30.5 18q19 2 31.5 -7.5t15.5 -24.5q1 -7 8.5 -13 t14.5 -6q14 0 21 9.5t3 22.5l-25 84q-92 12 -154 77t-62 161v3q0 107 76 174t180 67q87 0 151 -46q25 -17 27.5 -49t-18.5 -53q-21 -17 -45.5 -17t-45.5 12q-33 18 -69 18q-47 0 -80.5 -29.5t-33.5 -76.5z" />
<glyph unicode="&#xe8;" horiz-adv-x="544" d="M177 275h202q-5 42 -31.5 63.5t-66.5 21.5q-87 0 -104 -85zM459 126q19 -23 13.5 -50.5t-31.5 -42.5q-64 -42 -161 -42q-103 0 -173.5 68t-70.5 176t70.5 174.5t173.5 66.5q102 0 170.5 -68.5t68.5 -176.5q0 -18 -13 -30.5t-30 -12.5h-301q5 -38 39.5 -57.5t75.5 -19.5 q49 0 81 22q25 16 48.5 13.5t39.5 -20.5zM303 533q-38 0 -75 37l-72 74q-25 34 -16 55t42 29q16 1 26 3.5t21 -3.5t16 -8.5t12 -12t10 -13.5t8 -14l45 -84q13 -24 8.5 -43.5t-25.5 -19.5z" />
<glyph unicode="&#xe9;" horiz-adv-x="544" d="M177 275h202q-5 42 -31.5 63.5t-66.5 21.5q-87 0 -104 -85zM459 126q19 -23 13.5 -50.5t-31.5 -42.5q-64 -42 -161 -42q-103 0 -173.5 68t-70.5 176t70.5 174.5t173.5 66.5q102 0 170.5 -68.5t68.5 -176.5q0 -18 -13 -30.5t-30 -12.5h-301q5 -38 39.5 -57.5t75.5 -19.5 q49 0 81 22q25 16 48.5 13.5t39.5 -20.5zM247 533q-21 0 -25.5 19.5t8.5 43.5l45 84q5 10 8 14t10 13.5t12 12t16 8.5t21 3.5t26 -3.5q33 -8 42 -29t-16 -55l-72 -74q-37 -37 -75 -37z" />
<glyph unicode="&#xea;" horiz-adv-x="544" d="M177 275h202q-5 42 -31.5 63.5t-66.5 21.5q-87 0 -104 -85zM459 126q19 -23 13.5 -50.5t-31.5 -42.5q-64 -42 -161 -42q-103 0 -173.5 68t-70.5 176t70.5 174.5t173.5 66.5q102 0 170.5 -68.5t68.5 -176.5q0 -18 -13 -30.5t-30 -12.5h-301q5 -38 39.5 -57.5t75.5 -19.5 q49 0 81 22q25 16 48.5 13.5t39.5 -20.5zM253 710h44q41 0 73 -54l49 -87q10 -14 1.5 -31t-28.5 -17q-28 0 -59 32l-58 61l-58 -61q-31 -32 -59 -32q-20 0 -28.5 17t1.5 31l49 87q32 54 73 54z" />
<glyph unicode="&#xeb;" horiz-adv-x="544" d="M177 275h202q-5 42 -31.5 63.5t-66.5 21.5q-87 0 -104 -85zM459 126q19 -23 13.5 -50.5t-31.5 -42.5q-64 -42 -161 -42q-103 0 -173.5 68t-70.5 176t70.5 174.5t173.5 66.5q102 0 170.5 -68.5t68.5 -176.5q0 -18 -13 -30.5t-30 -12.5h-301q5 -38 39.5 -57.5t75.5 -19.5 q49 0 81 22q25 16 48.5 13.5t39.5 -20.5zM106 613q0 28 21.5 48t51.5 20q29 0 50 -20t21 -48q0 -29 -21 -49t-50 -20q-30 0 -51.5 20t-21.5 49zM301 613q0 28 21.5 48t51.5 20q29 0 50 -20t21 -48q0 -29 -21 -49t-50 -20q-30 0 -51.5 20t-21.5 49z" />
<glyph unicode="&#xec;" horiz-adv-x="258" d="M198 410v-353q0 -26 -20.5 -44t-49.5 -18q-28 0 -48.5 18.5t-21.5 43.5v353q1 25 21.5 43.5t48.5 18.5q29 0 49.5 -18t20.5 -44zM166 533q-38 0 -75 37l-72 74q-25 34 -16 55t42 29q16 1 26 3.5t21 -3.5t16 -8.5t12 -12t10 -13.5t8 -14l45 -84q13 -24 8.5 -43.5 t-25.5 -19.5z" />
<glyph unicode="&#xed;" horiz-adv-x="258" d="M199 410v-353q0 -26 -20.5 -44t-49.5 -18q-28 0 -48.5 18.5t-21.5 43.5v353q1 25 21.5 43.5t48.5 18.5q29 0 49.5 -18t20.5 -44zM91 533q-21 0 -25.5 19.5t8.5 43.5l45 84q5 10 8 14t10 13.5t12 12t16 8.5t21 3.5t26 -3.5q33 -8 42 -29t-16 -55l-72 -74q-37 -37 -75 -37z " />
<glyph unicode="&#xee;" horiz-adv-x="258" d="M199 410v-353q0 -26 -20.5 -44t-49.5 -18q-28 0 -48.5 18.5t-21.5 43.5v353q1 25 21.5 43.5t48.5 18.5q29 0 49.5 -18t20.5 -44zM107 710h44q41 0 73 -54l49 -87q10 -14 1.5 -31t-28.5 -17q-28 0 -59 32l-58 61l-58 -61q-31 -32 -59 -32q-20 0 -28.5 17t1.5 31l49 87 q32 54 73 54z" />
<glyph unicode="&#xef;" horiz-adv-x="258" d="M199 410v-353q0 -26 -20.5 -44t-49.5 -18q-28 0 -48.5 18.5t-21.5 43.5v353q1 25 21.5 43.5t48.5 18.5q29 0 49.5 -18t20.5 -44zM-40 613q0 28 21.5 48t51.5 20q29 0 50 -20t21 -48q0 -29 -21 -49t-50 -20q-30 0 -51.5 20t-21.5 49zM155 613q0 28 21.5 48t51.5 20 q29 0 50 -20t21 -48q0 -29 -21 -49t-50 -20q-30 0 -51.5 20t-21.5 49z" />
<glyph unicode="&#xf0;" horiz-adv-x="557" d="M278 128q45 0 75.5 29.5t30.5 77.5q0 46 -30.5 75t-75.5 29q-44 0 -74.5 -29t-30.5 -75q0 -48 30.5 -77.5t74.5 -29.5zM323 588l152 -208q46 -62 46 -145q0 -108 -70.5 -175.5t-172.5 -67.5t-172 67.5t-70 175.5q0 107 72 173t175 59l-51 64l-66 -42q-9 -5 -20 -1t-16 14 q-14 23 8 37l60 37l-7 10l-22 31q-10 17 -3 38t26 32q20 10 40.5 6t31.5 -21l26 -37l67 43q9 5 19.5 1.5t15.5 -13.5q15 -23 -8 -38z" />
<glyph unicode="&#xf1;" horiz-adv-x="562" d="M199 410v-11q19 35 56.5 56.5t78.5 21.5q81 0 126.5 -50t45.5 -148v-222q0 -26 -20.5 -44t-49.5 -18q-28 0 -48.5 18.5t-21.5 43.5v192q0 45 -22 69t-59 24q-86 0 -86 -95v-190q0 -26 -20.5 -44t-49.5 -18q-28 0 -48.5 18.5t-21.5 43.5v353q1 25 21.5 43.5t48.5 18.5 q29 0 49.5 -18t20.5 -44zM262 584q-17 15 -25 15q-16 0 -19 -21q-4 -23 -25 -30q-13 -4 -26.5 3t-19.5 19q-4 10 -2 24q8 48 34 70t58 22q29 0 60 -27q17 -15 26 -15q15 0 18 21q5 25 26 30q12 3 26.5 -3.5t19.5 -18.5q4 -10 2 -24q-8 -48 -34.5 -70t-57.5 -22q-27 0 -61 27 z" />
<glyph unicode="&#xf2;" d="M281 -9q104 0 175 68t71 176t-70.5 174.5t-175.5 66.5q-104 0 -174.5 -66.5t-70.5 -174.5t70.5 -176t174.5 -68zM281 126q-44 0 -74.5 31t-30.5 78q0 46 30.5 76t74.5 30t75 -30t31 -76q0 -47 -31 -78t-75 -31zM289 533q-38 0 -75 37l-72 74q-25 34 -16 55t42 29 q16 1 26 3.5t21 -3.5t16 -8.5t12 -12t10 -13.5t8 -14l45 -84q13 -24 8.5 -43.5t-25.5 -19.5z" />
<glyph unicode="&#xf3;" d="M281 -9q-104 0 -174.5 68t-70.5 176t70.5 174.5t174.5 66.5q105 0 175.5 -66.5t70.5 -174.5t-71 -176t-175 -68zM281 126q44 0 75 31t31 78q0 46 -31 76t-75 30t-74.5 -30t-30.5 -76q0 -47 30.5 -78t74.5 -31zM269 533q-21 0 -25.5 19.5t8.5 43.5l45 84q5 10 8 14 t10 13.5t12 12t16 8.5t21 3.5t26 -3.5q33 -8 42 -29t-16 -55l-72 -74q-37 -37 -75 -37z" />
<glyph unicode="&#xf4;" d="M281 -9q104 0 175 68t71 176t-70.5 174.5t-175.5 66.5q-104 0 -174.5 -66.5t-70.5 -174.5t70.5 -176t174.5 -68zM281 126q-44 0 -74.5 31t-30.5 78q0 46 30.5 76t74.5 30t75 -30t31 -76q0 -47 -31 -78t-75 -31zM259 710h44q41 0 73 -54l49 -87q10 -14 1.5 -31t-28.5 -17 q-28 0 -59 32l-58 61l-58 -61q-31 -32 -59 -32q-20 0 -28.5 17t1.5 31l49 87q32 54 73 54z" />
<glyph unicode="&#xf5;" d="M281 -9q-104 0 -174.5 68t-70.5 176t70.5 174.5t174.5 66.5q105 0 175.5 -66.5t70.5 -174.5t-71 -176t-175 -68zM281 126q44 0 75 31t31 78q0 46 -31 76t-75 30t-74.5 -30t-30.5 -76q0 -47 30.5 -78t74.5 -31zM263 584q-17 15 -25 15q-16 0 -19 -21q-4 -23 -25 -30 q-13 -4 -26.5 3t-19.5 19q-4 10 -2 24q8 48 34 70t58 22q28 0 60 -27q17 -15 26 -15q15 0 18 21q5 25 26 30q12 3 26.5 -3.5t19.5 -18.5q4 -10 2 -24q-8 -48 -34.5 -70t-57.5 -22q-27 0 -61 27z" />
<glyph unicode="&#xf6;" d="M281 -9q104 0 175 68t71 176t-70.5 174.5t-175.5 66.5q-104 0 -174.5 -66.5t-70.5 -174.5t70.5 -176t174.5 -68zM281 126q-44 0 -74.5 31t-30.5 78q0 46 30.5 76t74.5 30t75 -30t31 -76q0 -47 -31 -78t-75 -31zM112 613q0 28 21.5 48t51.5 20q29 0 50 -20t21 -48 q0 -29 -21 -49t-50 -20q-30 0 -51.5 20t-21.5 49zM307 613q0 28 21.5 48t51.5 20q29 0 50 -20t21 -48q0 -29 -21 -49t-50 -20q-30 0 -51.5 20t-21.5 49z" />
<glyph unicode="&#xf7;" horiz-adv-x="567" d="M206 65q0 33 22.5 54t55.5 21t56 -21.5t23 -53.5q0 -33 -23 -54.5t-56 -21.5t-55.5 21.5t-22.5 54.5zM206 424q0 32 22.5 53.5t55.5 21.5t56 -21.5t23 -53.5q0 -33 -23 -54.5t-56 -21.5t-55.5 21.5t-22.5 54.5zM85 295h397q19 0 32.5 -15t13.5 -36t-13.5 -36.5 t-32.5 -15.5h-397q-19 0 -32.5 15.5t-13.5 36.5t13 36t33 15z" />
<glyph unicode="&#xf8;" d="M138 33l-39 -40q-10 -9 -23 -8.5t-23 9.5q-9 9 -10 22.5t8 22.5l38 39q-53 66 -53 157q0 108 70.5 174.5t174.5 66.5q85 0 151 -47l34 35q9 8 22.5 7.5t21.5 -8.5q10 -10 10.5 -23t-7.5 -23l-33 -34q47 -63 47 -148q0 -108 -71 -176t-175 -68q-81 0 -143 42zM378 279 l-140 -144q20 -9 43 -9q44 0 75 31t31 78q0 21 -9 44zM189 180l144 148q-26 13 -52 13q-44 0 -74.5 -30t-30.5 -76q0 -29 13 -55z" />
<glyph unicode="&#xf9;" horiz-adv-x="562" d="M363 57v11q-19 -35 -56 -56t-79 -21q-172 0 -172 185v234q0 26 20.5 44t49.5 18q28 0 48.5 -18.5t21.5 -43.5v-192q0 -47 19 -69.5t62 -22.5q86 0 86 94v190q0 26 20.5 44t49.5 18q28 0 48.5 -18.5t21.5 -43.5v-353q-1 -25 -21.5 -43.5t-48.5 -18.5q-29 0 -49.5 18 t-20.5 44zM296 533q-38 0 -75 37l-72 74q-25 34 -16 55t42 29q16 1 26 3.5t21 -3.5t16 -8.5t12 -12t10 -13.5t8 -14l45 -84q13 -24 8.5 -43.5t-25.5 -19.5z" />
<glyph unicode="&#xfa;" horiz-adv-x="562" d="M363 57v11q-19 -35 -56 -56t-79 -21q-172 0 -172 185v234q0 26 20.5 44t49.5 18q28 0 48.5 -18.5t21.5 -43.5v-192q0 -47 19 -69.5t62 -22.5q86 0 86 94v190q0 26 20.5 44t49.5 18q28 0 48.5 -18.5t21.5 -43.5v-353q-1 -25 -21.5 -43.5t-48.5 -18.5q-29 0 -49.5 18 t-20.5 44zM257 533q-21 0 -25.5 19.5t8.5 43.5l45 84q5 10 8 14t10 13.5t12 12t16 8.5t21 3.5t26 -3.5q33 -8 42 -29t-16 -55l-72 -74q-37 -37 -75 -37z" />
<glyph unicode="&#xfb;" horiz-adv-x="562" d="M363 57v11q-19 -35 -56 -56t-79 -21q-172 0 -172 185v234q0 26 20.5 44t49.5 18q28 0 48.5 -18.5t21.5 -43.5v-192q0 -47 19 -69.5t62 -22.5q86 0 86 94v190q0 26 20.5 44t49.5 18q28 0 48.5 -18.5t21.5 -43.5v-353q-1 -25 -21.5 -43.5t-48.5 -18.5q-29 0 -49.5 18 t-20.5 44zM258 710h44q41 0 73 -54l49 -87q10 -14 1.5 -31t-28.5 -17q-28 0 -59 32l-58 61l-58 -61q-31 -32 -59 -32q-20 0 -28.5 17t1.5 31l49 87q32 54 73 54z" />
<glyph unicode="&#xfc;" horiz-adv-x="562" d="M363 57v11q-19 -35 -56 -56t-79 -21q-172 0 -172 185v234q0 26 20.5 44t49.5 18q28 0 48.5 -18.5t21.5 -43.5v-192q0 -47 19 -69.5t62 -22.5q86 0 86 94v190q0 26 20.5 44t49.5 18q28 0 48.5 -18.5t21.5 -43.5v-353q-1 -25 -21.5 -43.5t-48.5 -18.5q-29 0 -49.5 18 t-20.5 44zM111 613q0 28 21.5 48t51.5 20q29 0 50 -20t21 -48q0 -29 -21 -49t-50 -20q-30 0 -51.5 20t-21.5 49zM306 613q0 28 21.5 48t51.5 20q29 0 50 -20t21 -48q0 -29 -21 -49t-50 -20q-30 0 -51.5 20t-21.5 49z" />
<glyph unicode="&#xfd;" horiz-adv-x="482" d="M458 386l-239 -577q-10 -24 -33.5 -35t-54.5 -4q-26 6 -38 31.5t-2 52.5l78 194l-145 338q-10 27 2.5 51.5t38.5 31.5q32 8 55 -4t32 -36l88 -228l90 228q9 24 32 36t55 4q26 -7 38.5 -31.5t2.5 -51.5zM209 533q-21 0 -25.5 19.5t8.5 43.5l45 84q5 10 8 14t10 13.5t12 12 t16 8.5t21 3.5t26 -3.5q33 -8 42 -29t-16 -55l-72 -74q-37 -37 -75 -37z" />
<glyph unicode="&#xfe;" horiz-adv-x="607" d="M203 401q26 41 67 58t73 17q94 0 160.5 -65.5t66.5 -176.5q0 -112 -66.5 -177.5t-160.5 -65.5q-41 0 -79.5 19.5t-60.5 55.5v-232q-1 -25 -21.5 -43.5t-48.5 -18.5q-29 0 -49.5 18t-20.5 44v830q0 26 20.5 44t49.5 18q28 0 48.5 -18.5t21.5 -43.5v-263zM426 233 q0 49 -30 83.5t-80 34.5q-47 0 -80.5 -35.5t-33.5 -82.5t33.5 -82.5t80.5 -35.5q50 0 80 34.5t30 83.5z" />
<glyph unicode="&#xff;" horiz-adv-x="482" d="M219 -191l239 577q10 27 -2.5 51.5t-38.5 31.5q-32 8 -55 -4t-32 -36l-90 -228l-88 228q-9 24 -32 36t-55 4q-26 -7 -38.5 -31.5t-2.5 -51.5l145 -338l-78 -194q-10 -27 2 -52.5t38 -31.5q31 -7 54.5 4t33.5 35zM72 613q0 28 21.5 48t51.5 20q29 0 50 -20t21 -48 q0 -29 -21 -49t-50 -20q-30 0 -51.5 20t-21.5 49zM267 613q0 28 21.5 48t51.5 20q29 0 50 -20t21 -48q0 -29 -21 -49t-50 -20q-30 0 -51.5 20t-21.5 49z" />
<glyph unicode="&#x152;" horiz-adv-x="1084" d="M656 689h318q25 0 42.5 -19t17.5 -46q0 -25 -18 -44.5t-42 -19.5h-230v-158h199q25 0 42.5 -18.5t17.5 -44.5q0 -25 -18 -44t-42 -19h-199v-148h239q25 0 42.5 -19t17.5 -45q0 -25 -18 -44.5t-42 -19.5h-327q-26 0 -41 16.5t-17 42.5q-92 -68 -208 -68q-146 0 -247.5 103 t-101.5 249q0 147 101.5 250.5t247.5 103.5q116 0 208 -68q1 26 16 43t42 17zM187 343q0 -87 58 -148.5t145 -61.5t145.5 61.5t58.5 148.5t-58.5 149.5t-145.5 62.5t-145 -62t-58 -150z" />
<glyph unicode="&#x153;" horiz-adv-x="897" d="M457 60q-69 -69 -176 -69q-104 0 -174.5 68t-70.5 176t70.5 174.5t174.5 66.5q106 0 176 -68q71 68 175 68q102 0 170.5 -68.5t68.5 -176.5q0 -18 -13 -30.5t-30 -12.5h-301q5 -38 39.5 -57.5t75.5 -19.5q49 0 81 22q25 16 48.5 13.5t39.5 -20.5q19 -23 13.5 -50.5 t-31.5 -42.5q-64 -42 -161 -42q-104 0 -175 69zM281 126q44 0 75 31t31 78q0 46 -31 76t-75 30t-74.5 -30t-30.5 -76q0 -47 30.5 -78t74.5 -31zM529 275h202q-5 42 -31.5 63.5t-66.5 21.5q-87 0 -104 -85z" />
<glyph unicode="&#x178;" horiz-adv-x="599" d="M568 586l-196 -276v-247q0 -28 -21.5 -48t-51.5 -20q-29 0 -51 20.5t-22 47.5v249l-194 274q-14 22 -8 50.5t28 44.5q23 16 51.5 12.5t43.5 -25.5l152 -237l154 237q14 22 43 25.5t52 -12.5q22 -16 28 -44.5t-8 -50.5zM134 801q0 28 21.5 48t51.5 20q29 0 50 -20t21 -48 q0 -29 -21 -49t-50 -20q-30 0 -51.5 20t-21.5 49zM329 801q0 28 21.5 48t51.5 20q29 0 50 -20t21 -48q0 -29 -21 -49t-50 -20q-30 0 -51.5 20t-21.5 49z" />
<glyph unicode="&#x2c6;" horiz-adv-x="538" d="M247 710h44q41 0 73 -54l49 -87q10 -14 1.5 -31t-28.5 -17q-28 0 -59 32l-58 61l-58 -61q-31 -32 -59 -32q-20 0 -28.5 17t1.5 31l49 87q32 54 73 54z" />
<glyph unicode="&#x2dc;" horiz-adv-x="432" d="M198 584q-17 15 -25 15q-16 0 -19 -21q-4 -23 -25 -30q-13 -4 -26.5 3t-19.5 19q-4 10 -2 24q8 48 34 70t58 22q29 0 60 -27q17 -15 26 -15q15 0 18 21q5 25 26 30q12 3 26.5 -3.5t19.5 -18.5q4 -10 2 -24q-8 -48 -34.5 -70t-57.5 -22q-27 0 -61 27z" />
<glyph unicode="&#x2000;" horiz-adv-x="487" />
<glyph unicode="&#x2001;" horiz-adv-x="975" />
<glyph unicode="&#x2002;" horiz-adv-x="487" />
<glyph unicode="&#x2003;" horiz-adv-x="975" />
<glyph unicode="&#x2004;" horiz-adv-x="325" />
<glyph unicode="&#x2005;" horiz-adv-x="243" />
<glyph unicode="&#x2006;" horiz-adv-x="162" />
<glyph unicode="&#x2007;" horiz-adv-x="162" />
<glyph unicode="&#x2008;" horiz-adv-x="121" />
<glyph unicode="&#x2009;" horiz-adv-x="195" />
<glyph unicode="&#x200a;" horiz-adv-x="54" />
<glyph unicode="&#x2010;" horiz-adv-x="483" d="M109 301h265q21 0 35 -16t14 -39q0 -22 -14.5 -38.5t-34.5 -16.5h-265q-20 0 -34.5 16.5t-14.5 38.5q0 23 14 39t35 16z" />
<glyph unicode="&#x2011;" horiz-adv-x="483" d="M109 301h265q21 0 35 -16t14 -39q0 -22 -14.5 -38.5t-34.5 -16.5h-265q-20 0 -34.5 16.5t-14.5 38.5q0 23 14 39t35 16z" />
<glyph unicode="&#x2012;" horiz-adv-x="483" d="M109 301h265q21 0 35 -16t14 -39q0 -22 -14.5 -38.5t-34.5 -16.5h-265q-20 0 -34.5 16.5t-14.5 38.5q0 23 14 39t35 16z" />
<glyph unicode="&#x2013;" horiz-adv-x="648" d="M116 173q-22 0 -38.5 18.5t-16.5 44.5q0 25 15.5 43t39.5 18h414q24 0 39.5 -18t15.5 -43q0 -26 -16 -44.5t-39 -18.5h-414z" />
<glyph unicode="&#x2014;" horiz-adv-x="862" d="M117 173q-22 0 -38.5 18.5t-16.5 44.5q0 25 15.5 43t39.5 18h627q24 0 39.5 -18t15.5 -43q0 -26 -16 -44.5t-39 -18.5h-627z" />
<glyph unicode="&#x2018;" horiz-adv-x="259" d="M46 429q16 115 62 191.5t98 76.5q25 0 25 -25q0 -11 -5 -20q-57 -86 -68 -196q0 -3 -0.5 -8t-1 -7.5t-1 -7t-1.5 -7t-2 -6.5t-2.5 -6t-3.5 -5t-4.5 -5.5t-5.5 -4.5q-20 -15 -48.5 -18t-39.5 10q-5 10 -2 38z" />
<glyph unicode="&#x2019;" horiz-adv-x="262" d="M225 648q-16 -115 -62 -191.5t-98 -76.5q-25 0 -25 25q0 11 5 20q57 86 68 196q0 3 0.5 8t1 7.5t1 7t1.5 7t2 6.5t2.5 6t3.5 5t4.5 5.5t5.5 4.5q20 15 48.5 18t39.5 -10q5 -10 2 -38z" />
<glyph unicode="&#x201a;" horiz-adv-x="246" d="M184 145q-16 -115 -62 -191.5t-98 -76.5q-25 0 -25 25q0 11 5 20q57 86 68 196q0 3 0.5 8t1 7.5t1 7t1.5 7t2 6.5t2.5 6t3.5 5t4.5 5.5t5.5 4.5q20 15 48.5 18t39.5 -10q5 -10 2 -38z" />
<glyph unicode="&#x201c;" horiz-adv-x="447" d="M46 429q16 115 62 191.5t98 76.5q25 0 25 -25q0 -11 -5 -20q-57 -86 -68 -196q0 -3 -0.5 -8t-1 -7.5t-1 -7t-1.5 -7t-2 -6.5t-2.5 -6t-3.5 -5t-4.5 -5.5t-5.5 -4.5q-20 -15 -48.5 -18t-39.5 10q-5 10 -2 38zM234 429q16 115 62 191.5t98 76.5q25 0 25 -25q0 -11 -5 -20 q-57 -86 -68 -196q0 -3 -0.5 -8t-1 -7.5t-1 -7t-1.5 -7t-2 -6.5t-2.5 -6t-3.5 -5t-4.5 -5.5t-5.5 -4.5q-20 -15 -48.5 -18t-39.5 10q-5 10 -2 38z" />
<glyph unicode="&#x201d;" horiz-adv-x="444" d="M225 648q-16 -115 -62 -191.5t-98 -76.5q-25 0 -25 25q0 11 5 20q57 86 68 196q0 3 0.5 8t1 7.5t1 7t1.5 7t2 6.5t2.5 6t3.5 5t4.5 5.5t5.5 4.5q20 15 48.5 18t39.5 -10q5 -10 2 -38zM407 648q-16 -115 -62 -191.5t-98 -76.5q-25 0 -25 25q0 11 5 20q57 86 68 196 q0 3 0.5 8t1 7.5t1 7t1.5 7t2 6.5t2.5 6t3.5 5t4.5 5.5t5.5 4.5q20 15 48.5 18t39.5 -10q5 -10 2 -38z" />
<glyph unicode="&#x201e;" horiz-adv-x="428" d="M184 145q-16 -115 -62 -191.5t-98 -76.5q-25 0 -25 25q0 11 5 20q57 86 68 196q0 3 0.5 8t1 7.5t1 7t1.5 7t2 6.5t2.5 6t3.5 5t4.5 5.5t5.5 4.5q20 15 48.5 18t39.5 -10q5 -10 2 -38zM366 145q-16 -115 -62 -191.5t-98 -76.5q-25 0 -25 25q0 11 5 20q57 86 68 196 q0 3 0.5 8t1 7.5t1 7t1.5 7t2 6.5t2.5 6t3.5 5t4.5 5.5t5.5 4.5q20 15 48.5 18t39.5 -10q5 -10 2 -38z" />
<glyph unicode="&#x2022;" horiz-adv-x="464" d="M72 238q0 66 47 110t113 44t113 -44t47 -110t-47 -110t-113 -44t-113 44t-47 110z" />
<glyph unicode="&#x2026;" horiz-adv-x="859" d="M50 75q0 36 25 59.5t61 23.5t61.5 -24t25.5 -59q0 -36 -25.5 -60t-61.5 -24t-61 24t-25 60zM343 75q0 36 25 59.5t61 23.5t61.5 -24t25.5 -59q0 -36 -25.5 -60t-61.5 -24t-61 24t-25 60zM636 75q0 36 25 59.5t61 23.5t61.5 -24t25.5 -59q0 -36 -25.5 -60t-61.5 -24 t-61 24t-25 60z" />
<glyph unicode="&#x202f;" horiz-adv-x="195" />
<glyph unicode="&#x2039;" horiz-adv-x="308" d="M162 40l-101 150q-18 26 -18 43q0 15 18 44l102 150q10 15 30.5 20t36.5 -3q16 -9 22.5 -28.5t-2.5 -37.5l-103 -145l102 -143q10 -17 4 -37t-23 -31q-17 -10 -37 -4.5t-31 22.5z" />
<glyph unicode="&#x203a;" horiz-adv-x="308" d="M247 190l-101 -150q-11 -17 -31 -22.5t-37 4.5q-17 11 -23 31t4 37l102 143l-103 145q-9 18 -2.5 37.5t22.5 28.5q16 8 36.5 3t30.5 -20l102 -150q18 -29 18 -44q0 -17 -18 -43z" />
<glyph unicode="&#x205f;" horiz-adv-x="243" />
<glyph unicode="&#x20ac;" horiz-adv-x="806" d="M489 559q-62 0 -110 -34t-71 -90h207q11 0 19.5 -9.5t8.5 -22.5t-8.5 -22t-19.5 -10h-447q-11 1 -19.5 10t-8.5 22t8.5 22.5t19.5 9.5h86q29 115 121 188.5t214 73.5q147 0 245 -95q19 -18 15.5 -49.5t-24.5 -50.5q-21 -18 -48 -18t-46 17q-61 58 -142 58zM489 129 q81 0 142 58q19 17 46 17t48 -18q21 -19 24.5 -50.5t-15.5 -49.5q-98 -95 -245 -95q-122 0 -214 73.5t-121 188.5h-86q-11 0 -19.5 9.5t-8.5 22.5t8.5 22t19.5 10h447q11 -1 19.5 -10t8.5 -22t-8.5 -22.5t-19.5 -9.5h-207q23 -56 71 -90t110 -34z" />
<glyph unicode="&#x2122;" horiz-adv-x="783" d="M327 614h-89v-248q0 -17 -11.5 -28t-30.5 -11q-16 0 -28.5 11.5t-12.5 27.5v248h-63q-14 0 -24.5 11t-10.5 26q0 16 10.5 27t24.5 11h285q26 0 38 -25l92 -195l92 195q11 25 39 25h7q15 0 26 -11t13 -26l34 -286q2 -14 -9.5 -27t-25.5 -14q-18 -2 -32 8t-15 26l-21 164 l-62 -128q-14 -33 -46 -33q-31 0 -46 33l-61 128l-20 -164q-2 -16 -14.5 -26t-29.5 -9q-16 1 -28.5 14t-10.5 28z" />
</font>
</defs>
</svg>
