<?xml version="1.0" standalone="no"?>
<!DOCTYPE svg PUBLIC "-//W3C//DTD SVG 1.1//EN" "http://www.w3.org/Graphics/SVG/1.1/DTD/svg11.dtd" >
<svg xmlns="http://www.w3.org/2000/svg">
<metadata></metadata>
<defs>
<font id="sofia_pro_softlight" horiz-adv-x="555" >
<font-face units-per-em="1000" ascent="750" descent="-250" />
<missing-glyph horiz-adv-x="266" />
<glyph unicode="&#xfb01;" horiz-adv-x="540" d="M378 641q0 21 15 34.5t36 13.5t36 -13.5t15 -34.5t-15 -34.5t-36 -13.5t-36 13.5t-15 34.5zM395 407h-214v-378q0 -14 -9.5 -24t-23.5 -10t-23.5 10t-9.5 24v378h-67q-13 0 -21.5 8.5t-8.5 21.5t8.5 21.5t21.5 8.5h67v54q0 199 162 199h10q14 0 23 -9t9 -23q0 -13 -9 -22 t-23 -9h-10q-32 0 -52.5 -12t-29.5 -33.5t-11.5 -42t-2.5 -48.5v-54h247q14 0 23.5 -10t9.5 -24v-404q0 -14 -9.5 -24t-23.5 -10t-23.5 10t-9.5 24v378z" />
<glyph unicode="&#xfb02;" horiz-adv-x="544" d="M115 407h-67q-13 0 -21.5 8.5t-8.5 21.5t8.5 21.5t21.5 8.5h67v66q0 93 38 140t144 47q55 0 90.5 -9t51 -26t20 -32.5t4.5 -38.5v-585q0 -14 -9.5 -24t-23.5 -10t-23.5 10t-9.5 24v599q0 28 -100 28q-70 0 -93 -31.5t-23 -93.5v-64h90q13 0 21.5 -8.5t8.5 -21.5 t-8.5 -21.5t-21.5 -8.5h-90v-378q0 -14 -9.5 -24t-23.5 -10t-23.5 10t-9.5 24v378z" />
<glyph unicode="&#xfb03;" horiz-adv-x="856" d="M695 641q0 21 15 34.5t36 13.5t36 -13.5t15 -34.5t-15 -34.5t-36 -13.5t-36 13.5t-15 34.5zM712 407h-243v-378q0 -14 -9.5 -24t-23.5 -10t-23.5 10t-9.5 24v378h-222v-378q0 -14 -9.5 -24t-23.5 -10t-23.5 10t-9.5 24v378h-67q-13 0 -21.5 8.5t-8.5 21.5t8.5 21.5 t21.5 8.5h67v54q0 199 162 199h33q14 0 23 -9t9 -23q0 -13 -9 -22t-23 -9h-33q-32 0 -52.5 -12t-29.5 -33.5t-11.5 -42t-2.5 -48.5v-54h222v54q0 199 162 199h12q14 0 23 -9t9 -23q0 -13 -9 -22t-23 -9h-12q-32 0 -52.5 -12t-29.5 -33.5t-11.5 -42t-2.5 -48.5v-54h276 q14 0 23.5 -10t9.5 -24v-404q0 -14 -9.5 -24t-23.5 -10t-23.5 10t-9.5 24v378z" />
<glyph unicode="&#xfb04;" horiz-adv-x="860" d="M181 521v-54h250v66q0 93 38 140t144 47q55 0 90.5 -9t51 -26t20 -32.5t4.5 -38.5v-585q0 -14 -9.5 -24t-23.5 -10t-23.5 10t-9.5 24v599q0 28 -100 28q-70 0 -93 -31.5t-23 -93.5v-64h90q13 0 21.5 -8.5t8.5 -21.5t-8.5 -21.5t-21.5 -8.5h-90v-378q0 -14 -9.5 -24 t-23.5 -10t-23.5 10t-9.5 24v378h-250v-378q0 -14 -9.5 -24t-23.5 -10t-23.5 10t-9.5 24v378h-67q-13 0 -21.5 8.5t-8.5 21.5t8.5 21.5t21.5 8.5h67v54q0 199 162 199h23q14 0 23 -9t9 -23q0 -13 -9 -22t-23 -9h-23q-32 0 -52.5 -12t-29.5 -33.5t-11.5 -42t-2.5 -48.5z" />
<glyph horiz-adv-x="0" />
<glyph horiz-adv-x="333" />
<glyph unicode=" "  horiz-adv-x="266" />
<glyph unicode="&#x09;" horiz-adv-x="266" />
<glyph unicode="&#xa0;" horiz-adv-x="266" />
<glyph unicode="!" horiz-adv-x="240" d="M65 42q0 22 16 37t39 15t39 -15t16 -37t-16 -37t-39 -15t-39 15t-16 37zM153 660l-6 -452q0 -12 -7.5 -20t-19.5 -8t-19.5 8t-7.5 20l-6 452q0 14 9.5 24t23.5 10t23.5 -10t9.5 -24z" />
<glyph unicode="&#x22;" horiz-adv-x="331" d="M137 663v-221q0 -13 -8.5 -22t-21.5 -9q-14 0 -23 9t-9 22v221q0 13 9 22t23 9q13 0 21.5 -9t8.5 -22zM256 663v-221q0 -13 -9 -22t-22 -9q-14 0 -22.5 9t-8.5 22v221q0 13 8.5 22t22.5 9q13 0 22 -9t9 -22z" />
<glyph unicode="#" horiz-adv-x="715" d="M539 513h110q12 0 20 -8t8 -20t-8 -19.5t-20 -7.5h-126l-62 -223h127q12 0 20 -8t8 -20t-8 -19.5t-20 -7.5h-142l-46 -165q-3 -11 -13 -17t-21 -3q-26 8 -18 35l41 150h-164l-46 -165q-3 -11 -13 -17t-21 -3q-26 8 -18 35l41 150h-102q-12 0 -20 7.5t-8 19.5t8 20t20 8 h118l62 223h-119q-12 0 -20 7.5t-8 19.5t8 20t20 8h134l45 161q7 26 34 19q10 -2 15.5 -12t3.5 -21l-41 -147h164l45 161q7 26 34 19q10 -2 15.5 -12t3.5 -21zM302 458l-62 -223h165l62 223h-165z" />
<glyph unicode="$" horiz-adv-x="548" d="M301 -8v-91q0 -13 -8.5 -20.5t-19.5 -7.5t-19.5 7.5t-8.5 20.5v90q-79 7 -132.5 58t-63.5 118q-2 14 6 25t21 13q14 1 24.5 -7.5t12.5 -22.5q9 -49 51.5 -84t104.5 -35q72 0 116 33.5t53 79.5q9 59 -28.5 95t-102.5 51l-93 21q-162 36 -162 173q0 75 56.5 127t136.5 60 v72q0 13 8.5 20.5t19.5 7.5t19.5 -7.5t8.5 -20.5v-73q72 -9 120.5 -51.5t59.5 -109.5q2 -14 -5.5 -25.5t-21.5 -13.5t-25 5.5t-13 23.5q-8 49 -49 78t-99 29q-59 0 -104.5 -34.5t-45.5 -87.5q0 -84 110 -109l94 -21q92 -21 143.5 -75.5t37.5 -146.5q-12 -62 -64.5 -109.5 t-137.5 -55.5z" />
<glyph unicode="%" horiz-adv-x="652" d="M38 536q0 56 38.5 95t94.5 39q55 0 94.5 -39t39.5 -95t-39 -94.5t-95 -38.5t-94.5 38.5t-38.5 94.5zM97 536q0 -32 21.5 -53t52.5 -21t53 21.5t22 52.5t-22 53t-53 22t-52.5 -22t-21.5 -53zM348 128q0 56 38.5 95t94.5 39q55 0 94.5 -39t39.5 -95t-39 -94.5t-95 -38.5 t-94.5 38.5t-38.5 94.5zM407 128q0 -32 21.5 -53t52.5 -21t53 21.5t22 52.5t-22 53t-53 22t-52.5 -22t-21.5 -53zM504 640l-307 -630q-5 -10 -15 -13.5t-20 1.5q-22 10 -11 35l306 630q5 10 15.5 13.5t19.5 -0.5q23 -10 12 -36z" />
<glyph unicode="&#x26;" horiz-adv-x="665" d="M439 365h-158q-67 0 -113 -46t-46 -109q0 -66 44 -110t114 -44q68 0 112.5 42t46.5 105v162zM379 592q-34 39 -91 39q-48 0 -79 -29t-31 -73t29.5 -74t75.5 -30h156v60q0 14 9 23.5t24 9.5q14 0 23 -9.5t9 -23.5v-61h67q13 0 21.5 -8.5t8.5 -21.5t-8.5 -21t-21.5 -8h-67 v-155q0 -71 19 -111t75 -45q13 -1 20.5 -12t5.5 -25q-4 -27 -37 -25q-46 2 -79 27.5t-46 63.5q-23 -42 -74 -67.5t-108 -25.5q-98 0 -161 63.5t-63 156.5q0 59 31.5 110t84.5 80q-60 49 -60 129q0 70 50.5 119t125.5 49q93 0 146 -70q16 -24 -11 -43q-23 -17 -44 8z" />
<glyph unicode="'" horiz-adv-x="212" d="M137 663v-221q0 -13 -8.5 -22t-21.5 -9q-14 0 -23 9t-9 22v221q0 13 9 22t23 9q13 0 21.5 -9t8.5 -22z" />
<glyph unicode="(" horiz-adv-x="284" d="M120 232q0 -107 29 -217.5t86 -194.5q8 -12 4.5 -25.5t-16.5 -20.5q-27 -15 -43 13q-63 92 -93.5 210t-30.5 235t30.5 235t93.5 210q16 28 43 13q13 -7 16.5 -20.5t-4.5 -25.5q-57 -84 -86 -194.5t-29 -217.5z" />
<glyph unicode=")" horiz-adv-x="284" d="M164 232q0 107 -29 217.5t-86 194.5q-8 12 -4.5 25.5t16.5 20.5q27 15 43 -13q63 -92 93.5 -210t30.5 -235t-30.5 -235t-93.5 -210q-16 -28 -43 -13q-13 7 -16.5 20.5t4.5 25.5q57 84 86 194.5t29 217.5z" />
<glyph unicode="*" horiz-adv-x="459" d="M265 502l77 -93q8 -10 7.5 -23t-10.5 -21q-10 -7 -24 -3.5t-21 14.5l-63 98l-64 -98q-8 -11 -21 -14.5t-24 3.5q-10 8 -10.5 21t7.5 23l79 92l-118 32q-12 4 -18 15.5t-2 22.5q11 26 43 13l106 -40l-7 114q-1 14 7 23.5t22 9.5q12 0 20.5 -10t7.5 -22l-7 -115l103 40 q33 13 44 -13q4 -11 -2.5 -23t-17.5 -15z" />
<glyph unicode="+" horiz-adv-x="512" d="M288 231v-144q0 -14 -9 -23.5t-23 -9.5t-23 9.5t-9 23.5v144h-144q-14 0 -23.5 9t-9.5 23t9.5 23t23.5 9h144v144q0 14 9 23.5t23 9.5t23 -9.5t9 -23.5v-144h144q14 0 23.5 -9t9.5 -23t-9.5 -23t-23.5 -9h-144z" />
<glyph unicode="," horiz-adv-x="224" d="M153 56q-9 -71 -50 -129t-67 -58q-8 0 -15.5 5t-7.5 12q0 5 7 17q1 2 11 18t13.5 21.5t11 21.5t10.5 27.5t6 29t3 35.5q0 20 11 31.5t27 11.5q17 0 28.5 -11t11.5 -27v-5z" />
<glyph unicode="-" horiz-adv-x="495" d="M391 202h-287q-14 0 -23 9t-9 23q0 13 9 22t23 9h287q14 0 23 -9t9 -22q0 -14 -9.5 -23t-22.5 -9z" />
<glyph unicode="." horiz-adv-x="244" d="M67 42q0 22 16 37t39 15t39 -15t16 -37t-16 -37t-39 -15t-39 15t-16 37z" />
<glyph unicode="/" horiz-adv-x="446" d="M40 40l311 637q13 26 41 14q12 -5 16 -17.5t-2 -24.5l-311 -637q-13 -26 -41 -14q-12 5 -16 17.5t2 24.5z" />
<glyph unicode="0" horiz-adv-x="603" d="M65 331q0 76 11 134t36.5 107t73 75t116.5 26q68 0 116 -26t73.5 -75t36 -107t10.5 -134t-10.5 -133.5t-36 -106.5t-73.5 -75t-116 -26t-116 26t-73.5 75t-36.5 107t-11 133zM131 331q0 -128 38 -201.5t133 -73.5q50 0 84.5 21t52.5 60.5t25.5 86t7.5 107.5 q0 129 -37.5 202.5t-132.5 73.5t-133 -73.5t-38 -202.5z" />
<glyph unicode="1" horiz-adv-x="315" d="M151 596l-82 -28q-11 -3 -21.5 2.5t-13.5 16.5q-6 27 21 36l111 40q18 7 26 7h1q10 0 17 -6.5t7 -16.5v-618q0 -14 -9.5 -24t-23.5 -10t-23.5 10t-9.5 24v567z" />
<glyph unicode="2" horiz-adv-x="519" d="M115 523q-4 -12 -16 -18t-25 -1q-13 4 -18 16t0 25q20 60 72.5 94t121.5 34q86 0 145 -53.5t59 -136.5q0 -88 -72 -170l-209 -247h253q14 0 24 -9.5t10 -23.5t-10 -23.5t-24 -9.5h-347q-21 0 -21 18q0 9 12 23l264 319q54 64 54 123q0 56 -39.5 90t-98.5 34 q-48 0 -85.5 -22.5t-49.5 -61.5z" />
<glyph unicode="3" horiz-adv-x="523" d="M110 119q39 -56 120 -62h-1q66 -4 115 31.5t52 95.5q1 63 -42 101.5t-107 38.5h-41q-14 0 -23 9t-9 22q0 14 9 23t23 9h41q50 0 85 31.5t37 76.5q2 47 -27.5 77.5t-87.5 34.5q-72 3 -114 -40q-24 -26 -45 -10q-12 8 -14 22t8 26q61 75 169 69q91 -7 138.5 -61t39.5 -128 q-3 -40 -28.5 -75t-65.5 -52q56 -13 91 -69t30 -115q-7 -87 -76 -138t-162 -45q-111 9 -170 93q-8 11 -5.5 26t14.5 22q25 15 46 -13z" />
<glyph unicode="4" horiz-adv-x="558" d="M116 203h236v338zM39 192l321 460q12 17 29 17q12 0 20.5 -8.5t8.5 -19.5v-438h74q13 0 22 -9t9 -22t-9 -21.5t-22 -8.5h-74v-113q0 -14 -9.5 -24t-23.5 -10t-23.5 10t-9.5 24v113h-297q-26 0 -26 23q0 14 10 27z" />
<glyph unicode="5" d="M114 144q24 -38 66.5 -61.5t86.5 -23.5q78 0 122.5 42.5t44.5 107.5q0 66 -46 104t-104 38q-45 0 -79 -9t-83 -33q-14 -8 -34 5q-15 11 -11 33l52 294q5 24 28 24h273q14 0 24 -9.5t10 -24.5q0 -14 -10 -23.5t-24 -9.5h-240l-40 -220q82 41 134 41q92 0 155.5 -56.5 t63.5 -153.5q0 -100 -64 -159.5t-172 -59.5q-64 0 -122 31.5t-88 85.5q-17 30 10 48q11 8 25 5t22 -16z" />
<glyph unicode="6" horiz-adv-x="550" d="M136 211q-1 -64 40.5 -108t102.5 -46t103.5 38.5t45.5 103.5q2 63 -37 107t-100 46q-62 2 -107.5 -38.5t-47.5 -102.5zM409 554q-33 48 -108 53q-88 3 -128 -71t-38 -188v-21q19 42 65.5 68t92.5 24q89 -4 147 -69.5t54 -153.5q-4 -90 -66.5 -150t-151.5 -56 q-87 4 -143 63.5t-64 160.5q-7 151 11 260q15 90 75.5 146t148.5 53q115 -5 162 -89q15 -27 -13 -42q-26 -13 -44 12z" />
<glyph unicode="7" horiz-adv-x="497" d="M468 617l-333 -604q-7 -13 -20 -17t-26 2t-16.5 20.5t3.5 27.5l305 553h-299q-14 0 -24 9.5t-10 23.5t10 23.5t24 9.5h367q26 0 26 -24q0 -10 -7 -24z" />
<glyph unicode="8" horiz-adv-x="563" d="M111 510q0 68 49 115.5t121 47.5q73 0 123 -47.5t50 -115.5q0 -76 -61 -124q52 -28 82.5 -77t30.5 -107q0 -89 -65 -150.5t-160 -61.5t-159.5 61.5t-64.5 150.5q0 58 30 107t82 77q-58 47 -58 124zM123 202q0 -61 45.5 -103.5t112.5 -42.5t113 42.5t46 103.5t-46 105 t-113 44h-7q-64 -2 -107.5 -46t-43.5 -103zM177 510q0 -40 28.5 -69t70.5 -30h9q44 1 73.5 30t29.5 69q0 41 -30.5 69t-76.5 28q-44 0 -74 -28t-30 -69z" />
<glyph unicode="9" horiz-adv-x="548" d="M412 451q1 65 -40 108.5t-102 45.5t-103.5 -38.5t-45.5 -103.5q-2 -63 37 -107t100 -46q62 -2 107 38.5t47 102.5zM140 108q33 -48 108 -53q88 -3 128 71t38 188v21q-19 -43 -63 -67.5t-99 -24.5q-87 0 -144 66.5t-53 156.5t66.5 150t151.5 56q87 -4 142.5 -63.5 t63.5 -160.5q8 -156 -10 -260q-15 -90 -75.5 -146t-148.5 -53q-115 5 -162 89q-15 27 13 42q26 13 44 -12z" />
<glyph unicode=":" horiz-adv-x="254" d="M72 42q0 22 16 37t39 15t39 -15t16 -37t-16 -37t-39 -15t-39 15t-16 37zM72 425q0 22 16 37t39 15t39 -15t16 -37t-16 -37t-39 -15t-39 15t-16 37z" />
<glyph unicode=";" horiz-adv-x="265" d="M82 425q0 22 16 37t39 15t39 -15t16 -37t-16 -37t-39 -15t-39 15t-16 37zM176 56q-9 -71 -50 -129t-67 -58q-8 0 -15.5 5t-7.5 12q0 5 7 17q1 2 11 18t13.5 21.5t11 21.5t10.5 27.5t6 29t3 35.5q0 20 11 31.5t27 11.5q17 0 28.5 -11t11.5 -27v-5z" />
<glyph unicode="&#x3c;" horiz-adv-x="637" d="M523 54l-452 173q-27 10 -27 42v3q0 32 27 42l452 173q13 5 26 -1t18 -19t-1 -25.5t-20 -17.5l-416 -153v-1l416 -153q14 -5 20 -17.5t1 -25.5t-18 -19t-26 -1z" />
<glyph unicode="=" horiz-adv-x="621" d="M513 322h-405q-14 0 -23 9t-9 23q0 13 9 22t23 9h405q14 0 23 -9t9 -22q0 -14 -9.5 -23t-22.5 -9zM513 117h-405q-14 0 -23 9.5t-9 22.5t9 22t23 9h405q14 0 23 -9t9 -22t-9.5 -22.5t-22.5 -9.5z" />
<glyph unicode="&#x3e;" horiz-adv-x="637" d="M566 227l-452 -173q-13 -5 -26 1t-18 19t1 25.5t20 17.5l416 153v1l-416 153q-14 5 -20 17.5t-1 25.5t18 19t26 1l452 -173q27 -10 27 -42v-3q0 -32 -27 -42z" />
<glyph unicode="?" horiz-adv-x="478" d="M108 527q-2 -14 -13 -22.5t-25 -6.5t-21.5 13.5t-5.5 25.5q12 72 65.5 115.5t126.5 43.5q83 0 143 -53.5t60 -139.5q0 -69 -40.5 -119t-102.5 -68q-44 -13 -65 -31.5t-21 -60.5v-10q0 -14 -9.5 -24t-23.5 -10t-23.5 10t-9.5 24v10q0 66 34 101t98 54q41 13 69 46t28 78 q0 56 -41 91.5t-96 35.5q-48 0 -84 -28t-43 -75zM121 42q0 22 16 37t39 15t39 -15t16 -37t-16 -37t-39 -15t-39 15t-16 37z" />
<glyph unicode="@" horiz-adv-x="1008" d="M568 85q-43 -26 -86 -26q-82 0 -140.5 58.5t-58.5 140.5t58.5 140.5t140.5 58.5q80 0 138 -55q58 -56 61 -135v-149q0 -74 80 -74q36 0 62.5 22.5t39.5 59.5t18.5 72.5t5.5 71.5q0 156 -116.5 261t-278.5 105q-158 0 -267 -112t-109 -272q0 -159 108.5 -269.5 t267.5 -110.5h3q13 0 22 -9t9 -22t-9 -21.5t-22 -8.5h-3q-184 0 -310.5 128t-126.5 313t126.5 315t310.5 130q122 0 226.5 -55t167.5 -153.5t63 -218.5q0 -48 -10 -95t-30.5 -91t-59 -71.5t-88.5 -27.5q-61 0 -101 32.5t-40 107.5v132v1q0 58 -40.5 98t-97.5 40t-97.5 -40 t-40.5 -98q0 -57 40.5 -97.5t97.5 -40.5q31 0 61 16q25 13 40 -12q13 -23 -15 -39z" />
<glyph unicode="A" horiz-adv-x="611" d="M442 243l-136 354l-136 -354h272zM351 663l239 -623q5 -13 -0.5 -25.5t-18.5 -17.5t-25.5 1t-17.5 19l-63 164h-319l-63 -164q-5 -13 -17.5 -19t-25.5 -1t-18.5 17.5t-0.5 25.5l239 623q11 31 43 31h5q32 0 43 -31z" />
<glyph unicode="B" horiz-adv-x="620" d="M372 0h-240q-14 0 -24 10t-10 24v621q0 13 10 23.5t24 10.5h217q83 0 131 -46t48 -125q0 -120 -84 -151q51 -9 86 -62t35 -112q0 -81 -52 -137t-141 -56zM165 396h192q51 0 78 35.5t27 86.5t-32.5 78.5t-87.5 27.5h-177v-228zM367 334h-202v-268h206q57 0 92.5 37.5 t35.5 89.5q0 51 -37.5 96t-94.5 45z" />
<glyph unicode="C" horiz-adv-x="659" d="M121 343q0 -121 75.5 -204t192.5 -83q101 0 178 64q10 10 23.5 9.5t23.5 -10.5q10 -11 8.5 -25.5t-12.5 -23.5q-100 -80 -221 -80q-145 0 -239.5 102t-94.5 251t94.5 251.5t239.5 102.5q121 0 221 -80q11 -9 12.5 -23.5t-8.5 -25.5q-10 -10 -23.5 -10.5t-23.5 9.5 q-77 64 -178 64q-117 0 -192.5 -83.5t-75.5 -204.5z" />
<glyph unicode="D" horiz-adv-x="720" d="M164 623v-557h193q115 0 177 76.5t62 200.5t-62 202t-177 78h-193zM357 0h-225q-14 0 -24 10t-10 24v621q0 13 10 23.5t24 10.5h225q142 0 223.5 -97t81.5 -249q0 -151 -81.5 -247t-223.5 -96z" />
<glyph unicode="E" horiz-adv-x="551" d="M421 305h-257v-239h309q14 0 24 -9.5t10 -23.5t-10 -23.5t-24 -9.5h-341q-14 0 -24 10t-10 24v621q0 13 10 23.5t24 10.5h330q14 0 24 -9.5t10 -23.5t-10 -23.5t-24 -9.5h-298v-252h257q14 0 24 -9.5t10 -23.5t-10 -23.5t-24 -9.5z" />
<glyph unicode="F" horiz-adv-x="523" d="M132 689h324q14 0 24 -9.5t10 -23.5t-10 -23.5t-24 -9.5h-292v-252h226q14 0 24 -9.5t10 -23.5t-10 -23.5t-24 -9.5h-226v-276q0 -14 -9.5 -24t-23.5 -10t-23.5 10t-9.5 24v626q0 13 10 23.5t24 10.5z" />
<glyph unicode="G" horiz-adv-x="751" d="M718 297q-10 -152 -93.5 -229.5t-224.5 -77.5q-146 0 -246 103t-100 250q0 148 100 251t246 103q107 0 194 -60q11 -9 12.5 -23.5t-8.5 -25.5q-20 -22 -47 -1q-68 44 -151 44q-118 0 -199 -84t-81 -204t80.5 -203.5t199.5 -83.5q105 0 170 55.5t79 164.5h-177 q-14 0 -23 9t-9 22t9 22t23 9h214q18 0 25 -9.5t7 -31.5z" />
<glyph unicode="H" horiz-adv-x="706" d="M608 660v-631q0 -14 -9.5 -24t-23.5 -10t-23.5 10t-9.5 24v282h-378v-282q0 -14 -9.5 -24t-23.5 -10t-23.5 10t-9.5 24v631q0 14 9.5 24t23.5 10t23.5 -10t9.5 -24v-287h378v287q0 14 9.5 24t23.5 10t23.5 -10t9.5 -24z" />
<glyph unicode="I" horiz-adv-x="262" d="M164 660v-631q0 -14 -9.5 -24t-23.5 -10t-23.5 10t-9.5 24v631q0 14 9.5 24t23.5 10t23.5 -10t9.5 -24z" />
<glyph unicode="J" horiz-adv-x="264" d="M-75 -228q-14 2 -23 14t-6 25q3 14 14.5 21t24.5 4q10 -2 25 -2q72 0 105.5 43t33.5 111v672q0 14 9.5 24t23.5 10t23.5 -10t9.5 -24v-672q0 -97 -49.5 -158t-155.5 -61q-17 0 -35 3z" />
<glyph unicode="K" horiz-adv-x="535" d="M464 6l-301 317v-294q0 -14 -9.5 -24t-23.5 -10t-23.5 10t-9.5 24v631q0 14 9.5 24t23.5 10t23.5 -10t9.5 -24v-306l253 326q20 25 44 9q11 -7 12.5 -20.5t-6.5 -24.5l-233 -300l277 -292q10 -10 10.5 -23.5t-9.5 -23.5t-23.5 -9.5t-23.5 10.5z" />
<glyph unicode="L" horiz-adv-x="479" d="M427 0h-295q-14 0 -24 10t-10 24v626q0 14 9.5 24t23.5 10t23.5 -10t9.5 -24v-594h263q14 0 24 -9.5t10 -23.5t-10 -23.5t-24 -9.5z" />
<glyph unicode="M" horiz-adv-x="955" d="M809 658l76 -626q2 -14 -6.5 -25t-21.5 -12q-14 -1 -24 7t-12 22l-67 547l-232 -472q-16 -35 -44 -35t-44 35l-233 472l-67 -547q-2 -14 -12 -22t-24 -7q-13 1 -21.5 12t-6.5 25l76 626q2 15 12 25.5t24 10.5h7q24 0 34 -20l255 -522l254 522q10 20 34 20h7 q14 0 24 -10.5t12 -25.5z" />
<glyph unicode="N" horiz-adv-x="681" d="M583 660v-632q0 -14 -10 -23.5t-24 -9.5h-9q-22 0 -34 19l-342 563v-548q0 -14 -9.5 -24t-23.5 -10t-23.5 10t-9.5 24v631q0 14 10.5 24t24.5 10h10q23 0 35 -20l339 -558v544q0 14 9.5 24t23.5 10t23.5 -10t9.5 -24z" />
<glyph unicode="O" horiz-adv-x="801" d="M54 343q0 148 100 251t246 103t246.5 -103t100.5 -251q0 -147 -100.5 -250t-246.5 -103t-246 103t-100 250zM120 343q0 -120 80.5 -203.5t199.5 -83.5t200 83.5t81 203.5t-81 204t-200 84q-118 0 -199 -84t-81 -204z" />
<glyph unicode="P" horiz-adv-x="601" d="M368 623h-204v-288h199q68 0 100.5 41t32.5 102t-32 103t-96 42zM164 269v-240q0 -14 -9.5 -24t-23.5 -10t-23.5 10t-9.5 24v626q0 13 10 23.5t24 10.5h236q98 0 146 -61t48 -150q0 -88 -48 -148.5t-146 -60.5h-204z" />
<glyph unicode="Q" horiz-adv-x="801" d="M54 343q0 148 100 251t246 103t246.5 -103t100.5 -251q0 -97 -46.5 -178.5t-125.5 -127.5l62 -97q7 -10 4.5 -23t-13.5 -20q-10 -6 -22.5 -3t-19.5 14l-66 103q-60 -21 -120 -21q-146 0 -246 103t-100 250zM120 343q0 -120 80.5 -203.5t199.5 -83.5q44 0 83 12l-67 106 q-7 10 -4 22.5t13 19.5q25 15 43 -10l72 -114q65 37 103 104t38 147q0 120 -81 204t-200 84q-118 0 -199 -84t-81 -204z" />
<glyph unicode="R" horiz-adv-x="603" d="M354 623h-190v-288h185q68 0 99 41t31 102t-30.5 103t-94.5 42zM362 269l155 -220q8 -11 7 -25t-12 -22q-13 -9 -26 -6.5t-21 13.5l-184 260h-117v-240q0 -14 -9.5 -24t-23.5 -10t-23.5 10t-9.5 24v626q0 13 10 23.5t24 10.5h222q98 0 144.5 -61t46.5 -150 q0 -87 -44.5 -146.5t-138.5 -62.5z" />
<glyph unicode="S" horiz-adv-x="565" d="M58 167q-2 14 6 25t21 13q14 1 24.5 -7.5t12.5 -22.5q9 -49 51.5 -84t104.5 -35q72 0 116 33.5t53 79.5q9 59 -28.5 95t-102.5 51l-93 21q-162 36 -162 173q0 81 65 134.5t151 53.5q83 0 142 -44.5t71 -118.5q2 -14 -5.5 -25.5t-21.5 -13.5t-25 5.5t-13 23.5 q-8 49 -49 78t-99 29q-59 0 -104.5 -34.5t-45.5 -87.5q0 -84 110 -109l94 -21q92 -21 143.5 -75.5t37.5 -146.5q-13 -67 -74 -117t-160 -50q-88 0 -148.5 52.5t-71.5 124.5z" />
<glyph unicode="T" horiz-adv-x="556" d="M503 623h-192v-594q0 -14 -9.5 -24t-23.5 -10t-23.5 10t-9.5 24v594h-192q-14 0 -24 9.5t-10 23.5t10 23.5t24 9.5h450q14 0 24 -9.5t10 -23.5t-10 -23.5t-24 -9.5z" />
<glyph unicode="U" horiz-adv-x="672" d="M580 660v-427q0 -108 -70.5 -175.5t-173.5 -67.5t-173.5 67.5t-70.5 175.5v427q0 14 9.5 24t23.5 10t23.5 -10t9.5 -24v-427q0 -79 51.5 -128t126.5 -49t126.5 49t51.5 128v427q0 14 9.5 24t23.5 10t23.5 -10t9.5 -24z" />
<glyph unicode="V" horiz-adv-x="532" d="M99 668l167 -560l167 560q10 31 39 26q13 -2 20.5 -14.5t3.5 -25.5l-188 -631q-8 -28 -40 -28h-3q-32 0 -40 28l-189 631q-4 13 3.5 25.5t20.5 14.5q29 5 39 -26z" />
<glyph unicode="W" horiz-adv-x="908" d="M99 670l187 -566l139 478q5 20 28 20h2q23 0 28 -20l139 -478l187 566q9 31 41 23q13 -4 20 -15.5t3 -25.5l-212 -626q-10 -31 -38 -31h-3q-30 0 -39 31l-127 436l-127 -436q-9 -31 -39 -31h-3q-28 0 -38 31l-212 626q-4 14 3 25.5t20 15.5q32 8 41 -23z" />
<glyph unicode="X" horiz-adv-x="568" d="M284 315l-194 -303q-8 -12 -21 -16t-25 3t-15 21.5t5 26.5l210 324l-182 271q-8 12 -5 26t15 21t25 3.5t21 -15.5l166 -249l166 249q8 12 21 15.5t25 -3.5t15 -21t-5 -26l-182 -271l210 -324q8 -12 5 -26.5t-15 -21.5t-25 -3t-21 16z" />
<glyph unicode="Y" horiz-adv-x="583" d="M553 643l-229 -323v-291q0 -14 -9.5 -24t-23.5 -10t-23.5 10t-9.5 24v291l-227 323q-19 28 8 45q12 8 25 5t21 -15l206 -286l208 286q8 12 21 15t25 -5q27 -17 8 -45z" />
<glyph unicode="Z" horiz-adv-x="559" d="M53 83l378 540h-344q-14 0 -24 9.5t-10 23.5t10 23.5t24 9.5h397q16 0 25 -9.5t9 -22.5v-3q0 -21 -18 -48l-379 -540h361q14 0 24 -9.5t10 -23.5t-10 -23.5t-24 -9.5h-413q-16 0 -26 10.5t-10 23.5v3q0 16 20 46z" />
<glyph unicode="[" horiz-adv-x="296" d="M224 -226h-100q-14 0 -24 10t-10 24v847q0 13 10 23.5t24 10.5h100q15 0 25 -9.5t10 -24.5q0 -14 -10.5 -23.5t-24.5 -9.5h-67v-781h67q15 0 25 -9.5t10 -24.5q0 -14 -10.5 -23.5t-24.5 -9.5z" />
<glyph unicode="\" horiz-adv-x="446" d="M95 677l311 -637q6 -12 2 -24.5t-16 -17.5q-28 -12 -41 14l-311 637q-6 12 -2 24.5t16 17.5q28 12 41 -14z" />
<glyph unicode="]" horiz-adv-x="296" d="M171 -226h-100q-14 0 -24.5 9.5t-10.5 23.5q0 15 10 24.5t25 9.5h67v781h-67q-14 0 -24.5 9.5t-10.5 23.5q0 15 10 24.5t25 9.5h100q13 0 23.5 -10.5t10.5 -23.5v-847q0 -14 -10.5 -24t-23.5 -10z" />
<glyph unicode="_" horiz-adv-x="698" d="M98 -59h503q14 0 23 -9t9 -22q0 -14 -9.5 -23t-22.5 -9h-503q-14 0 -23 9t-9 23q0 13 9 22t23 9z" />
<glyph unicode="`" horiz-adv-x="458" d="M215 564l-61 78q-10 13 -10 25q0 9 15 15.5t32 6.5q20 0 30 -20l51 -95q5 -10 5 -15q0 -16 -19 -16q-27 0 -43 21z" />
<glyph unicode="a" horiz-adv-x="609" d="M116 235q0 -77 49.5 -127.5t122.5 -50.5q75 0 125.5 47.5t50.5 130.5q0 81 -53.5 128t-122.5 47q-74 0 -123 -48t-49 -127zM530 438v-409q0 -14 -9.5 -24t-23.5 -10t-23.5 10t-9.5 24v51q-25 -43 -74 -66.5t-102 -23.5q-102 0 -170.5 68t-68.5 177t68.5 175.5t170.5 66.5 q54 0 102.5 -22.5t73.5 -64.5v48q0 14 9.5 24t23.5 10t23.5 -10t9.5 -24z" />
<glyph unicode="b" horiz-adv-x="610" d="M494 235q0 79 -49 127t-123 48q-69 0 -122.5 -47t-53.5 -128q0 -83 50.5 -130.5t125.5 -47.5q73 0 122.5 50.5t49.5 127.5zM146 80v-51q0 -14 -9.5 -24t-23.5 -10t-23.5 10t-9.5 24v662q0 14 9.5 24t23.5 10t23.5 -10t9.5 -24v-301q25 42 73.5 64.5t102.5 22.5 q102 0 170.5 -66.5t68.5 -175.5t-68.5 -177t-170.5 -68q-53 0 -102 23.5t-74 66.5z" />
<glyph unicode="c" horiz-adv-x="493" d="M115 234q0 -79 51.5 -128.5t126.5 -49.5q50 0 105 32q12 7 25.5 5t21.5 -14t5 -25t-15 -21q-64 -43 -142 -43q-102 0 -173 68t-71 176t70.5 175.5t173.5 67.5q78 0 142 -43q12 -8 15 -21t-5 -25t-21.5 -14t-25.5 5q-55 32 -105 32q-75 0 -126.5 -49t-51.5 -128z" />
<glyph unicode="d" horiz-adv-x="610" d="M116 235q0 -77 49.5 -127.5t122.5 -50.5q75 0 125.5 47.5t50.5 130.5q0 81 -53.5 128t-122.5 47q-74 0 -123 -48t-49 -127zM464 29v51q-25 -43 -74 -66.5t-102 -23.5q-102 0 -170.5 68t-68.5 177t68.5 175.5t170.5 66.5q54 0 102.5 -22.5t73.5 -64.5v301q0 14 9.5 24 t23.5 10t23.5 -10t9.5 -24v-662q0 -14 -9.5 -24t-23.5 -10t-23.5 10t-9.5 24z" />
<glyph unicode="e" d="M118 266h329q-10 67 -53.5 106t-107.5 39q-66 0 -112 -39.5t-56 -105.5zM478 86q-31 -46 -82 -71t-110 -25q-101 0 -168.5 68t-67.5 177t67 175.5t169 66.5q101 0 165 -66t64 -176q0 -13 -9.5 -22t-21.5 -9h-366q9 -67 55.5 -107.5t112.5 -40.5q82 0 136 64q23 28 46 12 q12 -7 15 -20.5t-5 -25.5z" />
<glyph unicode="f" horiz-adv-x="316" d="M271 407h-90v-378q0 -14 -9.5 -24t-23.5 -10t-23.5 10t-9.5 24v378h-67q-13 0 -21.5 8.5t-8.5 21.5t8.5 21.5t21.5 8.5h67v54q0 199 162 199h23q14 0 23 -9t9 -23q0 -13 -9 -22t-23 -9h-23q-32 0 -52.5 -12t-29.5 -33.5t-11.5 -42t-2.5 -48.5v-54h90q13 0 21.5 -8.5 t8.5 -21.5t-8.5 -21.5t-21.5 -8.5z" />
<glyph unicode="g" horiz-adv-x="610" d="M116 232q0 -79 49 -127t123 -48q69 0 122.5 47t53.5 128q0 83 -50.5 130.5t-125.5 47.5q-73 0 -122.5 -50.5t-49.5 -127.5zM97 -140q-8 12 -5 25t15 21q25 17 46 -11q49 -60 128 -60q87 0 135.5 58t47.5 194q-22 -44 -72.5 -70.5t-103.5 -26.5q-102 0 -170.5 66.5 t-68.5 175.5t68.5 177t170.5 68q53 0 102 -23.5t74 -66.5v51q0 14 9.5 24t23.5 10t23.5 -10t9.5 -24v-362q0 -307 -249 -307q-122 0 -184 91z" />
<glyph unicode="h" horiz-adv-x="557" d="M416 29v243q0 65 -30 102t-84 37q-63 0 -109 -38.5t-46 -117.5v-226q0 -14 -9.5 -24t-23.5 -10t-23.5 10t-9.5 24v662q0 14 9.5 24t23.5 10t23.5 -10t9.5 -24v-301q20 43 65 65t90 22q85 0 133 -54.5t47 -150.5v-243q0 -14 -9.5 -24t-23.5 -10t-23.5 10t-9.5 24z" />
<glyph unicode="i" horiz-adv-x="224" d="M62 641q0 21 15 34.5t36 13.5t36 -13.5t15 -34.5t-15 -34.5t-36 -13.5t-36 13.5t-15 34.5zM145 29v409q0 14 -9.5 24t-23.5 10t-23.5 -10t-9.5 -24v-409q0 -14 9.5 -24t23.5 -10t23.5 10t9.5 24z" />
<glyph unicode="j" horiz-adv-x="226" d="M63 641q0 21 15 34.5t36 13.5t36 -13.5t15 -34.5t-15 -34.5t-36 -13.5t-36 13.5t-15 34.5zM-16 -226h-23q-13 0 -22.5 9.5t-9.5 22.5t9.5 22.5t22.5 9.5h23q32 0 52.5 11.5t29.5 33.5t11.5 42t2.5 48v465q0 14 9.5 24t23.5 10t23.5 -10t9.5 -24v-465q0 -199 -162 -199z " />
<glyph unicode="k" horiz-adv-x="459" d="M226 267l204 -215q9 -9 9 -23.5t-10 -23.5q-23 -23 -47 2l-235 248v-226q0 -14 -9.5 -24t-23.5 -10t-23.5 10t-9.5 24v662q0 14 9.5 24t23.5 10t23.5 -10t9.5 -24v-409l181 180q23 24 47 5q11 -9 12.5 -22.5t-8.5 -24.5z" />
<glyph unicode="l" horiz-adv-x="228" d="M147 691v-662q0 -14 -9.5 -24t-23.5 -10t-23.5 10t-9.5 24v662q0 14 9.5 24t23.5 10t23.5 -10t9.5 -24z" />
<glyph unicode="m" horiz-adv-x="890" d="M145 438v-48q20 41 68 64t87 23q120 0 162 -102q49 102 173 102q85 0 133 -54.5t47 -150.5v-243q0 -14 -9.5 -24t-23.5 -10t-23.5 10t-9.5 24v243q0 65 -30 102t-84 37q-63 0 -109 -38.5t-46 -117.5v-226q0 -14 -9.5 -24t-23.5 -10t-23.5 10t-9.5 24v243q0 65 -30 102 t-84 37q-63 0 -109 -38.5t-46 -117.5v-226q0 -14 -9.5 -24t-23.5 -10t-23 10t-9 24v409q0 14 9 24t23 10t23.5 -10t9.5 -24z" />
<glyph unicode="n" horiz-adv-x="556" d="M146 255v-226q0 -14 -9.5 -24t-23.5 -10t-23.5 10t-9.5 24v409q0 14 9.5 24t23.5 10t23.5 -10t9.5 -24v-48q20 43 65 65t90 22q85 0 133 -54.5t47 -150.5v-243q0 -14 -9.5 -24t-23.5 -10t-23.5 10t-9.5 24v243q0 65 -30 102t-84 37q-63 0 -109 -38.5t-46 -117.5z" />
<glyph unicode="o" horiz-adv-x="586" d="M293 -10q-102 0 -173 68t-71 177q0 108 70.5 175t173.5 67t173.5 -67t70.5 -175q0 -109 -71 -177t-173 -68zM293 56q75 0 126.5 50t51.5 129t-51.5 127.5t-126.5 48.5t-126.5 -48.5t-51.5 -127.5t51.5 -129t126.5 -50z" />
<glyph unicode="p" horiz-adv-x="611" d="M495 231q0 77 -49.5 128t-122.5 51q-75 0 -125.5 -48t-50.5 -131q0 -81 53.5 -127.5t122.5 -46.5q74 0 123 47.5t49 126.5zM147 76v-273q0 -14 -9.5 -24t-23.5 -10t-23.5 10t-9.5 24v635q0 14 9.5 24t23.5 10t23.5 -10t9.5 -24v-52q25 43 74 67t102 24q102 0 170.5 -68.5 t68.5 -177.5t-68.5 -175t-170.5 -66q-54 0 -102.5 22t-73.5 64z" />
<glyph unicode="q" horiz-adv-x="611" d="M116 231q0 -79 49 -126.5t123 -47.5q69 0 122.5 46.5t53.5 127.5q0 83 -50.5 131t-125.5 48q-73 0 -122.5 -51t-49.5 -128zM464 -197v273q-25 -42 -73.5 -64t-102.5 -22q-102 0 -170.5 66t-68.5 175t68.5 177.5t170.5 68.5q53 0 102 -24t74 -67v52q0 14 9.5 24t23.5 10 t23.5 -10t9.5 -24v-635q0 -14 -9.5 -24t-23.5 -10t-23.5 10t-9.5 24z" />
<glyph unicode="r" horiz-adv-x="372" d="M315 406q-26 4 -35 4q-67 0 -100.5 -67.5t-33.5 -168.5v-145q0 -14 -9.5 -24t-23.5 -10t-23.5 10t-9.5 24v409q0 14 9.5 24t23.5 10t23.5 -10t9.5 -24v-77q33 116 134 116q32 0 57 -9q14 -4 19.5 -16.5t1.5 -25.5q-9 -26 -43 -20z" />
<glyph unicode="s" horiz-adv-x="420" d="M48 99q-4 13 2.5 24.5t19.5 14.5q27 6 38 -25q24 -60 103 -60q45 0 72 20.5t27 53.5q0 56 -67 72l-65 15q-26 6 -45 14.5t-39.5 25t-29 45t-4.5 67.5q7 49 50.5 80t101.5 31q105 0 138 -84q5 -13 -2 -25t-20 -16q-24 -7 -41 23q-21 38 -75 38q-34 0 -58.5 -16t-28.5 -41 q-11 -59 69 -78l64 -15q118 -28 118 -136q0 -60 -49 -98.5t-122 -38.5q-53 0 -97.5 29.5t-59.5 79.5z" />
<glyph unicode="t" horiz-adv-x="297" d="M176 467h73q13 0 22 -8.5t9 -21.5t-9 -21.5t-22 -8.5h-73v-378q0 -14 -9.5 -24t-23.5 -10t-23.5 10t-9.5 24v378h-59q-13 0 -22 8.5t-9 21.5t9 21.5t22 8.5h59v146q0 14 9.5 24t23.5 10t23.5 -10t9.5 -24v-146z" />
<glyph unicode="u" d="M410 212v226q0 14 9.5 24t23.5 10t23.5 -10t9.5 -24v-409q0 -14 -9.5 -24t-23.5 -10t-23.5 10t-9.5 24v48q-20 -43 -65 -65t-90 -22q-85 0 -133 54.5t-47 150.5v243q0 14 9.5 24t23.5 10t23.5 -10t9.5 -24v-243q0 -65 30 -102t84 -37q63 0 109 38.5t46 117.5z" />
<glyph unicode="v" horiz-adv-x="494" d="M245 -5q-31 0 -46 36l-164 395q-5 13 -0.5 26.5t17.5 17.5q14 5 26 -0.5t17 -18.5l152 -373l152 373q5 13 17 18.5t26 0.5q13 -4 17.5 -17.5t-0.5 -26.5l-164 -395q-15 -36 -46 -36h-4z" />
<glyph unicode="w" horiz-adv-x="794" d="M97 448l129 -342l123 332q13 34 45 34h5q31 0 44 -34l124 -332l128 342q9 30 41 23q13 -3 19.5 -15.5t1.5 -26.5l-151 -405q-11 -29 -37 -29h-2q-25 0 -36 29l-135 351l-131 -351q-11 -29 -36 -29h-2q-26 0 -37 29l-155 405q-5 14 1.5 26.5t19.5 15.5q32 7 41 -23z" />
<glyph unicode="x" horiz-adv-x="455" d="M366 10l-139 191l-139 -191q-8 -12 -21.5 -14.5t-24.5 4.5q-12 7 -13.5 21t6.5 26l152 210l-117 162q-8 12 -6.5 26t13.5 21q12 8 25.5 5.5t21.5 -14.5l103 -144l104 144q8 12 21.5 14.5t25.5 -5.5q12 -7 13.5 -21t-6.5 -26l-117 -162l152 -210q8 -12 6.5 -26t-13.5 -21 q-27 -16 -47 10z" />
<glyph unicode="y" horiz-adv-x="495" d="M461 428l-266 -636q-12 -30 -42 -22q-13 4 -18.5 17t-0.5 27l77 187l-176 427q-5 13 1.5 26.5t20.5 16.5q29 7 42 -26l148 -358l150 358q13 33 42 26q13 -3 20 -16t2 -27z" />
<glyph unicode="z" horiz-adv-x="497" d="M53 72l300 329h-264q-14 0 -24 9.5t-10 23.5t10 23.5t24 9.5h325q16 0 27.5 -9.5t11.5 -23.5v-1q0 -20 -17 -38l-303 -329h286q14 0 24 -9.5t10 -23.5t-10 -23.5t-24 -9.5h-344q-16 0 -27.5 9.5t-11.5 23.5v1q0 20 17 38z" />
<glyph unicode="{" horiz-adv-x="367" d="M173 154v-187q0 -57 37.5 -94.5t91.5 -37.5h3q13 0 22 -9t9 -22t-9 -21.5t-22 -8.5h-3q-82 0 -138.5 53.5t-56.5 139.5v187q0 17 -10 33t-27 16q-32 3 -32 32q0 30 32 31q17 0 27 16t10 33v189q-1 86 56 139.5t139 53.5h3q13 0 22 -9t9 -22t-9 -21.5t-22 -8.5h-3 q-54 0 -91.5 -37.5t-37.5 -94.5v-189q0 -25 -18 -50t-54 -30q36 -5 54 -30.5t18 -50.5z" />
<glyph unicode="|" horiz-adv-x="238" d="M147 768v-867q0 -13 -8.5 -20.5t-19.5 -7.5t-19.5 7.5t-8.5 20.5v867q0 13 8.5 20.5t19.5 7.5t19.5 -7.5t8.5 -20.5z" />
<glyph unicode="}" horiz-adv-x="368" d="M194 -33v187q0 25 18 50.5t54 30.5q-36 5 -54 30t-18 50v189q0 57 -37.5 94.5t-91.5 37.5h-3q-13 0 -22 8.5t-9 21.5t9 22t22 9h3q82 0 139 -53.5t56 -139.5v-189q0 -17 10 -33t27 -16q32 -1 32 -31q0 -29 -32 -32q-17 0 -27 -16t-10 -33v-187q0 -86 -56.5 -139.5 t-138.5 -53.5h-3q-13 0 -22 8.5t-9 21.5t9 22t22 9h3q54 0 91.5 37.5t37.5 94.5z" />
<glyph unicode="&#xa1;" horiz-adv-x="228" d="M59 420q0 22 16 37t39 15t39 -15t16 -37t-16 -37t-39 -15t-39 15t-16 37zM147 -197l-6 452q0 12 -7.5 20t-19.5 8t-19.5 -8t-7.5 -20l-6 -452q0 -14 9.5 -24t23.5 -10t23.5 10t9.5 24z" />
<glyph unicode="&#xa2;" horiz-adv-x="509" d="M310 -9v-90q0 -13 -8.5 -20.5t-19.5 -7.5t-19.5 7.5t-8.5 20.5v92q-89 12 -148 77.5t-59 163.5t58.5 163t148.5 77v81q0 13 8.5 20.5t19.5 7.5t19.5 -7.5t8.5 -20.5v-79q66 -4 123 -42q12 -8 15 -21t-5 -25t-21.5 -14t-25.5 5q-55 32 -105 32q-75 0 -126.5 -49 t-51.5 -128t51.5 -128.5t126.5 -49.5q50 0 105 32q12 7 25.5 5t21.5 -14t5 -25t-15 -21q-55 -37 -123 -42z" />
<glyph unicode="&#xa3;" horiz-adv-x="632" d="M145 276h-56q-13 0 -21.5 8.5t-8.5 21.5t8.5 21.5t21.5 8.5h56v173q0 86 60 139.5t143 53.5q73 0 127 -43.5t65 -115.5q2 -14 -6 -25.5t-23 -14.5q-13 -2 -23 5.5t-13 24.5q-7 47 -43 75t-84 28q-55 0 -96 -35.5t-41 -91.5v-173h137q13 0 21.5 -8.5t8.5 -21.5t-8.5 -21.5 t-21.5 -8.5h-137v-210h285q9 0 15 7t6 18v31q0 14 9.5 23.5t23.5 9.5t23.5 -9.5t9.5 -23.5v-31q0 -39 -25.5 -65t-61.5 -26h-421q-14 0 -23.5 9.5t-9.5 23.5t9.5 23.5t23.5 9.5h70v210z" />
<glyph unicode="&#xa4;" horiz-adv-x="598" d="M299 153q-64 0 -115 38l-60 -60q-18 -18 -37 0q-19 21 -1 39l59 60q-39 50 -39 116q0 63 39 115l-60 61q-17 19 1 39q19 18 37 0l60 -61q51 39 116 39t116 -39l60 61q18 18 37 0q18 -20 1 -39l-60 -61q39 -52 39 -115q0 -66 -39 -116l59 -60q18 -18 -1 -39q-19 -18 -37 0 l-60 60q-51 -38 -115 -38zM299 478q-55 0 -93.5 -38.5t-38.5 -93.5t38.5 -93.5t93.5 -38.5t93.5 38.5t38.5 93.5t-38.5 93.5t-93.5 38.5z" />
<glyph unicode="&#xa5;" horiz-adv-x="607" d="M270 106h-134q-11 0 -19 7.5t-8 18.5q0 12 8 19.5t19 7.5h134v63h-134q-11 0 -19 7.5t-8 18.5q0 12 8 19.5t19 7.5h134v45l-227 323q-19 28 8 45q12 8 25 5t21 -15l206 -286l208 286q8 12 21 15t25 -5q27 -17 8 -45l-229 -323v-45h133q11 0 19 -7.5t8 -19.5 q0 -11 -8 -18.5t-19 -7.5h-133v-63h133q11 0 19 -7.5t8 -19.5q0 -11 -8 -18.5t-19 -7.5h-133v-77q0 -14 -9.5 -24t-23.5 -10t-23.5 10t-9.5 24v77z" />
<glyph unicode="&#xa6;" horiz-adv-x="234" d="M145 768v-331q0 -13 -8.5 -20.5t-19.5 -7.5t-19.5 7.5t-8.5 20.5v331q0 13 8.5 20.5t19.5 7.5t19.5 -7.5t8.5 -20.5zM145 231v-331q0 -13 -8.5 -20.5t-19.5 -7.5t-19.5 7.5t-8.5 20.5v331q0 13 8.5 20.5t19.5 7.5t19.5 -7.5t8.5 -20.5z" />
<glyph unicode="&#xa7;" horiz-adv-x="512" d="M127 504v-133q0 -57 37.5 -91.5t91.5 -34.5q31 0 53 7q30 10 40 -20q4 -12 -2 -24.5t-19 -16.5q-34 -12 -72 -12q-82 0 -138.5 53t-56.5 139v133q0 86 56.5 139.5t138.5 53.5q55 0 100 -24t68 -67q7 -13 3 -25.5t-17 -19.5q-26 -14 -45 15q-36 55 -109 55 q-54 0 -91.5 -35t-37.5 -92zM385 117v133q0 57 -37.5 91.5t-91.5 34.5q-31 0 -53 -7q-30 -10 -40 20q-4 12 2 24.5t19 16.5q34 12 72 12q82 0 138.5 -53t56.5 -139v-133q0 -86 -56.5 -139.5t-138.5 -53.5q-55 0 -100 24t-68 67q-7 13 -3 25.5t17 19.5q26 14 45 -15 q36 -55 109 -55q54 0 91.5 35t37.5 92z" />
<glyph unicode="&#xa8;" horiz-adv-x="519" d="M120 611q0 21 15 34.5t36 13.5t36 -13.5t15 -34.5t-15 -34.5t-36 -13.5t-36 13.5t-15 34.5zM297 611q0 21 15 34.5t36 13.5t36 -13.5t15 -34.5t-15 -34.5t-36 -13.5t-36 13.5t-15 34.5z" />
<glyph unicode="&#xa9;" horiz-adv-x="813" d="M290 340q0 55 34.5 93t87.5 38q43 0 82 -29q7 -6 17 -6t16 7q7 8 6.5 18t-8.5 17q-50 40 -113 40q-73 0 -121 -52t-48 -126q0 -75 48 -126.5t121 -51.5q67 0 113 40q7 6 8 16t-6 18q-13 15 -33 2q-39 -29 -82 -29q-53 0 -87.5 38t-34.5 93zM57 343q0 147 101.5 250.5 t247.5 103.5t248 -103.5t102 -250.5t-102 -250t-248 -103t-247.5 103t-101.5 250zM113 343q0 -123 85 -209.5t208 -86.5t208 86.5t85 209.5t-85 210t-208 87t-208 -87t-85 -210z" />
<glyph unicode="&#xaa;" horiz-adv-x="469" d="M122 503q0 -48 30.5 -79.5t76.5 -31.5t78 30t32 81t-33.5 80t-76.5 29q-47 0 -77 -30t-30 -79zM387 633v-262q0 -25 -25 -25q-10 0 -16.5 7t-6.5 18v22q-39 -50 -110 -50q-67 0 -112 44.5t-45 115.5t45 115t112 44q78 0 110 -49v20q0 11 6.5 18.5t16.5 7.5q11 0 18 -7.5 t7 -18.5zM108 285h254q11 0 18 -7t7 -17q0 -11 -7 -18.5t-18 -7.5h-254q-11 0 -18 7.5t-7 18.5q0 10 7 17t18 7z" />
<glyph unicode="&#xab;" horiz-adv-x="451" d="M117 234l113 -164q6 -11 2.5 -23.5t-14.5 -19.5q-11 -6 -23.5 -3t-18.5 14l-111 165q-14 22 -14 31t14 31l111 165q6 11 18.5 14t23.5 -3q11 -7 14.5 -19.5t-2.5 -23.5zM273 234l113 -164q6 -11 2.5 -23.5t-14.5 -19.5q-11 -6 -23.5 -3t-18.5 14l-111 165q-14 22 -14 31 t14 31l111 165q6 11 18.5 14t23.5 -3q11 -7 14.5 -19.5t-2.5 -23.5z" />
<glyph unicode="&#xac;" horiz-adv-x="649" d="M571 320v-167q0 -14 -9 -23t-22 -9q-14 0 -23 9.5t-9 22.5v136h-400q-14 0 -23 9.5t-9 22.5t9 22t23 9h432q13 0 22 -9t9 -23z" />
<glyph unicode="&#xad;" horiz-adv-x="495" d="M391 202h-287q-14 0 -23 9t-9 23q0 13 9 22t23 9h287q14 0 23 -9t9 -22q0 -14 -9.5 -23t-22.5 -9z" />
<glyph unicode="&#xae;" horiz-adv-x="813" d="M347 467h84q27 0 39.5 -18t12.5 -44q0 -62 -55 -62h-81v124zM516 202l-67 95q81 9 81 108q0 46 -24 78t-75 32h-108q-9 0 -16.5 -7.5t-7.5 -17.5v-302q0 -10 6.5 -17.5t16.5 -7.5q11 0 18 7.5t7 17.5v108h43l87 -123q13 -18 34 -5q9 5 10 16t-5 18zM57 343 q0 147 101.5 250.5t247.5 103.5t248 -103.5t102 -250.5t-102 -250t-248 -103t-247.5 103t-101.5 250zM113 343q0 -123 85 -209.5t208 -86.5t208 86.5t85 209.5t-85 210t-208 87t-208 -87t-85 -210z" />
<glyph unicode="&#xaf;" horiz-adv-x="478" d="M148 644h182q14 0 23.5 -9.5t9.5 -22.5q0 -14 -9.5 -23t-23.5 -9h-182q-14 0 -23.5 9t-9.5 23q0 13 9.5 22.5t23.5 9.5z" />
<glyph unicode="&#xb0;" horiz-adv-x="362" d="M56 572q0 52 36.5 88.5t88.5 36.5t88.5 -36.5t36.5 -88.5t-36.5 -88.5t-88.5 -36.5t-88.5 36.5t-36.5 88.5zM107 572q0 -31 21.5 -52.5t52.5 -21.5t52.5 21.5t21.5 52.5t-21.5 52.5t-52.5 21.5t-52.5 -21.5t-21.5 -52.5z" />
<glyph unicode="&#xb1;" horiz-adv-x="549" d="M306 273v-124q0 -14 -9 -23.5t-23 -9.5t-23 9.5t-9 23.5v124h-144q-14 0 -23.5 9t-9.5 23t9.5 23t23.5 9h144v124q0 14 9 23.5t23 9.5t23 -9.5t9 -23.5v-124h144q14 0 23.5 -9t9.5 -23t-9.5 -23t-23.5 -9h-144zM451 0h-353q-14 0 -23 9t-9 23q0 13 9 22t23 9h353 q14 0 23 -9t9 -22q0 -14 -9.5 -23t-22.5 -9z" />
<glyph unicode="&#xb2;" horiz-adv-x="319" d="M88 749q-3 -11 -13 -15.5t-22 -0.5q-10 3 -15 13t-1 21q13 37 44 57.5t73 20.5q52 0 87.5 -32.5t35.5 -83.5q0 -50 -43 -100q-17 -20 -51 -60.5t-53 -62.5h123q11 0 19.5 -8.5t8.5 -19.5q0 -12 -8 -19.5t-20 -7.5h-194q-20 0 -20 19q0 8 7 17l149 180q28 33 28 62 q0 28 -20 44.5t-49 16.5q-23 0 -41.5 -11t-24.5 -30z" />
<glyph unicode="&#xb3;" horiz-adv-x="318" d="M82 533q18 -28 60 -31q33 -2 57 15.5t25 47.5q1 31 -20.5 50t-53.5 19h-23q-11 0 -18.5 7t-7.5 19q0 11 7.5 18.5t18.5 7.5h23q25 0 41.5 15t18.5 38q1 22 -14.5 37t-42.5 16q-36 0 -57 -19q-20 -18 -35 -7q-9 7 -11.5 18t5.5 21q37 45 101 42q55 -4 84 -37t25 -79 q-2 -20 -15.5 -39t-34.5 -29q29 -9 47.5 -41t16.5 -64q-3 -52 -44.5 -83t-97.5 -27q-63 4 -100 55q-7 9 -5 21.5t12 17.5q23 14 38 -9z" />
<glyph unicode="&#xb4;" horiz-adv-x="458" d="M267 642l-61 -78q-16 -21 -43 -21q-19 0 -19 16q0 5 5 15l51 95q10 20 30 20q17 0 32 -6.5t15 -15.5q0 -12 -10 -25z" />
<glyph unicode="&#xb5;" horiz-adv-x="577" d="M155 26v-160q0 -14 -9.5 -24t-23.5 -10t-23.5 10t-9.5 24v319v253q0 14 9.5 24t23.5 10t23.5 -10t9.5 -24v-250q2 -62 32 -97t82 -35q63 0 109 38.5t46 117.5v226q0 14 9.5 24t23.5 10t23.5 -10t9.5 -24v-409q0 -14 -9.5 -24t-23.5 -10t-23.5 10t-9.5 24v48 q-20 -43 -65 -65t-90 -22q-69 0 -114 36z" />
<glyph unicode="&#xb6;" horiz-adv-x="611" d="M396 689h46q55 0 94 -39t39 -94v-50q0 -14 -9.5 -24t-23.5 -10t-23.5 10t-9.5 24v50q0 28 -19.5 47.5t-47.5 19.5v-666q0 -130 -133 -134h-29q-13 0 -22 8.5t-9 21.5t9 21.5t22 8.5h29q67 0 67 80v706q0 8 6 14t14 6zM320 669v-699q0 -14 -9.5 -24t-23.5 -10t-23.5 10 t-9.5 24v287q-90 0 -153 63t-63 153q0 89 63 152.5t153 63.5h46q8 0 14 -6t6 -14z" />
<glyph unicode="&#xb7;" horiz-adv-x="254" d="M72 263q0 22 16 37t39 15t39 -15t16 -37t-16 -37t-39 -15t-39 15t-16 37z" />
<glyph unicode="&#xb8;" horiz-adv-x="515" d="M166 -143l-3 6q-5 12 -0.5 23t17.5 15q25 9 37 -19q8 -17 24 -25t32 -2q16 7 22 23.5t1 32.5l-35 118h46l40 -95q8 -21 8 -42q0 -29 -16 -53.5t-45 -36.5q-17 -7 -37 -7q-59 0 -91 62z" />
<glyph unicode="&#xb9;" horiz-adv-x="200" d="M90 772l-33 -12q-10 -4 -19.5 1t-11.5 15q-3 9 1.5 18t13.5 12l69 25q5 2 13 2q22 0 22 -22v-335q0 -12 -7.5 -20t-19.5 -8q-11 0 -19.5 8.5t-8.5 19.5v296z" />
<glyph unicode="&#xba;" horiz-adv-x="463" d="M230 392q46 0 76.5 31.5t30.5 79.5q0 49 -30 79t-77 30t-77 -30t-30 -79q0 -48 30.5 -79.5t76.5 -31.5zM360 285h-254q-11 0 -18 -7t-7 -17q0 -11 7 -18.5t18 -7.5h254q11 0 18 7.5t7 18.5q0 10 -7 17t-18 7zM230 343q-67 0 -112 44.5t-45 115.5t45 115t112 44t112 -44 t45 -115t-45 -115.5t-112 -44.5z" />
<glyph unicode="&#xbb;" horiz-adv-x="450" d="M333 234l-113 164q-6 11 -2.5 23.5t14.5 19.5q11 6 23.5 3t18.5 -14l111 -165q14 -22 14 -31t-14 -31l-111 -165q-6 -11 -18.5 -14t-23.5 3q-11 7 -14.5 19.5t2.5 23.5zM177 234l-113 164q-6 11 -2.5 23.5t14.5 19.5q11 6 23.5 3t18.5 -14l111 -165q14 -22 14 -31 t-14 -31l-111 -165q-6 -11 -18.5 -14t-23.5 3q-11 7 -14.5 19.5t2.5 23.5z" />
<glyph unicode="&#xbc;" horiz-adv-x="742" d="M569 635l-418 -636q-15 -23 -38 -9q-22 15 -7 39l418 636q7 10 18 12.5t20 -3.5q23 -15 7 -39zM108 599l-33 -12q-10 -4 -19.5 1t-11.5 15q-3 9 1.5 18t13.5 12l69 25q5 2 13 2q22 0 22 -22v-335q0 -12 -7.5 -20t-19.5 -8q-11 0 -19.5 8.5t-8.5 19.5v296zM484 130h108 v153zM420 121l179 256q9 13 23 13q10 0 17 -7t7 -17v-236h33q11 0 18.5 -7.5t7.5 -18.5t-7.5 -18t-18.5 -7h-33v-55q0 -11 -7.5 -19t-19.5 -8q-11 0 -19 8t-8 19v55h-157q-23 0 -23 21q0 9 8 21z" />
<glyph unicode="&#xbd;" horiz-adv-x="745" d="M568 635l-418 -636q-15 -23 -38 -9q-22 15 -7 39l418 636q7 10 18 12.5t20 -3.5q23 -15 7 -39zM107 599l-33 -12q-10 -4 -19.5 1t-11.5 15q-3 9 1.5 18t13.5 12l69 25q5 2 13 2q22 0 22 -22v-335q0 -12 -7.5 -20t-19.5 -8q-11 0 -19.5 8.5t-8.5 19.5v296zM503 298 q-3 -11 -13 -15.5t-22 -0.5q-10 3 -15 13t-1 21q13 37 44 57.5t73 20.5q52 0 87.5 -32.5t35.5 -83.5q0 -50 -43 -100q-17 -20 -51 -60.5t-53 -62.5h123q11 0 19.5 -8.5t8.5 -19.5q0 -12 -8 -19.5t-20 -7.5h-194q-20 0 -20 19q0 8 7 17l149 180q28 33 28 62q0 28 -20 44.5 t-49 16.5q-23 0 -41.5 -11t-24.5 -30z" />
<glyph unicode="&#xbe;" horiz-adv-x="833" d="M660 635l-418 -636q-15 -23 -38 -9q-22 15 -7 39l418 636q7 10 18 12.5t20 -3.5q23 -15 7 -39zM575 130h108v153zM511 121l179 256q9 13 23 13q10 0 17 -7t7 -17v-236h33q11 0 18.5 -7.5t7.5 -18.5t-7.5 -18t-18.5 -7h-33v-55q0 -11 -7.5 -19t-19.5 -8q-11 0 -19 8t-8 19 v55h-157q-23 0 -23 21q0 9 8 21zM98 360q18 -28 60 -31q33 -2 57 15.5t25 47.5q1 31 -20.5 50t-53.5 19h-23q-11 0 -18.5 7t-7.5 19q0 11 7.5 18.5t18.5 7.5h23q25 0 41.5 15t18.5 38q1 22 -14.5 37t-42.5 16q-36 0 -57 -19q-20 -18 -35 -7q-9 7 -11.5 18t5.5 21 q37 45 101 42q55 -4 84 -37t25 -79q-2 -20 -15.5 -39t-34.5 -29q29 -9 47.5 -41t16.5 -64q-3 -52 -44.5 -83t-97.5 -27q-63 4 -100 55q-7 9 -5 21.5t12 17.5q23 14 38 -9z" />
<glyph unicode="&#xbf;" horiz-adv-x="465" d="M364 -62q2 14 13 22.5t25 6.5t21.5 -13.5t5.5 -25.5q-12 -72 -65.5 -115.5t-126.5 -43.5q-83 0 -143 53.5t-60 139.5q0 69 40.5 119t102.5 68q44 13 65 31.5t21 60.5v10q0 14 9.5 24t23.5 10t23.5 -10t9.5 -24v-10q0 -66 -34 -101t-98 -54q-41 -13 -69 -46t-28 -78 q0 -56 41 -91.5t96 -35.5q48 0 84 28t43 75zM351 420q0 -22 -16 -37t-39 -15t-39 15t-16 37t16 37t39 15t39 -15t16 -37z" />
<glyph unicode="&#xc0;" horiz-adv-x="611" d="M306 597l136 -354h-272zM590 40l-239 623q-11 31 -43 31h-5q-32 0 -43 -31l-239 -623q-5 -13 0.5 -25.5t18.5 -17.5t25.5 1t17.5 19l63 164h319l63 -164q5 -13 17.5 -19t25.5 -1t18.5 17.5t0.5 25.5zM261 767l-61 78q-10 13 -10 25q0 9 15 15.5t32 6.5q20 0 30 -20 l51 -95q5 -10 5 -15q0 -16 -19 -16q-27 0 -43 21z" />
<glyph unicode="&#xc1;" horiz-adv-x="611" d="M442 243l-136 354l-136 -354h272zM351 663l239 -623q5 -13 -0.5 -25.5t-18.5 -17.5t-25.5 1t-17.5 19l-63 164h-319l-63 -164q-5 -13 -17.5 -19t-25.5 -1t-18.5 17.5t-0.5 25.5l239 623q11 31 43 31h5q32 0 43 -31zM405 845l-61 -78q-16 -21 -43 -21q-19 0 -19 16 q0 5 5 15l51 95q10 20 30 20q17 0 32 -6.5t15 -15.5q0 -12 -10 -25z" />
<glyph unicode="&#xc2;" horiz-adv-x="611" d="M306 597l136 -354h-272zM590 40l-239 623q-11 31 -43 31h-5q-32 0 -43 -31l-239 -623q-5 -13 0.5 -25.5t18.5 -17.5t25.5 1t17.5 19l63 164h319l63 -164q5 -13 17.5 -19t25.5 -1t18.5 17.5t0.5 25.5zM305 831l-63 -67q-17 -18 -43 -18q-18 0 -18 14q0 7 7 17l69 94 q19 21 40 21h18q20 0 39 -21l70 -94q7 -8 7 -17q0 -14 -19 -14q-28 0 -45 18z" />
<glyph unicode="&#xc3;" horiz-adv-x="611" d="M442 243l-136 354l-136 -354h272zM351 663l239 -623q5 -13 -0.5 -25.5t-18.5 -17.5t-25.5 1t-17.5 19l-63 164h-319l-63 -164q-5 -13 -17.5 -19t-25.5 -1t-18.5 17.5t-0.5 25.5l239 623q11 31 43 31h5q32 0 43 -31zM260 800q-23 0 -31 -23q-7 -22 -28 -20q-26 2 -23 26 q15 80 82 80q24 0 51 -21t40 -21q23 0 31 23q7 22 28 20q26 -2 23 -26q-15 -80 -82 -80q-24 0 -51 21t-40 21z" />
<glyph unicode="&#xc4;" horiz-adv-x="611" d="M306 597l136 -354h-272zM590 40l-239 623q-11 31 -43 31h-5q-32 0 -43 -31l-239 -623q-5 -13 0.5 -25.5t18.5 -17.5t25.5 1t17.5 19l63 164h319l63 -164q5 -13 17.5 -19t25.5 -1t18.5 17.5t0.5 25.5zM167 801q0 21 15 34.5t36 13.5t36 -13.5t15 -34.5t-15 -34.5 t-36 -13.5t-36 13.5t-15 34.5zM344 801q0 21 15 34.5t36 13.5t36 -13.5t15 -34.5t-15 -34.5t-36 -13.5t-36 13.5t-15 34.5z" />
<glyph unicode="&#xc5;" horiz-adv-x="611" d="M306 597l136 -354h-272zM590 40l-239 623q-11 31 -43 31h-5q-32 0 -43 -31l-239 -623q-5 -13 0.5 -25.5t18.5 -17.5t25.5 1t17.5 19l63 164h319l63 -164q5 -13 17.5 -19t25.5 -1t18.5 17.5t0.5 25.5zM210 842q0 41 28 69.5t68 28.5q41 0 69.5 -28.5t28.5 -69.5 q0 -40 -28.5 -68t-69.5 -28q-40 0 -68 28t-28 68zM262 843q0 -19 13 -32t32 -13t32 13t13 32t-13 32t-32 13t-32 -13t-13 -32z" />
<glyph unicode="&#xc6;" horiz-adv-x="904" d="M210 243h241v380zM171 181l-108 -169q-18 -28 -46 -13q-12 7 -15 20.5t4 25.5l388 615q17 29 53 29h368q14 0 24 -9.5t10 -23.5t-10 -23.5t-24 -9.5h-298v-252h257q14 0 24 -9.5t10 -23.5t-10 -23.5t-24 -9.5h-257v-239h309q14 0 24 -9.5t10 -23.5t-10 -23.5t-24 -9.5 h-341q-13 0 -23.5 10t-10.5 24v147h-280z" />
<glyph unicode="&#xc7;" horiz-adv-x="659" d="M255 -143l-3 6q-5 12 -0.5 23t17.5 15q25 9 37 -19q8 -17 24 -25t32 -2q16 7 22 23.5t1 32.5l-24 80q-134 10 -220 110.5t-86 241.5q0 149 94.5 251.5t239.5 102.5q121 0 221 -80q11 -9 12.5 -23.5t-8.5 -25.5q-10 -10 -23.5 -10.5t-23.5 9.5q-77 64 -178 64 q-117 0 -192.5 -83.5t-75.5 -204.5t75.5 -204t192.5 -83q101 0 178 64q10 10 23.5 9.5t23.5 -10.5q10 -11 8.5 -25.5t-12.5 -23.5q-89 -72 -198 -79l24 -57q8 -21 8 -42q0 -29 -16 -53.5t-45 -36.5q-17 -7 -37 -7q-59 0 -91 62z" />
<glyph unicode="&#xc8;" horiz-adv-x="551" d="M164 305h257q14 0 24 9.5t10 23.5t-10 23.5t-24 9.5h-257v252h298q14 0 24 9.5t10 23.5t-10 23.5t-24 9.5h-330q-14 0 -24 -10.5t-10 -23.5v-621q0 -14 10 -24t24 -10h341q14 0 24 9.5t10 23.5t-10 23.5t-24 9.5h-309v239zM258 767l-61 78q-10 13 -10 25q0 9 15 15.5 t32 6.5q20 0 30 -20l51 -95q5 -10 5 -15q0 -16 -19 -16q-27 0 -43 21z" />
<glyph unicode="&#xc9;" horiz-adv-x="551" d="M421 305h-257v-239h309q14 0 24 -9.5t10 -23.5t-10 -23.5t-24 -9.5h-341q-14 0 -24 10t-10 24v621q0 13 10 23.5t24 10.5h330q14 0 24 -9.5t10 -23.5t-10 -23.5t-24 -9.5h-298v-252h257q14 0 24 -9.5t10 -23.5t-10 -23.5t-24 -9.5zM380 845l-61 -78q-16 -21 -43 -21 q-19 0 -19 16q0 5 5 15l51 95q10 20 30 20q17 0 32 -6.5t15 -15.5q0 -12 -10 -25z" />
<glyph unicode="&#xca;" horiz-adv-x="551" d="M164 305h257q14 0 24 9.5t10 23.5t-10 23.5t-24 9.5h-257v252h298q14 0 24 9.5t10 23.5t-10 23.5t-24 9.5h-330q-14 0 -24 -10.5t-10 -23.5v-621q0 -14 10 -24t24 -10h341q14 0 24 9.5t10 23.5t-10 23.5t-24 9.5h-309v239zM296 831l-63 -67q-17 -18 -43 -18q-18 0 -18 14 q0 7 7 17l69 94q19 21 40 21h18q20 0 39 -21l70 -94q7 -8 7 -17q0 -14 -19 -14q-28 0 -45 18z" />
<glyph unicode="&#xcb;" horiz-adv-x="551" d="M164 305h257q14 0 24 9.5t10 23.5t-10 23.5t-24 9.5h-257v252h298q14 0 24 9.5t10 23.5t-10 23.5t-24 9.5h-330q-14 0 -24 -10.5t-10 -23.5v-621q0 -14 10 -24t24 -10h341q14 0 24 9.5t10 23.5t-10 23.5t-24 9.5h-309v239zM145 801q0 21 15 34.5t36 13.5t36 -13.5 t15 -34.5t-15 -34.5t-36 -13.5t-36 13.5t-15 34.5zM322 801q0 21 15 34.5t36 13.5t36 -13.5t15 -34.5t-15 -34.5t-36 -13.5t-36 13.5t-15 34.5z" />
<glyph unicode="&#xcc;" horiz-adv-x="262" d="M164 29v631q0 14 -9.5 24t-23.5 10t-23.5 -10t-9.5 -24v-631q0 -14 9.5 -24t23.5 -10t23.5 10t9.5 24zM102 767l-61 78q-10 13 -10 25q0 9 15 15.5t32 6.5q20 0 30 -20l51 -95q5 -10 5 -15q0 -16 -19 -16q-27 0 -43 21z" />
<glyph unicode="&#xcd;" horiz-adv-x="262" d="M164 660v-631q0 -14 -9.5 -24t-23.5 -10t-23.5 10t-9.5 24v631q0 14 9.5 24t23.5 10t23.5 -10t9.5 -24zM221 845l-61 -78q-16 -21 -43 -21q-19 0 -19 16q0 5 5 15l51 95q10 20 30 20q17 0 32 -6.5t15 -15.5q0 -12 -10 -25z" />
<glyph unicode="&#xce;" horiz-adv-x="262" d="M164 29v631q0 14 -9.5 24t-23.5 10t-23.5 -10t-9.5 -24v-631q0 -14 9.5 -24t23.5 -10t23.5 10t9.5 24zM132 831l-63 -67q-17 -18 -43 -18q-18 0 -18 14q0 7 7 17l69 94q19 21 40 21h18q20 0 39 -21l70 -94q7 -8 7 -17q0 -14 -19 -14q-28 0 -45 18z" />
<glyph unicode="&#xcf;" horiz-adv-x="262" d="M164 29v631q0 14 -9.5 24t-23.5 10t-23.5 -10t-9.5 -24v-631q0 -14 9.5 -24t23.5 -10t23.5 10t9.5 24zM-8 801q0 21 15 34.5t36 13.5t36 -13.5t15 -34.5t-15 -34.5t-36 -13.5t-36 13.5t-15 34.5zM169 801q0 21 15 34.5t36 13.5t36 -13.5t15 -34.5t-15 -34.5t-36 -13.5 t-36 13.5t-15 34.5z" />
<glyph unicode="&#xd0;" horiz-adv-x="726" d="M315 313h-145v-247h193q115 0 177 76.5t62 200.5t-62 202t-177 78h-193v-248h145q14 0 23 -9t9 -22t-9 -22t-23 -9zM104 34v279h-71q-14 0 -23 9t-9 22t9 22t23 9h71v280q0 13 10 23.5t24 10.5h225q142 0 223.5 -97t81.5 -249q0 -151 -81.5 -247t-223.5 -96h-225 q-14 0 -24 10t-10 24z" />
<glyph unicode="&#xd1;" horiz-adv-x="681" d="M583 660v-632q0 -14 -10 -23.5t-24 -9.5h-9q-22 0 -34 19l-342 563v-548q0 -14 -9.5 -24t-23.5 -10t-23.5 10t-9.5 24v631q0 14 10.5 24t24.5 10h10q23 0 35 -20l339 -558v544q0 14 9.5 24t23.5 10t23.5 -10t9.5 -24zM291 800q-23 0 -31 -23q-7 -22 -28 -20q-26 2 -23 26 q15 80 82 80q24 0 51 -21t40 -21q23 0 31 23q7 22 28 20q26 -2 23 -26q-15 -80 -82 -80q-24 0 -51 21t-40 21z" />
<glyph unicode="&#xd2;" horiz-adv-x="801" d="M54 343q0 -147 100 -250t246 -103t246.5 103t100.5 250q0 148 -100.5 251t-246.5 103t-246 -103t-100 -251zM120 343q0 120 81 204t199 84q119 0 200 -84t81 -204t-81 -203.5t-200 -83.5t-199.5 83.5t-80.5 203.5zM381 767l-61 78q-10 13 -10 25q0 9 15 15.5t32 6.5 q20 0 30 -20l51 -95q5 -10 5 -15q0 -16 -19 -16q-27 0 -43 21z" />
<glyph unicode="&#xd3;" horiz-adv-x="801" d="M54 343q0 148 100 251t246 103t246.5 -103t100.5 -251q0 -147 -100.5 -250t-246.5 -103t-246 103t-100 250zM120 343q0 -120 80.5 -203.5t199.5 -83.5t200 83.5t81 203.5t-81 204t-200 84q-118 0 -199 -84t-81 -204zM472 845l-61 -78q-16 -21 -43 -21q-19 0 -19 16 q0 5 5 15l51 95q10 20 30 20q17 0 32 -6.5t15 -15.5q0 -12 -10 -25z" />
<glyph unicode="&#xd4;" horiz-adv-x="801" d="M54 343q0 -147 100 -250t246 -103t246.5 103t100.5 250q0 148 -100.5 251t-246.5 103t-246 -103t-100 -251zM120 343q0 120 81 204t199 84q119 0 200 -84t81 -204t-81 -203.5t-200 -83.5t-199.5 83.5t-80.5 203.5zM400 831l-63 -67q-17 -18 -43 -18q-18 0 -18 14 q0 7 7 17l69 94q19 21 40 21h18q20 0 39 -21l70 -94q7 -8 7 -17q0 -14 -19 -14q-28 0 -45 18z" />
<glyph unicode="&#xd5;" horiz-adv-x="801" d="M54 343q0 148 100 251t246 103t246.5 -103t100.5 -251q0 -147 -100.5 -250t-246.5 -103t-246 103t-100 250zM120 343q0 -120 80.5 -203.5t199.5 -83.5t200 83.5t81 203.5t-81 204t-200 84q-118 0 -199 -84t-81 -204zM353 800q-23 0 -31 -23q-7 -22 -28 -20q-26 2 -23 26 q15 80 82 80q24 0 51 -21t40 -21q23 0 31 23q7 22 28 20q26 -2 23 -26q-15 -80 -82 -80q-24 0 -51 21t-40 21z" />
<glyph unicode="&#xd6;" horiz-adv-x="801" d="M54 343q0 -147 100 -250t246 -103t246.5 103t100.5 250q0 148 -100.5 251t-246.5 103t-246 -103t-100 -251zM120 343q0 120 81 204t199 84q119 0 200 -84t81 -204t-81 -203.5t-200 -83.5t-199.5 83.5t-80.5 203.5zM262 801q0 21 15 34.5t36 13.5t36 -13.5t15 -34.5 t-15 -34.5t-36 -13.5t-36 13.5t-15 34.5zM439 801q0 21 15 34.5t36 13.5t36 -13.5t15 -34.5t-15 -34.5t-36 -13.5t-36 13.5t-15 34.5z" />
<glyph unicode="&#xd7;" horiz-adv-x="470" d="M280 276l106 -106q10 -10 10.5 -23t-9.5 -23t-23 -9.5t-23 10.5l-106 106l-106 -106q-10 -10 -23 -10.5t-23 9.5t-9.5 23t10.5 23l106 106l-106 106q-10 10 -10.5 23t9.5 23t23 9.5t23 -10.5l106 -106l106 106q10 10 23 10.5t23 -9.5t9.5 -23t-10.5 -23z" />
<glyph unicode="&#xd8;" horiz-adv-x="800" d="M119 343q0 -108 65 -187l397 407q-79 68 -182 68q-118 0 -199 -84t-81 -204zM399 56q119 0 200 83.5t81 203.5q0 104 -63 183l-396 -407q78 -63 178 -63zM175 71l-68 -71q-8 -9 -19.5 -9t-19.5 8q-19 19 2 38l68 72q-85 99 -85 234q0 148 100 251t246 103q131 0 228 -86 l72 74q8 9 19.5 9t19.5 -8q19 -19 -2 -38l-72 -75q82 -100 82 -230q0 -147 -100.5 -250t-246.5 -103q-129 0 -224 81z" />
<glyph unicode="&#xd9;" horiz-adv-x="672" d="M580 660v-427q0 -108 -70.5 -175.5t-173.5 -67.5t-173.5 67.5t-70.5 175.5v427q0 14 9.5 24t23.5 10t23.5 -10t9.5 -24v-427q0 -79 51.5 -128t126.5 -49t126.5 49t51.5 128v427q0 14 9.5 24t23.5 10t23.5 -10t9.5 -24zM309 767l-61 78q-10 13 -10 25q0 9 15 15.5t32 6.5 q20 0 30 -20l51 -95q5 -10 5 -15q0 -16 -19 -16q-27 0 -43 21z" />
<glyph unicode="&#xda;" horiz-adv-x="672" d="M580 660v-427q0 -108 -70.5 -175.5t-173.5 -67.5t-173.5 67.5t-70.5 175.5v427q0 14 9.5 24t23.5 10t23.5 -10t9.5 -24v-427q0 -79 51.5 -128t126.5 -49t126.5 49t51.5 128v427q0 14 9.5 24t23.5 10t23.5 -10t9.5 -24zM411 845l-61 -78q-16 -21 -43 -21q-19 0 -19 16 q0 5 5 15l51 95q10 20 30 20q17 0 32 -6.5t15 -15.5q0 -12 -10 -25z" />
<glyph unicode="&#xdb;" horiz-adv-x="672" d="M580 660v-427q0 -108 -70.5 -175.5t-173.5 -67.5t-173.5 67.5t-70.5 175.5v427q0 14 9.5 24t23.5 10t23.5 -10t9.5 -24v-427q0 -79 51.5 -128t126.5 -49t126.5 49t51.5 128v427q0 14 9.5 24t23.5 10t23.5 -10t9.5 -24zM335 831l-63 -67q-17 -18 -43 -18q-18 0 -18 14 q0 7 7 17l69 94q19 21 40 21h18q20 0 39 -21l70 -94q7 -8 7 -17q0 -14 -19 -14q-28 0 -45 18z" />
<glyph unicode="&#xdc;" horiz-adv-x="672" d="M580 660v-427q0 -108 -70.5 -175.5t-173.5 -67.5t-173.5 67.5t-70.5 175.5v427q0 14 9.5 24t23.5 10t23.5 -10t9.5 -24v-427q0 -79 51.5 -128t126.5 -49t126.5 49t51.5 128v427q0 14 9.5 24t23.5 10t23.5 -10t9.5 -24zM197 801q0 21 15 34.5t36 13.5t36 -13.5t15 -34.5 t-15 -34.5t-36 -13.5t-36 13.5t-15 34.5zM374 801q0 21 15 34.5t36 13.5t36 -13.5t15 -34.5t-15 -34.5t-36 -13.5t-36 13.5t-15 34.5z" />
<glyph unicode="&#xdd;" horiz-adv-x="583" d="M553 643l-229 -323v-291q0 -14 -9.5 -24t-23.5 -10t-23.5 10t-9.5 24v291l-227 323q-19 28 8 45q12 8 25 5t21 -15l206 -286l208 286q8 12 21 15t25 -5q27 -17 8 -45zM372 845l-61 -78q-16 -21 -43 -21q-19 0 -19 16q0 5 5 15l51 95q10 20 30 20q17 0 32 -6.5t15 -15.5 q0 -12 -10 -25z" />
<glyph unicode="&#xde;" horiz-adv-x="569" d="M164 660v-99h162q87 0 146 -57t59 -150t-59 -151.5t-146 -58.5h-162v-115q0 -14 -9.5 -24t-23.5 -10t-23.5 10t-9.5 24v631q0 14 9.5 24t23.5 10t23.5 -10t9.5 -24zM326 495h-162v-285h162q59 0 99 40t40 104q0 63 -40 102t-99 39z" />
<glyph unicode="&#xdf;" horiz-adv-x="566" d="M222 66q27 -9 70 -9q70 0 115 47t45 113q0 63 -46 111.5t-113 48.5h-18q-13 0 -22 8.5t-9 21.5t9 21.5t22 8.5h16q46 0 75.5 30t29.5 74t-31 73.5t-79 31.5h-10q-56 0 -93 -38.5t-37 -104.5v-474q0 -14 -9.5 -24t-23.5 -10t-23.5 10t-9.5 24v474q0 96 54.5 151t141.5 55 h10q75 0 125.5 -49t50.5 -119q0 -41 -20.5 -76t-56.5 -53q59 -14 96 -72.5t37 -122.5q0 -94 -63 -158.5t-161 -64.5q-36 -1 -85 14q-30 9 -24 36q3 13 14 19.5t23 2.5z" />
<glyph unicode="&#xe0;" horiz-adv-x="609" d="M116 235q0 79 49 127t123 48q69 0 122.5 -47t53.5 -128q0 -83 -50.5 -130.5t-125.5 -47.5q-73 0 -122.5 50.5t-49.5 127.5zM530 29v409q0 14 -9.5 24t-23.5 10t-23.5 -10t-9.5 -24v-48q-25 42 -73.5 64.5t-102.5 22.5q-102 0 -170.5 -66.5t-68.5 -175.5t68.5 -177 t170.5 -68q53 0 102 23.5t74 66.5v-51q0 -14 9.5 -24t23.5 -10t23.5 10t9.5 24zM269 564l-61 78q-10 13 -10 25q0 9 15 15.5t32 6.5q20 0 30 -20l51 -95q5 -10 5 -15q0 -16 -19 -16q-27 0 -43 21z" />
<glyph unicode="&#xe1;" horiz-adv-x="609" d="M116 235q0 -77 49.5 -127.5t122.5 -50.5q75 0 125.5 47.5t50.5 130.5q0 81 -53.5 128t-122.5 47q-74 0 -123 -48t-49 -127zM530 438v-409q0 -14 -9.5 -24t-23.5 -10t-23.5 10t-9.5 24v51q-25 -43 -74 -66.5t-102 -23.5q-102 0 -170.5 68t-68.5 177t68.5 175.5t170.5 66.5 q54 0 102.5 -22.5t73.5 -64.5v48q0 14 9.5 24t23.5 10t23.5 -10t9.5 -24zM372 642l-61 -78q-16 -21 -43 -21q-19 0 -19 16q0 5 5 15l51 95q10 20 30 20q17 0 32 -6.5t15 -15.5q0 -12 -10 -25z" />
<glyph unicode="&#xe2;" horiz-adv-x="609" d="M116 235q0 79 49 127t123 48q69 0 122.5 -47t53.5 -128q0 -83 -50.5 -130.5t-125.5 -47.5q-73 0 -122.5 50.5t-49.5 127.5zM530 29v409q0 14 -9.5 24t-23.5 10t-23.5 -10t-9.5 -24v-48q-25 42 -73.5 64.5t-102.5 22.5q-102 0 -170.5 -66.5t-68.5 -175.5t68.5 -177 t170.5 -68q53 0 102 23.5t74 66.5v-51q0 -14 9.5 -24t23.5 -10t23.5 10t9.5 24zM285 628l-63 -67q-17 -18 -43 -18q-18 0 -18 14q0 7 7 17l69 94q19 21 40 21h18q20 0 39 -21l70 -94q7 -8 7 -17q0 -14 -19 -14q-28 0 -45 18z" />
<glyph unicode="&#xe3;" horiz-adv-x="609" d="M116 235q0 -77 49.5 -127.5t122.5 -50.5q75 0 125.5 47.5t50.5 130.5q0 81 -53.5 128t-122.5 47q-74 0 -123 -48t-49 -127zM530 438v-409q0 -14 -9.5 -24t-23.5 -10t-23.5 10t-9.5 24v51q-25 -43 -74 -66.5t-102 -23.5q-102 0 -170.5 68t-68.5 177t68.5 175.5t170.5 66.5 q54 0 102.5 -22.5t73.5 -64.5v48q0 14 9.5 24t23.5 10t23.5 -10t9.5 -24zM249 608q-23 0 -31 -23q-7 -22 -28 -20q-26 2 -23 26q15 80 82 80q24 0 51 -21t40 -21q23 0 31 23q7 22 28 20q26 -2 23 -26q-15 -80 -82 -80q-24 0 -51 21t-40 21z" />
<glyph unicode="&#xe4;" horiz-adv-x="609" d="M116 235q0 79 49 127t123 48q69 0 122.5 -47t53.5 -128q0 -83 -50.5 -130.5t-125.5 -47.5q-73 0 -122.5 50.5t-49.5 127.5zM530 29v409q0 14 -9.5 24t-23.5 10t-23.5 -10t-9.5 -24v-48q-25 42 -73.5 64.5t-102.5 22.5q-102 0 -170.5 -66.5t-68.5 -175.5t68.5 -177 t170.5 -68q53 0 102 23.5t74 66.5v-51q0 -14 9.5 -24t23.5 -10t23.5 10t9.5 24zM145 611q0 21 15 34.5t36 13.5t36 -13.5t15 -34.5t-15 -34.5t-36 -13.5t-36 13.5t-15 34.5zM322 611q0 21 15 34.5t36 13.5t36 -13.5t15 -34.5t-15 -34.5t-36 -13.5t-36 13.5t-15 34.5z" />
<glyph unicode="&#xe5;" horiz-adv-x="609" d="M116 235q0 79 49 127t123 48q69 0 122.5 -47t53.5 -128q0 -83 -50.5 -130.5t-125.5 -47.5q-73 0 -122.5 50.5t-49.5 127.5zM530 29v409q0 14 -9.5 24t-23.5 10t-23.5 -10t-9.5 -24v-48q-25 42 -73.5 64.5t-102.5 22.5q-102 0 -170.5 -66.5t-68.5 -175.5t68.5 -177 t170.5 -68q53 0 102 23.5t74 66.5v-51q0 -14 9.5 -24t23.5 -10t23.5 10t9.5 24zM190 631q0 41 28 69.5t68 28.5q41 0 69.5 -28.5t28.5 -69.5q0 -40 -28.5 -68t-69.5 -28q-40 0 -68 27.5t-28 68.5zM242 632q0 -20 13 -32.5t32 -12.5t32 13t13 32t-13 32t-32 13t-32 -13 t-13 -32z" />
<glyph unicode="&#xe6;" horiz-adv-x="900" d="M433 102q-77 -112 -218 -112q-79 0 -126 37.5t-47 103.5q0 64 48 103.5t150 39.5q60 0 157 -31v40q0 59 -38.5 93.5t-107.5 34.5q-65 0 -119 -42q-11 -10 -24.5 -9.5t-22.5 10.5q-10 11 -9 24.5t12 23.5q63 59 170 59q140 0 182 -99q63 99 191 99q101 0 165 -66t64 -176 q0 -13 -9.5 -22t-21.5 -9h-366q9 -67 55.5 -107.5t112.5 -40.5q82 0 136 64q23 28 46 12q12 -7 15 -20.5t-5 -25.5q-31 -46 -82 -71t-110 -25q-65 0 -117 29.5t-81 82.5zM463 266h329q-10 67 -53.5 106t-107.5 39q-66 0 -112 -39.5t-56 -105.5zM217 55q31 0 61.5 7t66 32 t54.5 66l-3 23q-84 29 -156 29q-129 0 -129 -81q0 -33 27 -54.5t79 -21.5z" />
<glyph unicode="&#xe7;" horiz-adv-x="493" d="M152 -143l-3 6q-5 12 -0.5 23t17.5 15q25 9 37 -19q8 -17 24 -25t32 -2q16 7 22 23.5t1 32.5l-24 82q-90 12 -149.5 77t-59.5 164q0 108 70.5 175.5t173.5 67.5q78 0 142 -43q12 -8 15 -21t-5 -25t-21.5 -14t-25.5 5q-55 32 -105 32q-75 0 -126.5 -49t-51.5 -128 t51.5 -128.5t126.5 -49.5q50 0 105 32q12 7 25.5 5t21.5 -14t5 -25t-15 -21q-56 -38 -126 -42l24 -57q8 -21 8 -42q0 -29 -16 -53.5t-45 -36.5q-17 -7 -37 -7q-59 0 -91 62z" />
<glyph unicode="&#xe8;" d="M447 266h-329q10 66 56 105.5t112 39.5q64 0 107.5 -39t53.5 -106zM478 86q8 12 5 25.5t-15 20.5q-23 16 -46 -12q-54 -64 -136 -64q-66 0 -112.5 40.5t-55.5 107.5h366q12 0 21.5 9t9.5 22q0 110 -64 176t-165 66q-102 0 -169 -66.5t-67 -175.5t67.5 -177t168.5 -68 q59 0 110 25t82 71zM249 564l-61 78q-10 13 -10 25q0 9 15 15.5t32 6.5q20 0 30 -20l51 -95q5 -10 5 -15q0 -16 -19 -16q-27 0 -43 21z" />
<glyph unicode="&#xe9;" d="M118 266h329q-10 67 -53.5 106t-107.5 39q-66 0 -112 -39.5t-56 -105.5zM478 86q-31 -46 -82 -71t-110 -25q-101 0 -168.5 68t-67.5 177t67 175.5t169 66.5q101 0 165 -66t64 -176q0 -13 -9.5 -22t-21.5 -9h-366q9 -67 55.5 -107.5t112.5 -40.5q82 0 136 64q23 28 46 12 q12 -7 15 -20.5t-5 -25.5zM378 642l-61 -78q-16 -21 -43 -21q-19 0 -19 16q0 5 5 15l51 95q10 20 30 20q17 0 32 -6.5t15 -15.5q0 -12 -10 -25z" />
<glyph unicode="&#xea;" d="M447 266h-329q10 66 56 105.5t112 39.5q64 0 107.5 -39t53.5 -106zM478 86q8 12 5 25.5t-15 20.5q-23 16 -46 -12q-54 -64 -136 -64q-66 0 -112.5 40.5t-55.5 107.5h366q12 0 21.5 9t9.5 22q0 110 -64 176t-165 66q-102 0 -169 -66.5t-67 -175.5t67.5 -177t168.5 -68 q59 0 110 25t82 71zM278 628l-63 -67q-17 -18 -43 -18q-18 0 -18 14q0 7 7 17l69 94q19 21 40 21h18q20 0 39 -21l70 -94q7 -8 7 -17q0 -14 -19 -14q-28 0 -45 18z" />
<glyph unicode="&#xeb;" d="M447 266h-329q10 66 56 105.5t112 39.5q64 0 107.5 -39t53.5 -106zM478 86q8 12 5 25.5t-15 20.5q-23 16 -46 -12q-54 -64 -136 -64q-66 0 -112.5 40.5t-55.5 107.5h366q12 0 21.5 9t9.5 22q0 110 -64 176t-165 66q-102 0 -169 -66.5t-67 -175.5t67.5 -177t168.5 -68 q59 0 110 25t82 71zM140 611q0 21 15 34.5t36 13.5t36 -13.5t15 -34.5t-15 -34.5t-36 -13.5t-36 13.5t-15 34.5zM317 611q0 21 15 34.5t36 13.5t36 -13.5t15 -34.5t-15 -34.5t-36 -13.5t-36 13.5t-15 34.5z" />
<glyph unicode="&#xec;" horiz-adv-x="224" d="M145 29v409q0 14 -9.5 24t-23.5 10t-23.5 -10t-9.5 -24v-409q0 -14 9.5 -24t23.5 -10t23.5 10t9.5 24zM82 564l-61 78q-10 13 -10 25q0 9 15 15.5t32 6.5q20 0 30 -20l51 -95q5 -10 5 -15q0 -16 -19 -16q-27 0 -43 21z" />
<glyph unicode="&#xed;" horiz-adv-x="224" d="M145 438v-409q0 -14 -9.5 -24t-23.5 -10t-23.5 10t-9.5 24v409q0 14 9.5 24t23.5 10t23.5 -10t9.5 -24zM202 642l-61 -78q-16 -21 -43 -21q-19 0 -19 16q0 5 5 15l51 95q10 20 30 20q17 0 32 -6.5t15 -15.5q0 -12 -10 -25z" />
<glyph unicode="&#xee;" horiz-adv-x="224" d="M145 29v409q0 14 -9.5 24t-23.5 10t-23.5 -10t-9.5 -24v-409q0 -14 9.5 -24t23.5 -10t23.5 10t9.5 24zM111 628l-63 -67q-17 -18 -43 -18q-18 0 -18 14q0 7 7 17l69 94q19 21 40 21h18q20 0 39 -21l70 -94q7 -8 7 -17q0 -14 -19 -14q-28 0 -45 18z" />
<glyph unicode="&#xef;" horiz-adv-x="224" d="M145 29v409q0 14 -9.5 24t-23.5 10t-23.5 -10t-9.5 -24v-409q0 -14 9.5 -24t23.5 -10t23.5 10t9.5 24zM-27 611q0 21 15 34.5t36 13.5t36 -13.5t15 -34.5t-15 -34.5t-36 -13.5t-36 13.5t-15 34.5zM150 611q0 21 15 34.5t36 13.5t36 -13.5t15 -34.5t-15 -34.5t-36 -13.5 t-36 13.5t-15 34.5z" />
<glyph unicode="&#xf0;" horiz-adv-x="587" d="M270 653l50 40q20 16 35 -3q14 -20 -4 -36l-49 -40l189 -232q46 -62 46 -147q0 -109 -71 -177t-173 -68t-173 68t-71 177q0 108 69.5 175t166.5 67q30 0 56 -10l-88 108l-63 -50q-8 -7 -18.5 -6t-16.5 9q-14 20 4 36l63 50l-47 59q-9 10 -8 23t11 22q11 8 24.5 6 t21.5 -13zM293 56q75 0 126.5 50t51.5 129t-51.5 127.5t-126.5 48.5t-126.5 -48.5t-51.5 -127.5t51.5 -129t126.5 -50z" />
<glyph unicode="&#xf1;" horiz-adv-x="556" d="M146 255v-226q0 -14 -9.5 -24t-23.5 -10t-23.5 10t-9.5 24v409q0 14 9.5 24t23.5 10t23.5 -10t9.5 -24v-48q20 43 65 65t90 22q85 0 133 -54.5t47 -150.5v-243q0 -14 -9.5 -24t-23.5 -10t-23.5 10t-9.5 24v243q0 65 -30 102t-84 37q-63 0 -109 -38.5t-46 -117.5zM231 608 q-23 0 -31 -23q-7 -22 -28 -20q-26 2 -23 26q15 80 82 80q24 0 51 -21t40 -21q23 0 31 23q7 22 28 20q26 -2 23 -26q-15 -80 -82 -80q-24 0 -51 21t-40 21z" />
<glyph unicode="&#xf2;" horiz-adv-x="586" d="M293 -10q102 0 173 68t71 177q0 108 -70.5 175t-173.5 67t-173.5 -67t-70.5 -175q0 -109 71 -177t173 -68zM293 56q-75 0 -126.5 50t-51.5 129t51.5 127.5t126.5 48.5t126.5 -48.5t51.5 -127.5t-51.5 -129t-126.5 -50zM267 564l-61 78q-10 13 -10 25q0 9 15 15.5t32 6.5 q20 0 30 -20l51 -95q5 -10 5 -15q0 -16 -19 -16q-27 0 -43 21z" />
<glyph unicode="&#xf3;" horiz-adv-x="586" d="M293 -10q-102 0 -173 68t-71 177q0 108 70.5 175t173.5 67t173.5 -67t70.5 -175q0 -109 -71 -177t-173 -68zM293 56q75 0 126.5 50t51.5 129t-51.5 127.5t-126.5 48.5t-126.5 -48.5t-51.5 -127.5t51.5 -129t126.5 -50zM391 642l-61 -78q-16 -21 -43 -21q-19 0 -19 16 q0 5 5 15l51 95q10 20 30 20q17 0 32 -6.5t15 -15.5q0 -12 -10 -25z" />
<glyph unicode="&#xf4;" horiz-adv-x="586" d="M293 -10q102 0 173 68t71 177q0 108 -70.5 175t-173.5 67t-173.5 -67t-70.5 -175q0 -109 71 -177t173 -68zM293 56q-75 0 -126.5 50t-51.5 129t51.5 127.5t126.5 48.5t126.5 -48.5t51.5 -127.5t-51.5 -129t-126.5 -50zM292 628l-63 -67q-17 -18 -43 -18q-18 0 -18 14 q0 7 7 17l69 94q19 21 40 21h18q20 0 39 -21l70 -94q7 -8 7 -17q0 -14 -19 -14q-28 0 -45 18z" />
<glyph unicode="&#xf5;" horiz-adv-x="586" d="M293 -10q-102 0 -173 68t-71 177q0 108 70.5 175t173.5 67t173.5 -67t70.5 -175q0 -109 -71 -177t-173 -68zM293 56q75 0 126.5 50t51.5 129t-51.5 127.5t-126.5 48.5t-126.5 -48.5t-51.5 -127.5t51.5 -129t126.5 -50zM247 608q-23 0 -31 -23q-7 -22 -28 -20 q-26 2 -23 26q15 80 82 80q24 0 51 -21t40 -21q23 0 31 23q7 22 28 20q26 -2 23 -26q-15 -80 -82 -80q-24 0 -51 21t-40 21z" />
<glyph unicode="&#xf6;" horiz-adv-x="586" d="M293 -10q102 0 173 68t71 177q0 108 -70.5 175t-173.5 67t-173.5 -67t-70.5 -175q0 -109 71 -177t173 -68zM293 56q-75 0 -126.5 50t-51.5 129t51.5 127.5t126.5 48.5t126.5 -48.5t51.5 -127.5t-51.5 -129t-126.5 -50zM153 611q0 21 15 34.5t36 13.5t36 -13.5t15 -34.5 t-15 -34.5t-36 -13.5t-36 13.5t-15 34.5zM330 611q0 21 15 34.5t36 13.5t36 -13.5t15 -34.5t-15 -34.5t-36 -13.5t-36 13.5t-15 34.5z" />
<glyph unicode="&#xf7;" horiz-adv-x="566" d="M228 104q0 22 16 37t39 15t39 -15t16 -37t-16 -37t-39 -15t-39 15t-16 37zM228 425q0 22 16 37t39 15t39 -15t16 -37t-16 -37t-39 -15t-39 15t-16 37zM469 233q13 0 22.5 9.5t9.5 22.5t-9 22t-23 9h-372q-14 0 -23 -9t-9 -22t9.5 -22.5t22.5 -9.5h372z" />
<glyph unicode="&#xf8;" horiz-adv-x="585" d="M293 56q75 0 126.5 50t51.5 129q0 64 -37 111l-249 -256q46 -34 108 -34zM293 411q-75 0 -126.5 -48.5t-51.5 -127.5q0 -62 33 -108l248 254q-44 30 -103 30zM138 42l-34 -36q-19 -19 -38 0q-18 18 1 38l34 35q-52 67 -52 156q0 108 70.5 175t173.5 67q85 0 150 -48 l34 36q19 19 38 0q8 -8 8 -18.5t-9 -19.5l-33 -33q56 -66 56 -159q0 -109 -71 -177t-173 -68q-89 0 -155 52z" />
<glyph unicode="&#xf9;" d="M410 212v226q0 14 9.5 24t23.5 10t23.5 -10t9.5 -24v-409q0 -14 -9.5 -24t-23.5 -10t-23.5 10t-9.5 24v48q-20 -43 -65 -65t-90 -22q-85 0 -133 54.5t-47 150.5v243q0 14 9.5 24t23.5 10t23.5 -10t9.5 -24v-243q0 -65 30 -102t84 -37q63 0 109 38.5t46 117.5zM242 564 l-61 78q-10 13 -10 25q0 9 15 15.5t32 6.5q20 0 30 -20l51 -95q5 -10 5 -15q0 -16 -19 -16q-27 0 -43 21z" />
<glyph unicode="&#xfa;" d="M410 212v226q0 14 9.5 24t23.5 10t23.5 -10t9.5 -24v-409q0 -14 -9.5 -24t-23.5 -10t-23.5 10t-9.5 24v48q-20 -43 -65 -65t-90 -22q-85 0 -133 54.5t-47 150.5v243q0 14 9.5 24t23.5 10t23.5 -10t9.5 -24v-243q0 -65 30 -102t84 -37q63 0 109 38.5t46 117.5zM358 642 l-61 -78q-16 -21 -43 -21q-19 0 -19 16q0 5 5 15l51 95q10 20 30 20q17 0 32 -6.5t15 -15.5q0 -12 -10 -25z" />
<glyph unicode="&#xfb;" d="M410 212v226q0 14 9.5 24t23.5 10t23.5 -10t9.5 -24v-409q0 -14 -9.5 -24t-23.5 -10t-23.5 10t-9.5 24v48q-20 -43 -65 -65t-90 -22q-85 0 -133 54.5t-47 150.5v243q0 14 9.5 24t23.5 10t23.5 -10t9.5 -24v-243q0 -65 30 -102t84 -37q63 0 109 38.5t46 117.5zM278 628 l-63 -67q-17 -18 -43 -18q-18 0 -18 14q0 7 7 17l69 94q19 21 40 21h18q20 0 39 -21l70 -94q7 -8 7 -17q0 -14 -19 -14q-28 0 -45 18z" />
<glyph unicode="&#xfc;" d="M410 212v226q0 14 9.5 24t23.5 10t23.5 -10t9.5 -24v-409q0 -14 -9.5 -24t-23.5 -10t-23.5 10t-9.5 24v48q-20 -43 -65 -65t-90 -22q-85 0 -133 54.5t-47 150.5v243q0 14 9.5 24t23.5 10t23.5 -10t9.5 -24v-243q0 -65 30 -102t84 -37q63 0 109 38.5t46 117.5zM139 611 q0 21 15 34.5t36 13.5t36 -13.5t15 -34.5t-15 -34.5t-36 -13.5t-36 13.5t-15 34.5zM316 611q0 21 15 34.5t36 13.5t36 -13.5t15 -34.5t-15 -34.5t-36 -13.5t-36 13.5t-15 34.5z" />
<glyph unicode="&#xfd;" horiz-adv-x="495" d="M461 428l-266 -636q-12 -30 -42 -22q-13 4 -18.5 17t-0.5 27l77 187l-176 427q-5 13 1.5 26.5t20.5 16.5q29 7 42 -26l148 -358l150 358q13 33 42 26q13 -3 20 -16t2 -27zM330 642l-61 -78q-16 -21 -43 -21q-19 0 -19 16q0 5 5 15l51 95q10 20 30 20q17 0 32 -6.5 t15 -15.5q0 -12 -10 -25z" />
<glyph unicode="&#xfe;" horiz-adv-x="611" d="M495 235q0 79 -49 127t-123 48q-69 0 -122.5 -47t-53.5 -128q0 -83 50.5 -130.5t125.5 -47.5q73 0 122.5 50.5t49.5 127.5zM147 80v-277q0 -14 -9.5 -24t-23.5 -10t-23.5 10t-9.5 24v888q0 14 9.5 24t23.5 10t23.5 -10t9.5 -24v-301q25 42 73.5 64.5t102.5 22.5 q102 0 170.5 -66.5t68.5 -175.5t-68.5 -177t-170.5 -68q-53 0 -102 23.5t-74 66.5z" />
<glyph unicode="&#xff;" horiz-adv-x="495" d="M195 -208l266 636q5 14 -2 27t-20 16q-29 7 -42 -26l-150 -358l-148 358q-13 33 -42 26q-14 -3 -20.5 -16.5t-1.5 -26.5l176 -427l-77 -187q-5 -14 0.5 -27t18.5 -17q30 -8 42 22zM108 611q0 21 15 34.5t36 13.5t36 -13.5t15 -34.5t-15 -34.5t-36 -13.5t-36 13.5 t-15 34.5zM285 611q0 21 15 34.5t36 13.5t36 -13.5t15 -34.5t-15 -34.5t-36 -13.5t-36 13.5t-15 34.5z" />
<glyph unicode="&#x152;" horiz-adv-x="1135" d="M1005 305h-257v-239h309q14 0 24 -9.5t10 -23.5t-10 -23.5t-24 -9.5h-341q-14 0 -24 10t-10 24v101q-48 -67 -121.5 -106t-160.5 -39q-146 0 -246 103t-100 250q0 148 100 251t246 103q87 0 161 -39t121 -107v104q0 13 10 23.5t24 10.5h330q14 0 24 -9.5t10 -23.5 t-10 -23.5t-24 -9.5h-298v-252h257q14 0 24 -9.5t10 -23.5t-10 -23.5t-24 -9.5zM120 343q0 -120 80.5 -203.5t199.5 -83.5t200 83.5t81 203.5t-81 204t-200 84q-118 0 -199 -84t-81 -204z" />
<glyph unicode="&#x153;" horiz-adv-x="977" d="M900 86q-31 -46 -82 -71t-110 -25q-67 0 -120.5 30.5t-84.5 85.5q-31 -54 -87.5 -85t-122.5 -31q-102 0 -173 68t-71 177q0 108 70.5 175t173.5 67q66 0 122.5 -30t87.5 -84q31 54 84.5 84t120.5 30q101 0 165 -66t64 -176q0 -13 -9.5 -22t-21.5 -9h-366 q9 -67 55.5 -107.5t112.5 -40.5q82 0 136 64q23 28 46 12q12 -7 15 -20.5t-5 -25.5zM293 56q75 0 126.5 50t51.5 129t-51.5 127.5t-126.5 48.5t-126.5 -48.5t-51.5 -127.5t51.5 -129t126.5 -50zM540 266h329q-10 67 -53.5 106t-107.5 39q-66 0 -112 -39.5t-56 -105.5z" />
<glyph unicode="&#x178;" horiz-adv-x="583" d="M553 643l-229 -323v-291q0 -14 -9.5 -24t-23.5 -10t-23.5 10t-9.5 24v291l-227 323q-19 28 8 45q12 8 25 5t21 -15l206 -286l208 286q8 12 21 15t25 -5q27 -17 8 -45zM152 801q0 21 15 34.5t36 13.5t36 -13.5t15 -34.5t-15 -34.5t-36 -13.5t-36 13.5t-15 34.5zM329 801 q0 21 15 34.5t36 13.5t36 -13.5t15 -34.5t-15 -34.5t-36 -13.5t-36 13.5t-15 34.5z" />
<glyph unicode="&#x2c6;" horiz-adv-x="450" d="M224 628l-63 -67q-17 -18 -43 -18q-18 0 -18 14q0 7 7 17l69 94q19 21 40 21h18q20 0 39 -21l70 -94q7 -8 7 -17q0 -14 -19 -14q-28 0 -45 18z" />
<glyph unicode="&#x2dc;" horiz-adv-x="421" d="M165 608q-23 0 -31 -23q-7 -22 -28 -20q-26 2 -23 26q15 80 82 80q24 0 51 -21t40 -21q23 0 31 23q7 22 28 20q26 -2 23 -26q-15 -80 -82 -80q-24 0 -51 21t-40 21z" />
<glyph unicode="&#x2000;" horiz-adv-x="470" />
<glyph unicode="&#x2001;" horiz-adv-x="940" />
<glyph unicode="&#x2002;" horiz-adv-x="470" />
<glyph unicode="&#x2003;" horiz-adv-x="940" />
<glyph unicode="&#x2004;" horiz-adv-x="313" />
<glyph unicode="&#x2005;" horiz-adv-x="235" />
<glyph unicode="&#x2006;" horiz-adv-x="156" />
<glyph unicode="&#x2007;" horiz-adv-x="156" />
<glyph unicode="&#x2008;" horiz-adv-x="117" />
<glyph unicode="&#x2009;" horiz-adv-x="188" />
<glyph unicode="&#x200a;" horiz-adv-x="52" />
<glyph unicode="&#x2010;" horiz-adv-x="495" d="M391 202h-287q-14 0 -23 9t-9 23q0 13 9 22t23 9h287q14 0 23 -9t9 -22q0 -14 -9.5 -23t-22.5 -9z" />
<glyph unicode="&#x2011;" horiz-adv-x="495" d="M391 202h-287q-14 0 -23 9t-9 23q0 13 9 22t23 9h287q14 0 23 -9t9 -22q0 -14 -9.5 -23t-22.5 -9z" />
<glyph unicode="&#x2012;" horiz-adv-x="495" d="M391 202h-287q-14 0 -23 9t-9 23q0 13 9 22t23 9h287q14 0 23 -9t9 -22q0 -14 -9.5 -23t-22.5 -9z" />
<glyph unicode="&#x2013;" horiz-adv-x="600" d="M494 198h-388q-14 0 -23 9t-9 23q0 13 9 22t23 9h388q14 0 23 -9t9 -22q0 -14 -9 -23t-23 -9z" />
<glyph unicode="&#x2014;" horiz-adv-x="811" d="M710 198h-609q-13 0 -22.5 9t-9.5 23q0 13 9 22t23 9h609q14 0 23 -9t9 -22q0 -14 -9 -23t-23 -9z" />
<glyph unicode="&#x2018;" horiz-adv-x="232" d="M62 518q10 73 43.5 128.5t66.5 55.5q11 0 14 -10t-3 -19q-42 -72 -50 -138q-5 -49 -50 -49q-15 0 -19 8t-2 24z" />
<glyph unicode="&#x2019;" horiz-adv-x="234" d="M182 670q-10 -73 -43.5 -128.5t-66.5 -55.5q-11 0 -14 10t3 19q42 72 50 138q5 49 50 49q15 0 19 -8t2 -24z" />
<glyph unicode="&#x201a;" horiz-adv-x="239" d="M166 119q-10 -73 -43.5 -128.5t-66.5 -55.5q-11 0 -14 10t3 19q42 72 50 138q5 49 50 49q15 0 19 -8t2 -24z" />
<glyph unicode="&#x201c;" horiz-adv-x="359" d="M62 518q10 73 43.5 128.5t66.5 55.5q11 0 14 -10t-3 -19q-42 -72 -50 -138q-5 -49 -50 -49q-15 0 -19 8t-2 24zM189 518q10 73 43.5 128.5t66.5 55.5q11 0 14 -10t-3 -19q-42 -72 -50 -138q-5 -49 -50 -49q-15 0 -19 8t-2 24z" />
<glyph unicode="&#x201d;" horiz-adv-x="360" d="M182 670q-10 -73 -43.5 -128.5t-66.5 -55.5q-11 0 -14 10t3 19q42 72 50 138q5 49 50 49q15 0 19 -8t2 -24zM308 670q-10 -73 -43.5 -128.5t-66.5 -55.5q-11 0 -14 10t3 19q42 72 50 138q5 49 50 49q15 0 19 -8t2 -24z" />
<glyph unicode="&#x201e;" horiz-adv-x="367" d="M166 119q-10 -73 -43.5 -128.5t-66.5 -55.5q-11 0 -14 10t3 19q42 72 50 138q5 49 50 49q26 0 21 -32zM294 119q-10 -73 -43.5 -128.5t-66.5 -55.5q-11 0 -14 10t3 19q42 72 50 138q5 49 50 49q25 0 21 -32z" />
<glyph unicode="&#x2022;" horiz-adv-x="454" d="M83 239q0 59 42 98t102 39t102 -39t42 -98t-42 -98t-102 -39t-102 39t-42 98z" />
<glyph unicode="&#x2026;" horiz-adv-x="724" d="M67 42q0 22 16 37t39 15t39 -15t16 -37t-16 -37t-39 -15t-39 15t-16 37zM307 42q0 22 16 37t39 15t39 -15t16 -37t-16 -37t-39 -15t-39 15t-16 37zM547 42q0 22 16 37t39 15t39 -15t16 -37t-16 -37t-39 -15t-39 15t-16 37z" />
<glyph unicode="&#x202f;" horiz-adv-x="188" />
<glyph unicode="&#x2039;" horiz-adv-x="294" d="M117 234l113 -164q6 -11 2.5 -23.5t-14.5 -19.5q-11 -6 -23.5 -3t-18.5 14l-111 165q-14 22 -14 31t14 31l111 165q6 11 18.5 14t23.5 -3q11 -7 14.5 -19.5t-2.5 -23.5z" />
<glyph unicode="&#x203a;" horiz-adv-x="294" d="M177 234l-113 164q-6 11 -2.5 23.5t14.5 19.5q11 6 23.5 3t18.5 -14l111 -165q14 -22 14 -31t-14 -31l-111 -165q-6 -11 -18.5 -14t-23.5 3q-11 7 -14.5 19.5t2.5 23.5z" />
<glyph unicode="&#x205f;" horiz-adv-x="235" />
<glyph unicode="&#x20ac;" horiz-adv-x="788" d="M665 563q-79 68 -182 68q-97 0 -167 -58.5t-92 -151.5h273q11 0 18.5 -7t7.5 -18t-7.5 -18t-18.5 -7h-425q-11 0 -18.5 7t-7.5 18t7.5 18t18.5 7h84q25 121 114 198.5t213 77.5q130 0 225 -84q11 -9 12 -22.5t-8 -24.5q-9 -10 -23 -11t-24 8zM665 129q10 9 24 8t23 -11 q9 -11 8 -24.5t-12 -22.5q-95 -84 -225 -84q-124 0 -213 77.5t-114 198.5h-84q-11 0 -18.5 7t-7.5 18t7.5 18t18.5 7h425q11 0 18.5 -7t7.5 -18t-7.5 -18t-18.5 -7h-273q22 -93 92 -151.5t167 -58.5q103 0 182 68z" />
<glyph unicode="&#x2122;" horiz-adv-x="818" d="M304 337l37 302h-114v-302q0 -11 -7 -18t-17 -7q-25 0 -25 25v302h-93q-11 0 -18 7.5t-7 17.5t7.5 17.5t17.5 7.5h290q16 0 24 -16l126 -257l126 257q8 16 25 16h4q10 0 17 -7.5t9 -17.5l39 -327v-5q0 -23 -24 -23q-21 0 -25 22l-31 259l-110 -223q-11 -22 -30 -22 q-17 0 -29 23l-111 223l-31 -260q-4 -22 -24 -22q-11 0 -18.5 7.5t-7.5 17.5v3z" />
<glyph unicode="&#x25fc;" horiz-adv-x="470" d="M0 470h470v-470h-470v470z" />
</font>
</defs>
</svg>
